<svg width="201" height="190" viewBox="0 0 201 190" fill="none" xmlns="http://www.w3.org/2000/svg">
<path d="M156.317 45.0182L156.807 38.6782C153.967 34.7982 152.247 30.0282 152.147 24.7882C151.927 12.4382 161.317 1.7482 173.597 0.348201C187.777 -1.2618 200.307 9.6482 200.557 24.0282C200.767 36.2382 191.597 46.8382 179.497 48.4082C173.487 49.1882 167.757 47.7082 163.117 44.6582L156.317 45.0182Z" fill="white"/>
<path d="M156.317 45.0183C156.317 45.0183 156.457 45.0183 156.747 45.0183C157.057 45.0083 157.487 44.9883 158.037 44.9683C159.217 44.9183 160.927 44.8483 163.127 44.7583C163.177 44.7583 163.217 44.7083 163.217 44.6583C163.217 44.6383 163.207 44.6183 163.197 44.5983C163.197 44.5983 163.197 44.5983 163.197 44.5883L163.077 44.7283C165.587 46.3883 169.307 48.1883 174.107 48.6483C176.497 48.8883 179.117 48.7483 181.837 48.1583C184.547 47.5383 187.327 46.3983 189.917 44.6683C192.497 42.9283 194.877 40.5983 196.747 37.7483C198.617 34.9083 200.027 31.5683 200.517 27.9383C201.047 24.3183 200.747 20.4683 199.567 16.7983C198.407 13.1083 196.237 9.66834 193.347 6.86834C191.917 5.41834 190.237 4.26834 188.547 3.21834C187.667 2.75834 186.787 2.28834 185.877 1.89834L184.497 1.37834L183.807 1.11834L183.097 0.92834C179.337 -0.14166 175.437 -0.25166 171.807 0.41834C168.167 1.06834 164.857 2.64834 162.077 4.65834C159.297 6.68834 157.067 9.19834 155.447 11.8783C153.837 14.5683 152.827 17.4283 152.347 20.1683C152.257 20.8583 152.177 21.5383 152.087 22.2083C152.017 22.8783 152.037 23.5483 152.007 24.1983C151.967 25.4983 152.097 26.7483 152.267 27.9383C152.977 32.7183 154.967 36.3283 156.737 38.7183L156.717 38.6583C156.587 40.6983 156.477 42.2883 156.407 43.3983C156.377 43.9183 156.357 44.3183 156.337 44.6083C156.327 44.8783 156.317 45.0083 156.327 45.0083C156.327 45.0083 156.347 44.8583 156.377 44.5783C156.407 44.2783 156.447 43.8783 156.497 43.3483C156.597 42.2583 156.737 40.6883 156.907 38.6783C156.907 38.6583 156.907 38.6383 156.887 38.6183C155.167 36.2183 153.237 32.6283 152.557 27.8983C152.397 26.7183 152.287 25.4883 152.327 24.1983C152.357 23.5583 152.347 22.8983 152.417 22.2383C152.507 21.5783 152.597 20.9083 152.687 20.2283C153.177 17.5183 154.187 14.7183 155.777 12.0683C157.377 9.42834 159.587 6.96834 162.317 4.98834C165.047 3.01834 168.307 1.46834 171.877 0.83834C175.437 0.18834 179.267 0.29834 182.957 1.35834L183.657 1.53834L184.337 1.78834L185.687 2.29834C186.577 2.67834 187.437 3.13834 188.307 3.58834C189.967 4.61834 191.617 5.73834 193.017 7.16834C195.857 9.90834 197.987 13.2883 199.127 16.9083C200.287 20.5183 200.577 24.2983 200.077 27.8483C199.597 31.4083 198.217 34.6983 196.387 37.4983C194.547 40.2983 192.217 42.6083 189.687 44.3283C187.147 46.0383 184.407 47.1783 181.747 47.7983C179.077 48.3983 176.487 48.5483 174.127 48.3283C169.377 47.9083 165.677 46.1583 163.167 44.5483C163.127 44.5183 163.067 44.5283 163.037 44.5783C163.017 44.6183 163.017 44.6583 163.037 44.6883V44.6983L163.097 44.5383C160.927 44.6783 159.237 44.7783 158.077 44.8483C157.517 44.8883 157.077 44.9183 156.767 44.9383C156.467 44.9583 156.307 44.9783 156.307 44.9783L156.317 45.0183Z" fill="#878389"/>
<path d="M183.357 24.3984C183.357 26.0984 184.737 27.4784 186.437 27.4784C188.137 27.4784 189.517 26.0984 189.517 24.3984C189.517 22.6984 188.137 21.3184 186.437 21.3184C184.737 21.3184 183.357 22.6984 183.357 24.3984Z" fill="#878389"/>
<path d="M172.987 24.3984C172.987 26.0984 174.367 27.4784 176.067 27.4784C177.767 27.4784 179.147 26.0984 179.147 24.3984C179.147 22.6984 177.767 21.3184 176.067 21.3184C174.367 21.3184 172.987 22.6984 172.987 24.3984Z" fill="#878389"/>
<path d="M162.617 24.3984C162.617 26.0984 163.997 27.4784 165.697 27.4784C167.397 27.4784 168.777 26.0984 168.777 24.3984C168.777 22.6984 167.397 21.3184 165.697 21.3184C163.997 21.3184 162.617 22.6984 162.617 24.3984Z" fill="#878389"/>
<path d="M91.3548 186.409C136.576 186.409 173.235 149.75 173.235 104.529C173.235 59.3079 136.576 22.6489 91.3548 22.6489C46.1338 22.6489 9.47484 59.3079 9.47484 104.529C9.47484 149.75 46.1338 186.409 91.3548 186.409Z" fill="#6785B4"/>
<path d="M107.605 21.9591C106.505 18.8191 104.245 15.7891 100.765 14.5491C96.0948 12.8891 90.3248 15.1691 87.8348 19.0191C85.3448 22.8691 85.8148 27.8091 88.1348 31.7091C90.4648 35.6091 94.4348 38.5891 98.7348 40.8891L102.775 40.4491C107.905 35.5591 109.815 28.2691 107.615 21.9591H107.605Z" fill="#263238"/>
<path d="M147.185 53.0693L88.8248 39.8193C76.4348 53.6493 68.4448 71.3593 66.2848 89.7993C88.3448 101.679 119.875 110.669 144.795 113.209C150.155 94.0893 146.005 72.8893 147.185 53.0693Z" fill="#263238"/>
<path d="M92.3848 37.059C100.455 29.639 110.375 26.109 121.255 27.469C127.395 28.239 129.755 29.869 133.995 31.689C138.235 33.509 141.885 36.439 143.985 40.539C146.485 45.419 148.405 50.759 148.235 56.229C148.055 61.849 147.875 67.519 146.675 73.009C145.475 78.509 143.165 83.889 139.255 87.9291L124.765 88.379C116.915 87.539 108.955 86.669 101.595 83.809C94.2348 80.949 87.4248 75.809 84.2848 68.559C79.9348 58.499 84.3148 44.479 92.3848 37.049V37.059Z" fill="#263238"/>
<path d="M128.835 34.709L123.985 33.439L104.065 38.249C101.325 37.999 98.8448 39.889 98.3648 42.599L92.3148 102.739L117.795 114.279L120.585 101.589C120.585 101.589 133.375 102.149 138.655 87.829C141.285 80.709 143.295 68.579 144.625 58.599C145.825 49.619 139.905 36.319 128.825 34.699L128.835 34.709Z" fill="#FFBF9D"/>
<path d="M116.925 81.379C117.135 80.619 117.665 79.989 118.285 79.589C119.525 78.799 121.155 78.939 122.215 79.919C123.285 80.899 123.725 82.669 123.275 84.189C122.485 85.009 121.375 85.479 120.245 85.419C120.065 85.419 119.895 85.389 119.715 85.359C118.865 85.219 118.035 84.809 117.475 84.089C116.915 83.369 116.655 82.319 116.915 81.379H116.925Z" fill="#FF9A6C"/>
<path d="M137.785 70.0189C137.625 71.0289 136.635 71.7189 135.575 71.5689C134.525 71.4189 133.795 70.4789 133.955 69.4689C134.115 68.4589 135.105 67.7689 136.165 67.9189C137.225 68.0689 137.945 69.0089 137.785 70.0189Z" fill="#263238"/>
<path d="M140.495 63.259C140.215 63.459 138.985 62.109 136.945 61.709C134.905 61.279 133.205 62.029 133.035 61.739C132.945 61.609 133.275 61.209 134.025 60.859C134.765 60.509 135.945 60.269 137.215 60.529C138.485 60.789 139.465 61.469 139.985 62.069C140.515 62.679 140.645 63.169 140.505 63.249L140.495 63.259Z" fill="#263238"/>
<path d="M124.985 77.5089C124.995 77.3889 126.315 77.4189 128.425 77.5689C128.955 77.6189 129.475 77.6089 129.625 77.2789C129.825 76.9289 129.715 76.3189 129.585 75.6689C129.345 74.3089 129.095 72.8889 128.825 71.3989C127.805 65.3289 127.175 60.3689 127.415 60.3289C127.665 60.2889 128.685 65.1789 129.715 71.2589C129.955 72.7589 130.185 74.1789 130.405 75.5389C130.485 76.1689 130.695 76.9089 130.275 77.6389C130.055 77.9989 129.615 78.2089 129.265 78.2289C128.915 78.2689 128.615 78.2089 128.355 78.1789C126.265 77.8789 124.975 77.6389 124.995 77.5189L124.985 77.5089Z" fill="#263238"/>
<path d="M120.565 101.729C120.565 101.729 110.485 100.399 101.795 92.519C101.795 92.519 104.385 104.469 119.465 106.019L120.565 101.729Z" fill="#FF9A6C"/>
<path d="M118.695 77.729C119.035 77.779 118.595 79.989 120.185 81.939C121.765 83.889 124.175 84.109 124.135 84.429C124.135 84.579 123.525 84.759 122.525 84.589C121.545 84.429 120.175 83.829 119.205 82.639C118.235 81.449 117.995 80.059 118.095 79.139C118.195 78.199 118.545 77.699 118.695 77.739V77.729Z" fill="#263238"/>
<path d="M140.815 55.959C140.375 56.389 138.875 55.749 137.015 55.539C135.165 55.269 133.545 55.509 133.235 54.979C133.095 54.729 133.395 54.279 134.125 53.899C134.845 53.519 136.015 53.279 137.295 53.439C138.565 53.609 139.635 54.139 140.235 54.689C140.845 55.239 141.015 55.749 140.815 55.959Z" fill="#263238"/>
<path d="M115.995 66.2889C115.795 67.2889 116.485 68.2889 117.535 68.5089C118.575 68.7289 119.585 68.1089 119.775 67.0989C119.975 66.0989 119.285 65.0989 118.245 64.8789C117.205 64.6489 116.195 65.2789 115.995 66.2889Z" fill="#263238"/>
<path d="M112.755 58.509C112.955 58.799 114.575 57.959 116.625 58.289C118.685 58.589 120.025 59.889 120.285 59.679C120.415 59.589 120.245 59.099 119.665 58.519C119.095 57.939 118.065 57.299 116.785 57.099C115.505 56.899 114.355 57.199 113.655 57.579C112.945 57.959 112.655 58.379 112.755 58.509Z" fill="#263238"/>
<path d="M114.925 52.0989C115.255 52.6289 116.915 52.3989 118.825 52.6789C120.745 52.8989 122.295 53.5589 122.745 53.1289C122.945 52.9189 122.765 52.4089 122.135 51.8589C121.505 51.3089 120.405 50.7589 119.085 50.5889C117.765 50.4189 116.565 50.6589 115.825 51.0289C115.075 51.3989 114.775 51.8489 114.915 52.0989H114.925Z" fill="#263238"/>
<path d="M95.3148 63.7991L97.5148 66.8391C110.175 57.7591 135.755 34.1391 134.315 35.5591C134.315 35.5591 127.115 31.3391 118.625 31.5691C110.135 31.7991 93.8148 33.7191 92.6748 43.5291C91.5348 53.3391 95.3148 63.7991 95.3148 63.7991Z" fill="#263238"/>
<path d="M97.3348 68.1593C97.5548 67.0593 96.7948 64.2093 95.7348 63.8193C92.9148 62.7893 87.6348 61.9893 86.1248 69.3493C84.0648 79.4193 94.6048 79.4193 94.6848 79.1293C94.7448 78.9093 96.5948 71.9593 97.3348 68.1493V68.1593Z" fill="#FFBF9D"/>
<path d="M92.6548 74.8891C92.6548 74.8891 92.4548 74.9791 92.1348 75.0491C91.8148 75.1191 91.3048 75.1091 90.8148 74.8091C89.8348 74.1991 89.2848 72.3291 89.6048 70.4991C89.7648 69.5791 90.1348 68.7491 90.6148 68.0891C91.0748 67.4191 91.6548 66.9991 92.2148 67.0191C92.7748 67.0091 93.0848 67.3991 93.1548 67.7091C93.2348 68.0191 93.1248 68.2091 93.1748 68.2391C93.1948 68.2691 93.4248 68.1191 93.4248 67.6791C93.4248 67.4691 93.3548 67.2091 93.1548 66.9691C92.9548 66.7191 92.6148 66.5491 92.2348 66.5091C91.4448 66.3991 90.6048 66.9791 90.0848 67.6991C89.5248 68.4091 89.0848 69.3491 88.9048 70.3791C88.5548 72.4191 89.2048 74.5291 90.5748 75.2491C91.2448 75.5791 91.8848 75.4891 92.2348 75.3091C92.5948 75.1291 92.6948 74.9091 92.6648 74.8891H92.6548Z" fill="#FF9A6C"/>
<path d="M80.8148 37.4491C82.1348 39.5891 84.7548 40.8591 87.2648 40.5591C84.4148 42.4591 80.8148 43.2091 77.4348 42.6091C81.0048 45.9991 86.7848 46.7991 91.1348 44.5091L95.3348 34.3691C91.7148 37.8591 85.5148 39.2291 80.8148 37.4491Z" fill="#263238"/>
<path d="M119.775 109.839L93.3148 100.239H86.2148L103.835 119.709L111.305 126.239L120.395 125.749L124.305 121.359L119.775 109.839Z" fill="#FFBF9D"/>
<path d="M148.335 130.089C146.155 122.859 136.545 117.389 136.545 117.389L120.625 109.349C120.625 109.349 119.445 115.379 109.165 113.459C96.0948 111.009 92.5448 99.5093 92.5448 99.5093C92.5448 99.5093 68.2548 99.3593 63.7748 100.069L54.4748 187.519L123.105 188.529L128.745 180.809C132.015 176.339 134.585 171.379 136.205 166.079C137.275 162.589 137.825 159.889 137.825 159.889C137.825 159.889 150.775 158.859 155.075 153.039C155.075 153.039 149.615 134.339 148.335 130.089Z" fill="#563189"/>
<path d="M136.315 130.239C136.215 130.269 136.665 132.059 137.205 134.979C137.745 137.899 138.305 141.979 138.455 146.509C138.595 151.039 138.295 155.139 137.935 158.089C137.585 161.039 137.235 162.859 137.345 162.879C137.385 162.879 137.515 162.449 137.715 161.629C137.915 160.819 138.155 159.629 138.385 158.149C138.865 155.199 139.235 151.059 139.095 146.479C138.945 141.909 138.305 137.799 137.645 134.879C137.315 133.419 137.005 132.249 136.755 131.449C136.505 130.649 136.345 130.219 136.305 130.229L136.315 130.239Z" fill="#263238"/>
<path d="M93.4748 174.609C93.4748 174.609 93.8848 174.609 94.6148 174.479C94.9748 174.419 95.4248 174.339 95.9248 174.179C96.4248 174.029 97.0148 173.899 97.6148 173.639C98.8648 173.199 100.275 172.499 101.765 171.569C103.225 170.609 104.735 169.409 106.135 167.949C107.515 166.469 108.635 164.889 109.505 163.379C110.345 161.849 110.965 160.389 111.345 159.129C111.565 158.509 111.675 157.919 111.795 157.409C111.925 156.899 111.985 156.459 112.015 156.089C112.095 155.359 112.125 154.949 112.075 154.949C111.945 154.929 111.765 156.549 110.905 158.989C110.485 160.209 109.835 161.609 108.985 163.089C108.105 164.549 107.005 166.069 105.655 167.509C104.295 168.929 102.835 170.109 101.425 171.079C99.9948 172.009 98.6348 172.739 97.4348 173.219C95.0448 174.219 93.4448 174.489 93.4648 174.609H93.4748Z" fill="#263238"/>
<path d="M73.8248 99.5791L62.5048 99.8691C60.5648 99.9191 58.6348 100.269 56.7948 100.909L28.9248 110.569L44.7748 126.559L66.1248 131.559L73.8148 99.5791H73.8248Z" fill="#563189"/>
<path d="M61.7148 113.419C61.8248 113.419 62.0548 117.779 62.2448 123.159C62.4348 128.549 62.4948 132.909 62.3948 132.919C62.2848 132.919 62.0548 128.559 61.8648 123.179C61.6748 117.799 61.6148 113.429 61.7148 113.429V113.419Z" fill="#263238"/>
<path d="M166.255 141.699H23.1048C10.4741 141.699 0.234833 151.938 0.234833 164.569V166.189C0.234833 178.82 10.4741 189.059 23.1048 189.059H166.255C178.886 189.059 189.125 178.82 189.125 166.189V164.569C189.125 151.938 178.886 141.699 166.255 141.699Z" fill="white"/>
<path d="M166.255 189.059C166.255 189.059 166.635 189.019 167.375 188.979C167.745 188.949 168.205 188.939 168.745 188.879C169.285 188.789 169.915 188.689 170.625 188.579C171.335 188.439 172.105 188.199 172.965 187.989C173.385 187.849 173.815 187.679 174.275 187.509C174.735 187.339 175.205 187.179 175.675 186.929C177.605 186.099 179.665 184.749 181.675 182.909C183.675 181.059 185.575 178.629 186.945 175.599C187.345 174.869 187.545 174.039 187.875 173.239C188.145 172.419 188.335 171.549 188.555 170.679C188.665 169.789 188.885 168.889 188.905 167.959C188.945 167.029 189.015 166.079 188.985 165.099C188.985 164.129 188.905 163.149 188.845 162.149C188.665 161.169 188.605 160.139 188.295 159.149C187.855 157.129 186.995 155.159 185.925 153.249C184.865 151.329 183.395 149.579 181.735 147.989C180.065 146.389 178.075 145.039 175.865 144.029C173.665 143.009 171.255 142.289 168.715 142.019C166.185 141.809 163.555 141.909 160.885 141.889C155.535 141.889 149.975 141.889 144.215 141.899C132.695 141.899 120.385 141.919 107.425 141.919C81.5148 141.919 53.0248 141.929 23.1248 141.939C19.4248 141.959 15.7648 142.879 12.5348 144.569C9.30484 146.279 6.55484 148.799 4.49484 151.739C2.44484 154.699 1.17484 158.149 0.71484 161.659C0.50484 163.409 0.46484 165.199 0.54484 166.959L0.61484 168.279C0.64484 168.719 0.73484 169.149 0.79484 169.579C0.86484 170.009 0.91484 170.449 1.00484 170.869L1.33484 172.139C3.09484 178.919 8.25484 184.449 14.4148 187.039C17.5248 188.339 20.8548 188.829 24.1548 188.789C27.4748 188.789 30.7548 188.789 33.9948 188.789C59.9048 188.809 83.2448 188.829 102.845 188.849C122.435 188.879 138.295 188.909 149.265 188.929C154.735 188.949 158.985 188.969 161.885 188.979C163.315 188.989 164.415 188.999 165.165 189.009C165.905 189.009 166.285 189.039 166.285 189.039C166.285 189.039 165.905 189.059 165.165 189.069C164.415 189.069 163.315 189.079 161.885 189.099C158.985 189.109 154.735 189.129 149.265 189.149C138.295 189.169 122.445 189.199 102.845 189.229C83.2448 189.249 59.9048 189.259 33.9948 189.289C30.7548 189.289 27.4748 189.289 24.1548 189.289C20.8248 189.339 17.3948 188.839 14.2248 187.509C7.92484 184.859 2.65484 179.219 0.84484 172.279L0.51484 170.979C0.41484 170.539 0.37484 170.099 0.29484 169.659C0.23484 169.219 0.13484 168.779 0.11484 168.329L0.0448401 166.979C-0.0451599 165.199 -0.00515991 163.399 0.21484 161.589C0.68484 157.999 1.98484 154.479 4.08484 151.439C6.19484 148.429 9.00484 145.859 12.3148 144.109C15.6248 142.379 19.3648 141.439 23.1448 141.409C53.0448 141.409 81.5348 141.419 107.445 141.429C120.405 141.429 132.715 141.449 144.235 141.449C149.995 141.449 155.555 141.459 160.905 141.469C163.585 141.499 166.195 141.399 168.775 141.619C171.345 141.899 173.805 142.639 176.035 143.679C178.275 144.709 180.295 146.089 181.985 147.719C183.675 149.339 185.165 151.119 186.225 153.069C187.305 155.009 188.165 157.009 188.615 159.059C188.925 160.059 188.985 161.099 189.165 162.099C189.225 163.109 189.295 164.109 189.295 165.079C189.315 166.049 189.245 167.009 189.195 167.959C189.165 168.899 188.935 169.809 188.825 170.719C188.595 171.599 188.405 172.469 188.135 173.299C187.805 174.109 187.595 174.949 187.185 175.689C185.775 178.739 183.845 181.189 181.825 183.039C179.785 184.879 177.705 186.219 175.755 187.049C175.285 187.299 174.805 187.459 174.345 187.619C173.885 187.779 173.445 187.949 173.025 188.089C172.155 188.299 171.375 188.529 170.665 188.659C169.955 188.759 169.325 188.859 168.775 188.939C168.225 188.989 167.765 188.989 167.395 189.009C166.655 189.039 166.275 189.039 166.275 189.039L166.255 189.059Z" fill="#263238"/>
<path d="M31.1148 152.619L33.8648 158.199C34.0848 158.639 34.4948 158.939 34.9748 159.009L41.1248 159.899C42.3348 160.079 42.8248 161.569 41.9448 162.419L37.4948 166.759C37.1448 167.099 36.9848 167.589 37.0648 168.069L38.1148 174.199C38.3248 175.409 37.0548 176.329 35.9648 175.759L30.4648 172.869C30.0348 172.639 29.5148 172.639 29.0848 172.869L23.5848 175.759C22.4948 176.329 21.2348 175.409 21.4348 174.199L22.4848 168.069C22.5648 167.589 22.4048 167.099 22.0548 166.759L17.6048 162.419C16.7248 161.559 17.2148 160.069 18.4248 159.899L24.5748 159.009C25.0548 158.939 25.4748 158.639 25.6848 158.199L28.4348 152.619C28.9748 151.519 30.5448 151.519 31.0848 152.619H31.1148Z" fill="#E94675"/>
<path d="M64.1948 152.619L66.9448 158.199C67.1648 158.639 67.5748 158.939 68.0548 159.009L74.2048 159.899C75.4148 160.079 75.9048 161.569 75.0248 162.419L70.5748 166.759C70.2248 167.099 70.0648 167.589 70.1448 168.069L71.1948 174.199C71.4048 175.409 70.1348 176.329 69.0448 175.759L63.5448 172.869C63.1148 172.639 62.5948 172.639 62.1648 172.869L56.6648 175.759C55.5748 176.329 54.3148 175.409 54.5148 174.199L55.5648 168.069C55.6448 167.589 55.4848 167.099 55.1348 166.759L50.6848 162.419C49.8048 161.559 50.2948 160.069 51.5048 159.899L57.6548 159.009C58.1348 158.939 58.5548 158.639 58.7648 158.199L61.5148 152.619C62.0548 151.519 63.6248 151.519 64.1648 152.619H64.1948Z" fill="#E94675"/>
<path d="M97.5048 152.619L100.255 158.199C100.475 158.639 100.885 158.939 101.365 159.009L107.515 159.899C108.725 160.079 109.215 161.569 108.335 162.419L103.885 166.759C103.535 167.099 103.375 167.589 103.455 168.069L104.505 174.199C104.715 175.409 103.445 176.329 102.355 175.759L96.8548 172.869C96.4248 172.639 95.9048 172.639 95.4748 172.869L89.9748 175.759C88.8848 176.329 87.6248 175.409 87.8248 174.199L88.8748 168.069C88.9548 167.589 88.7948 167.099 88.4448 166.759L83.9948 162.419C83.1148 161.559 83.6048 160.069 84.8148 159.899L90.9648 159.009C91.4448 158.939 91.8648 158.639 92.0748 158.199L94.8248 152.619C95.3648 151.519 96.9348 151.519 97.4748 152.619H97.5048Z" fill="#E94675"/>
<path d="M127.905 152.619L130.655 158.199C130.875 158.639 131.285 158.939 131.765 159.009L137.915 159.899C139.125 160.079 139.615 161.569 138.735 162.419L134.285 166.759C133.935 167.099 133.775 167.589 133.855 168.069L134.905 174.199C135.115 175.409 133.845 176.329 132.755 175.759L127.255 172.869C126.825 172.639 126.305 172.639 125.875 172.869L120.375 175.759C119.285 176.329 118.025 175.409 118.225 174.199L119.275 168.069C119.355 167.589 119.195 167.099 118.845 166.759L114.395 162.419C113.515 161.559 114.005 160.069 115.215 159.899L121.365 159.009C121.845 158.939 122.265 158.639 122.475 158.199L125.225 152.619C125.765 151.519 127.335 151.519 127.875 152.619H127.905Z" fill="#E94675"/>
<path d="M160.615 153.539L163.365 159.119C163.585 159.559 163.995 159.859 164.475 159.929L170.625 160.819C171.835 160.999 172.325 162.489 171.445 163.339L166.995 167.679C166.645 168.019 166.485 168.509 166.565 168.989L167.615 175.119C167.825 176.329 166.555 177.249 165.465 176.679L159.965 173.789C159.535 173.559 159.015 173.559 158.585 173.789L153.085 176.679C151.995 177.249 150.735 176.329 150.935 175.119L151.985 168.989C152.065 168.509 151.905 168.019 151.555 167.679L147.105 163.339C146.225 162.479 146.715 160.989 147.925 160.819L154.075 159.929C154.555 159.859 154.975 159.559 155.185 159.119L157.935 153.539C158.475 152.439 160.045 152.439 160.585 153.539H160.615Z" fill="#E0E0E0"/>
<path d="M87.8748 148.149L91.3548 133.279L43.8448 125.049L29.7848 111.649C29.7848 111.649 18.1948 115.919 12.8748 121.939C5.14484 130.679 11.7348 140.929 17.1248 142.369C22.5248 143.809 87.8648 148.149 87.8648 148.149H87.8748Z" fill="#FFBF9D"/>
<path d="M25.2648 122.779C25.2648 122.779 25.5348 122.719 26.0248 122.699C26.5148 122.669 27.2248 122.649 28.0948 122.649C29.8448 122.649 32.2648 122.729 34.9148 123.039C37.5748 123.349 39.9448 123.829 41.6448 124.269C42.4948 124.489 43.1748 124.689 43.6348 124.849C44.0948 125.009 44.3548 125.109 44.3448 125.129C44.3248 125.189 43.2848 124.899 41.5848 124.529C39.8848 124.149 37.5148 123.719 34.8748 123.419C32.2348 123.119 29.8348 122.979 28.0848 122.919C26.3448 122.859 25.2648 122.849 25.2648 122.789V122.779Z" fill="#FF9A6C"/>
<path d="M83.6249 132.279C86.0049 132.039 94.5349 133.399 98.1249 134.789C103.945 137.049 106.405 139.569 110.795 140.249C115.185 140.929 120.375 140.169 120.255 142.579C120.135 144.979 110.555 146.219 110.555 146.219C110.555 146.219 122.205 159.719 120.755 161.659C120.265 162.309 118.355 162.789 116.955 161.349C113.845 158.139 109.605 153.709 109.605 153.709C109.605 153.709 110.195 164.409 108.065 166.539C105.935 168.669 104.005 167.029 104.005 167.029C104.005 167.029 102.825 168.919 100.545 168.279C99.1149 167.879 98.6249 165.889 98.6249 165.889C98.6249 165.889 96.1649 166.459 95.3249 163.469C94.5349 160.649 93.2349 151.829 93.2349 151.829C93.2349 151.829 86.1449 147.919 85.8549 148.239L76.9949 147.419L75.9149 134.289L83.6349 132.299L83.6249 132.279Z" fill="#FFBF9D"/>
<path d="M104.735 152.239C104.735 152.239 104.915 153.059 105.015 154.399C105.115 155.739 105.155 157.609 105.065 159.659C104.965 161.709 104.745 163.559 104.515 164.889C104.285 166.219 104.065 167.019 104.015 167.009C103.955 166.999 104.085 166.179 104.245 164.849C104.405 163.519 104.585 161.679 104.685 159.639C104.785 157.599 104.785 155.749 104.755 154.409C104.725 153.069 104.685 152.239 104.745 152.239H104.735Z" fill="#FF9A6C"/>
<path d="M98.4249 152.429C98.4249 152.429 98.6949 153.159 98.9249 154.389C99.1549 155.619 99.3549 157.339 99.3749 159.239C99.3949 161.149 99.2149 162.869 99.0149 164.099C98.8149 165.329 98.6049 166.079 98.5549 166.069C98.4949 166.059 98.6149 165.299 98.7449 164.069C98.8749 162.839 99.0049 161.129 98.9949 159.249C98.9749 157.359 98.8149 155.659 98.6549 154.429C98.4949 153.199 98.3649 152.439 98.4249 152.429Z" fill="#FF9A6C"/>
<path d="M107.375 142.279C107.445 142.209 108.435 143.089 109.465 144.359C110.495 145.629 111.145 146.779 111.065 146.839C110.975 146.899 110.185 145.849 109.175 144.599C108.165 143.349 107.305 142.359 107.385 142.279H107.375Z" fill="#FF9A6C"/>
<path d="M169.485 151.149C169.975 150.269 170.115 149.239 170.185 148.229C170.245 147.219 170.385 145.329 170.595 144.339L170.875 137.889C169.525 134.889 166.215 135.869 165.565 137.579C165.215 136.679 165.305 136.139 164.525 135.559C163.745 134.979 162.705 134.719 161.785 135.019C160.865 135.319 160.145 136.259 160.255 137.229C159.405 135.999 157.735 135.409 156.305 135.819C155.445 136.069 154.695 136.659 154.225 137.419C153.985 137.799 153.825 138.219 153.735 138.659C153.705 138.819 153.645 138.999 153.675 139.159C153.685 139.239 153.725 139.309 153.765 139.379C153.955 139.689 154.185 139.959 154.355 140.289C154.415 140.409 154.475 140.539 154.535 140.669C154.785 141.249 154.925 141.869 155.005 142.489C155.045 142.779 155.005 143.099 155.095 143.379C155.145 143.569 155.285 143.719 155.365 143.889C155.895 144.999 155.855 146.339 155.885 147.539C155.915 148.889 156.005 150.319 156.765 151.439C157.525 152.549 159.205 153.149 160.275 152.319C160.155 153.169 160.855 154.009 161.695 154.179C162.535 154.349 163.425 153.959 164.005 153.329C164.585 152.699 164.895 151.859 165.065 151.009C165.065 152.019 166.095 152.829 167.105 152.789C168.115 152.749 169.005 152.029 169.495 151.149H169.485Z" fill="#FFBF9D"/>
<path d="M150.175 138.059C149.345 138.069 148.445 138.289 147.925 138.939C147.305 139.709 147.245 141.179 147.375 142.159C148.535 142.319 149.135 142.329 150.305 142.489C150.555 142.519 150.755 142.449 150.955 142.579C151.505 142.929 151.485 144.209 151.735 144.809C152.165 145.859 153.555 146.309 154.595 145.859C155.635 145.409 156.255 144.249 156.255 143.109C156.255 141.979 155.695 140.899 154.925 140.069C153.715 138.779 151.945 138.029 150.175 138.049V138.059Z" fill="#FFBF9D"/>
<path d="M160.235 136.899C160.455 136.899 160.635 140.349 160.635 144.609C160.635 148.869 160.465 152.319 160.255 152.319C160.035 152.319 159.855 148.869 159.855 144.609C159.855 140.349 160.025 136.899 160.235 136.899Z" fill="#FF9A6C"/>
<path d="M165.575 137.349C165.785 137.329 166.225 140.459 166.095 144.339C165.975 148.219 165.315 151.309 165.115 151.279C164.895 151.249 165.195 148.149 165.315 144.319C165.445 140.489 165.355 137.379 165.585 137.359L165.575 137.349Z" fill="#FF9A6C"/>
<path d="M151.865 138.509C151.855 138.419 152.405 138.259 153.225 138.589C154.035 138.889 154.985 139.759 155.475 140.959C155.965 142.169 156.155 143.209 156.165 144.109C156.125 145.069 155.445 145.379 155.415 145.259C155.345 145.179 155.705 144.829 155.605 144.119C155.475 143.439 155.175 142.309 154.745 141.279C154.305 140.219 153.595 139.469 152.965 139.089C152.345 138.699 151.855 138.639 151.855 138.519L151.865 138.509Z" fill="#FF9A6C"/>
</svg>
