<svg width="322" height="299" viewBox="0 0 322 299" fill="none" xmlns="http://www.w3.org/2000/svg">
<path d="M203.14 263.74L204.162 265.801C204.302 266.08 204.572 266.281 204.887 266.325L207.166 266.657C207.953 266.77 208.267 267.74 207.699 268.29L206.049 269.897C205.821 270.116 205.717 270.439 205.769 270.744L206.153 273.007C206.284 273.793 205.463 274.386 204.765 274.02L202.73 272.945C202.45 272.797 202.118 272.797 201.839 272.945L199.804 274.02C199.096 274.386 198.275 273.793 198.415 273.007L198.799 270.744C198.852 270.43 198.747 270.116 198.52 269.897L196.869 268.29C196.301 267.731 196.616 266.77 197.402 266.657L199.681 266.325C199.996 266.281 200.267 266.08 200.406 265.801L201.428 263.74C201.778 263.024 202.8 263.024 203.149 263.74H203.14Z" fill="#E94675"/>
<path d="M218.495 263.74L219.516 265.801C219.656 266.08 219.927 266.281 220.241 266.325L222.521 266.657C223.307 266.77 223.621 267.74 223.054 268.29L221.403 269.897C221.176 270.116 221.071 270.439 221.123 270.744L221.508 273.007C221.639 273.793 220.818 274.386 220.119 274.02L218.084 272.945C217.805 272.797 217.473 272.797 217.193 272.945L215.158 274.02C214.451 274.386 213.63 273.793 213.769 273.007L214.154 270.744C214.206 270.43 214.101 270.116 213.874 269.897L212.224 268.29C211.656 267.731 211.97 266.77 212.756 266.657L215.036 266.325C215.35 266.281 215.621 266.08 215.761 265.801L216.774 263.74C217.123 263.024 218.145 263.024 218.495 263.74Z" fill="#E94675"/>
<path d="M187.786 263.74L188.808 265.801C188.947 266.08 189.218 266.281 189.533 266.325L191.812 266.657C192.598 266.77 192.913 267.74 192.345 268.29L190.694 269.897C190.467 270.116 190.362 270.439 190.415 270.744L190.799 273.007C190.93 273.793 190.109 274.386 189.41 274.02L187.375 272.945C187.096 272.797 186.764 272.797 186.485 272.945L184.449 274.02C183.742 274.386 182.921 273.793 183.061 273.007L183.454 270.744C183.506 270.43 183.401 270.116 183.174 269.897L181.524 268.29C180.956 267.731 181.27 266.77 182.056 266.657L184.336 266.325C184.65 266.281 184.921 266.08 185.061 265.801L186.074 263.74C186.423 263.024 187.445 263.024 187.795 263.74H187.786Z" fill="#E94675"/>
<path d="M220.46 282.788C220.46 282.788 220.992 282.771 221.979 282.622C222.958 282.474 224.434 282.116 226.041 281.103C227.648 280.125 229.36 278.387 230.329 275.88C230.818 274.631 231.054 273.199 231.028 271.67C231.028 270.133 231.019 268.508 231.01 266.805C230.984 265.128 230.565 263.364 229.674 261.757C228.774 260.167 227.421 258.726 225.709 257.748C223.997 256.752 221.953 256.272 219.84 256.351C217.7 256.351 215.499 256.351 213.245 256.359C204.214 256.359 194.301 256.368 183.882 256.377C181.323 256.377 178.834 257.346 176.973 258.988C175.087 260.613 173.864 262.901 173.523 265.286C173.34 266.465 173.401 267.687 173.392 268.893C173.392 270.098 173.366 271.303 173.41 272.465C173.453 274.788 174.379 276.989 175.75 278.71C177.165 280.413 179.052 281.644 181.078 282.186C182.083 282.5 183.122 282.561 184.144 282.579C185.183 282.579 186.205 282.579 187.201 282.579C191.21 282.588 194.948 282.596 198.363 282.605C205.175 282.631 210.686 282.657 214.529 282.675C216.425 282.692 217.901 282.71 218.922 282.719C219.412 282.727 219.787 282.736 220.067 282.745C220.32 282.745 220.46 282.762 220.46 282.771C220.46 282.78 220.329 282.788 220.067 282.797C219.787 282.797 219.412 282.806 218.922 282.823C217.892 282.832 216.416 282.85 214.529 282.867C210.686 282.885 205.175 282.911 198.363 282.937C194.948 282.937 191.21 282.954 187.201 282.963C186.196 282.963 185.174 282.963 184.144 282.963C183.104 282.946 182.013 282.885 180.965 282.561C178.86 282.002 176.886 280.727 175.419 278.963C173.986 277.172 173.025 274.884 172.964 272.465C172.921 271.268 172.947 270.089 172.938 268.875C172.947 267.679 172.877 266.447 173.069 265.198C173.427 262.718 174.702 260.325 176.668 258.63C178.606 256.918 181.209 255.914 183.873 255.905C194.284 255.905 204.206 255.914 213.237 255.923C215.49 255.923 217.691 255.923 219.831 255.931C221.988 255.853 224.137 256.368 225.892 257.399C227.665 258.421 229.054 259.914 229.98 261.565C230.888 263.224 231.316 265.05 231.333 266.779C231.333 268.482 231.333 270.107 231.325 271.653C231.333 273.199 231.08 274.675 230.574 275.95C229.56 278.509 227.787 280.264 226.137 281.234C224.486 282.238 222.993 282.57 221.997 282.692C221.499 282.78 221.115 282.754 220.853 282.771C220.591 282.771 220.46 282.771 220.46 282.771V282.788Z" fill="#E94675"/>
<path d="M296.012 83.0464H293.051L286.597 74.0505V68.1463C286.597 68.1463 282.029 67.8668 282.562 75.5964C283.103 83.3259 282.518 81.3608 282.518 81.3608C282.518 81.3608 272.814 81.3957 272.002 82.2429C271.417 82.8543 271.146 92.4966 271.05 97.7283C270.998 100.357 272.614 102.811 275.059 103.432C275.408 103.519 275.758 103.571 276.107 103.571C278.526 103.571 290.894 101.606 290.894 101.606H296.003V83.0552L296.012 83.0464Z" fill="#E94675"/>
<path d="M304.484 81.4219L302.658 101.65H297.601V81.8324L304.484 81.4219Z" fill="#E94675"/>
<path d="M259.416 69.0368L260.63 67.8053L267.032 68.7922L269.495 71.2115C269.495 71.2115 271.487 69.4211 268.037 66.4777C264.587 63.5344 265.644 64.1021 265.644 64.1021C265.644 64.1021 269.6 60.0321 269.583 59.3508C269.565 58.853 265.644 54.7917 263.504 52.6082C262.421 51.5077 260.744 51.1845 259.478 51.9444C259.294 52.0492 259.128 52.1802 258.989 52.32C257.993 53.3331 253.748 59.3071 253.748 59.3071L251.652 61.4382L259.399 69.0368H259.416Z" fill="#E94675"/>
<path d="M256.622 73.2377L248.918 64.1893L250.988 62.0757L259.268 70.1983L256.622 73.2377Z" fill="#E94675"/>
<path d="M272.934 203.935C300.026 176.843 300.026 132.918 272.933 105.826C245.841 78.7334 201.916 78.7334 174.824 105.826C147.732 132.918 147.732 176.843 174.824 203.935C201.916 231.027 245.841 231.027 272.934 203.935Z" fill="#6785B4"/>
<path d="M199.746 85.6938C198.47 86.3925 197.676 87.8773 197.798 89.3271C196.636 88.6459 195.047 88.8817 194.06 89.79C193.064 90.6984 192.68 92.1744 192.977 93.4932C193.265 94.8033 194.182 95.9387 195.335 96.6287C194.505 96.7161 193.841 97.4323 193.623 98.2358C193.405 99.0393 193.588 99.904 193.92 100.664C195.029 103.197 198.025 104.743 200.733 104.184L205.755 86.672L199.754 85.6851L199.746 85.6938Z" fill="#263238"/>
<path d="M212.305 154.177L212.445 148.072C212.445 148.072 199.946 146.831 199.108 134.455C198.706 128.473 198.872 116.097 199.152 104.9C199.449 92.8555 208.951 83.0647 220.978 82.4009L222.174 82.3311C235.101 82.366 242.298 93.3708 241.896 106.297L240.201 158.212L218.052 166.457L212.305 154.177Z" fill="#DD9077"/>
<path d="M212.445 148.081C212.445 148.081 220.288 148.308 228.41 143.749C228.41 143.749 227.948 152.509 212.698 152.072L212.445 148.072V148.081Z" fill="#6F4439"/>
<path d="M204.121 117.774C204.139 118.709 204.951 119.468 205.929 119.468C206.908 119.468 207.685 118.709 207.667 117.774C207.65 116.839 206.838 116.08 205.868 116.08C204.89 116.08 204.113 116.839 204.13 117.774H204.121Z" fill="#263238"/>
<path d="M202.148 110.813C202.383 111.031 203.667 109.965 205.571 109.861C207.475 109.73 208.925 110.638 209.117 110.393C209.213 110.289 208.969 109.878 208.331 109.468C207.711 109.057 206.663 108.69 205.475 108.76C204.287 108.83 203.318 109.328 202.768 109.799C202.209 110.28 202.034 110.708 202.148 110.804V110.813Z" fill="#263238"/>
<path d="M220.838 117.136C220.856 118.071 221.668 118.831 222.646 118.822C223.624 118.822 224.402 118.062 224.384 117.127C224.367 116.193 223.554 115.433 222.585 115.433C221.607 115.433 220.829 116.193 220.847 117.127L220.838 117.136Z" fill="#263238"/>
<path d="M220.873 110.132C221.109 110.35 222 109.154 223.904 109.049C225.808 108.918 227.642 109.957 227.843 109.713C227.939 109.608 227.694 109.197 227.057 108.787C226.437 108.376 225.389 108.01 224.201 108.079C223.013 108.149 222.043 108.647 221.493 109.119C220.934 109.599 220.76 110.027 220.873 110.123V110.132Z" fill="#263238"/>
<path d="M214.751 124.63C214.751 124.525 213.563 124.385 211.624 124.245C211.135 124.219 210.672 124.149 210.567 123.826C210.436 123.485 210.611 122.944 210.812 122.367C211.205 121.162 211.615 119.904 212.043 118.586C213.746 113.205 214.951 108.795 214.733 108.725C214.515 108.655 212.96 112.961 211.257 118.35C210.846 119.677 210.453 120.944 210.087 122.149C209.929 122.708 209.65 123.354 209.938 124.071C210.087 124.429 210.462 124.673 210.777 124.734C211.091 124.813 211.371 124.804 211.606 124.804C213.545 124.804 214.742 124.743 214.742 124.638L214.751 124.63Z" fill="#263238"/>
<path d="M219.65 104.638C219.912 105.127 221.755 104.603 224.009 104.542C226.262 104.437 228.14 104.821 228.367 104.315C228.463 104.079 228.079 103.642 227.284 103.249C226.498 102.856 225.284 102.559 223.939 102.603C222.585 102.655 221.406 103.048 220.646 103.494C219.886 103.939 219.537 104.402 219.65 104.638Z" fill="#263238"/>
<path d="M201.781 106.218C202.2 106.603 203.597 105.983 205.344 105.755C207.073 105.476 208.602 105.659 208.881 105.17C209.004 104.934 208.724 104.533 208.025 104.201C207.344 103.869 206.235 103.668 205.047 103.843C203.851 104.017 202.864 104.533 202.305 105.048C201.746 105.563 201.589 106.026 201.781 106.218Z" fill="#263238"/>
<path d="M240.577 118.463C240.551 116.551 242.114 114.944 244.027 115.022C246.35 115.11 248.996 116.28 249.101 121.066C249.302 129.547 240.743 128.001 240.725 127.756C240.708 127.59 240.629 122.018 240.577 118.463Z" fill="#DD9077"/>
<path d="M242.49 124.516C242.49 124.516 242.638 124.612 242.891 124.726C243.136 124.831 243.555 124.901 244.001 124.726C244.892 124.377 245.608 122.935 245.616 121.407C245.616 120.638 245.442 119.905 245.154 119.302C244.883 118.691 244.472 118.263 244.018 118.193C243.564 118.097 243.25 118.376 243.153 118.621C243.049 118.857 243.101 119.031 243.057 119.04C243.031 119.066 242.874 118.9 242.935 118.551C242.97 118.385 243.057 118.175 243.258 118.009C243.459 117.835 243.756 117.747 244.071 117.774C244.726 117.8 245.328 118.394 245.643 119.049C245.992 119.713 246.21 120.534 246.21 121.398C246.193 123.11 245.354 124.726 244.14 125.11C243.547 125.276 243.049 125.11 242.787 124.918C242.516 124.717 242.472 124.525 242.498 124.508L242.49 124.516Z" fill="#6F4439"/>
<path d="M211.527 96.9517C211.527 96.9517 211.492 96.9604 211.466 96.9604C211.414 96.9604 211.362 96.9691 211.318 96.9778L211.527 96.9517Z" fill="#563189"/>
<path d="M249.241 102.83C249.049 102.079 248.516 101.459 247.852 101.083C248.237 100.62 248.516 100.087 248.656 99.5023C249.04 97.869 248.254 96.0262 246.813 95.1615C248.21 93.6767 248.708 91.3972 248.053 89.4582C247.398 87.5193 245.616 86.017 243.608 85.6851C243.59 83.1348 242.123 80.6369 239.904 79.3792C237.686 78.1215 234.786 78.1477 232.594 79.4403C230.646 75.4926 225.013 73.9554 221.336 76.366C218.716 74.7065 215.93 73.0034 212.847 72.9859C209.763 72.9685 206.453 75.414 206.759 78.4796C204.532 78.008 202.174 77.8508 199.999 78.532C197.824 79.2133 195.859 80.8378 195.213 83.03C194.575 85.2222 195.553 87.8948 197.658 88.7857C195.85 90.8731 195.972 94.3667 197.938 96.3231C198.505 96.8908 199.213 97.2751 199.964 97.5284C199.955 98.0612 199.964 98.6027 200.034 99.1529C200.034 99.1529 200.243 98.5852 200.602 97.7205C202.296 98.0786 204.165 97.7031 205.475 96.5502C207.117 98.1485 209.702 98.6813 211.842 97.869C213.982 97.048 215.554 94.9169 215.703 92.6374C216.978 93.7291 218.812 94.1309 220.428 93.6767C222.043 93.2225 223.397 91.9212 223.912 90.3229C225.843 92.288 229.013 92.9256 231.555 91.8601C231.686 93.502 232.612 94.9868 233.895 96.0087C233.869 97.4236 233.729 99.0481 233.948 101.031C236.393 123.25 240.813 129.32 241.389 118.761C241.45 117.634 244.411 116.56 244.769 112.009C245.241 111.905 245.695 111.747 246.123 111.511C247.014 111.014 247.739 110.166 247.975 109.171C248.21 108.175 247.905 107.04 247.119 106.385C248.612 106.027 249.643 104.323 249.25 102.839L249.241 102.83Z" fill="#263238"/>
<path d="M232.009 93.2568C232.009 93.2568 232.009 93.5188 232.184 93.9555C232.367 94.3835 232.734 94.9861 233.415 95.5189C234.079 96.0517 235.109 96.5146 236.297 96.436C237.468 96.3661 238.778 95.7897 239.642 94.6455H239.153C239.59 95.2482 240.175 95.7722 240.856 96.1478C242.324 96.9513 244.044 97.0299 245.389 96.4884C246.752 95.9556 247.625 94.8813 248.088 93.9293C248.56 92.9599 248.63 92.069 248.603 91.4838C248.56 90.8899 248.429 90.5842 248.403 90.593C248.28 90.5842 248.656 91.9467 247.704 93.7285C247.232 94.5844 246.402 95.5189 245.188 95.9556C243.992 96.4098 242.455 96.3224 241.153 95.6063C240.542 95.2744 240.027 94.8115 239.642 94.2874L239.398 93.9555L239.153 94.2874C238.437 95.2744 237.293 95.8159 236.262 95.9119C235.214 96.0168 234.297 95.6587 233.651 95.2132C232.341 94.2787 232.096 93.2131 232 93.2656L232.009 93.2568Z" fill="#455A64"/>
<path d="M214.34 130.123C214.384 130.298 215.746 130.123 217.414 129.844C219.083 129.573 220.436 129.302 220.419 129.128C220.401 128.953 219.004 128.944 217.318 129.224C215.624 129.495 214.305 129.957 214.349 130.123H214.34Z" fill="#263238"/>
<path d="M187.64 159.278C187.64 159.278 184.942 159.444 179.387 163.601C173.832 167.759 161.29 184.807 161.29 184.807C166.871 196.537 170.958 203.114 181.081 210.075L192.811 198.074C192.811 198.074 199.597 165.383 198.794 165.496C197.99 165.61 187.64 159.278 187.64 159.278Z" fill="#563189"/>
<path d="M268.814 154.71C260.945 151.225 240.507 149.033 240.507 149.033C240.507 149.033 236.262 159.985 223.913 160.562C216.314 160.92 210.777 152.972 210.777 152.972C210.777 152.972 190.461 157.941 186.217 159.679C182.924 183.113 182.164 188.694 185.169 212.511C194.226 218.616 205.536 222.913 216.995 223.9C239.014 225.796 262.377 217.332 276.919 199.078L268.823 154.71H268.814Z" fill="#563189"/>
<path d="M181.081 174.178C181.081 174.178 181.169 174.711 181.247 175.689C181.326 176.737 181.439 178.125 181.562 179.811C181.832 183.287 182.234 188.091 182.793 193.384C183.361 198.677 183.972 203.454 184.444 206.913C184.671 208.581 184.863 209.97 185.003 211.009C185.134 211.978 185.186 212.511 185.16 212.52C185.125 212.52 185.011 211.996 184.828 211.035C184.645 210.074 184.4 208.686 184.129 206.956C183.579 203.506 182.907 198.729 182.339 193.427C181.78 188.126 181.422 183.313 181.238 179.829C181.142 178.082 181.09 176.676 181.064 175.697C181.038 174.719 181.038 174.178 181.064 174.178H181.081Z" fill="#263238"/>
<path d="M221.03 165.933C221.03 164.055 221.083 157.784 221.589 154.649C222.306 150.22 229.904 139.53 229.904 139.53C229.904 139.53 229.729 135.495 225.371 138.255C220.209 141.53 218.096 146.046 216.576 145.417C215.056 144.788 205.038 137.259 202.707 137.897C200.383 138.534 200.375 140.901 201.213 141.888C202.06 142.893 203.204 144.334 203.204 144.334C203.204 144.334 198.13 143.452 199.938 148.797C199.938 148.797 193.684 146.098 195.379 153.531C195.379 153.531 193.021 155.138 194.374 157.601C195.501 159.644 198.27 163.217 199.842 165.112C201.414 167.016 204.27 173.959 204.27 173.959L207.135 185.654L226.192 178.641L221.039 165.907L221.03 165.933Z" fill="#DD9077"/>
<path d="M203.1 144.36C203.056 144.439 204.331 145.234 205.868 146.256C207.405 147.278 208.628 148.151 208.681 148.081C208.733 148.02 207.589 147.033 206.034 146.002C204.488 144.972 203.135 144.291 203.1 144.36Z" fill="#6F4439"/>
<path d="M199.667 148.483C199.597 148.526 200.191 149.539 201.23 150.526C202.27 151.522 203.309 152.064 203.353 151.994C203.405 151.915 202.453 151.277 201.449 150.308C200.436 149.347 199.746 148.43 199.667 148.483Z" fill="#6F4439"/>
<path d="M195.099 153.269C195.038 153.33 195.623 154.02 196.409 154.823C197.195 155.627 197.877 156.221 197.938 156.169C197.999 156.107 197.414 155.417 196.628 154.614C195.842 153.81 195.16 153.216 195.099 153.269Z" fill="#6F4439"/>
<path d="M258.316 183.331L237.843 203.9L220.733 166.457L204.261 173.986C204.261 173.986 216.628 226.625 222.768 234.189C228.9 241.753 232.376 241.971 240.638 238.163C248.9 234.355 274.377 203.69 274.377 203.69L258.307 183.322L258.316 183.331Z" fill="#DD9077"/>
<path d="M271.46 213.044C271.46 213.044 281.26 194.519 282.037 177.802C282.378 170.422 279.731 163.138 274.343 158.081C272.43 156.29 270.229 154.788 267.906 154.343C267.906 154.343 265.879 160.876 261.835 166.457C257.792 172.038 242.481 195.925 242.481 195.925L271.452 213.044H271.46Z" fill="#563189"/>
<path d="M204.261 173.986C204.261 173.986 204.191 173.855 204.069 173.602C203.938 173.322 203.772 172.938 203.545 172.457C203.082 171.453 202.418 169.968 201.484 168.125C201.003 167.217 200.479 166.178 199.719 165.208C198.916 164.239 198.069 163.182 197.178 162.02C196.296 160.859 195.37 159.61 194.496 158.204C194.069 157.522 193.641 156.64 193.798 155.714C193.938 154.797 194.497 153.985 195.256 153.409L195.178 153.601C195.047 152.902 194.898 152.195 194.89 151.444C194.855 151.068 194.933 150.684 194.968 150.299C195.073 149.915 195.178 149.531 195.422 149.19C195.876 148.483 196.776 148.133 197.588 148.151C198.418 148.151 199.222 148.326 199.999 148.64L199.719 148.893C199.641 148.614 199.562 148.326 199.484 148.046C199.414 147.758 199.388 147.452 199.335 147.155C199.318 146.544 199.344 145.889 199.702 145.312C200.051 144.736 200.68 144.387 201.3 144.238C201.929 144.09 202.575 144.072 203.222 144.159L203.021 144.518C202.645 144.055 202.261 143.583 201.877 143.111L201.292 142.395C201.099 142.168 200.881 141.915 200.741 141.6C200.453 140.998 200.366 140.29 200.54 139.626C200.715 138.954 201.195 138.378 201.798 138.046C202.113 137.888 202.401 137.757 202.768 137.688C203.143 137.635 203.492 137.705 203.816 137.792C204.471 137.967 205.073 138.238 205.667 138.517C206.855 139.094 207.999 139.766 209.135 140.456C211.24 141.74 213.24 143.111 215.222 144.395C215.711 144.701 216.235 145.068 216.698 145.242C217.1 145.365 217.607 144.98 218.008 144.614C218.838 143.845 219.589 142.972 220.384 142.159C221.956 140.526 223.642 139.059 225.493 137.95C225.956 137.67 226.454 137.434 226.987 137.295C227.502 137.129 228.105 137.12 228.638 137.312C229.179 137.513 229.581 137.95 229.825 138.421C230.079 138.893 230.218 139.391 230.28 139.915V139.985L230.236 140.046C227.703 143.443 225.52 146.692 223.825 149.688C222.995 151.19 222.253 152.649 221.86 154.064C221.502 155.487 221.484 156.894 221.388 158.125C221.266 160.605 221.24 162.562 221.179 163.898C221.153 164.562 221.126 165.077 221.091 165.418C221.057 165.759 221.013 165.933 221.013 165.933C220.995 165.933 221.013 165.759 221.03 165.409C221.03 165.034 221.048 164.536 221.057 163.889C221.074 162.553 221.057 160.597 221.153 158.108C221.222 156.867 221.222 155.479 221.581 153.994C221.974 152.518 222.707 151.051 223.537 149.531C225.223 146.491 227.389 143.234 229.921 139.801L229.878 139.941C229.764 139.05 229.354 138.019 228.48 137.688C227.607 137.364 226.576 137.792 225.703 138.308C223.904 139.391 222.253 140.841 220.698 142.456C219.912 143.26 219.17 144.133 218.305 144.937C218.087 145.138 217.842 145.33 217.572 145.496C217.292 145.627 216.943 145.801 216.559 145.67C215.93 145.426 215.493 145.085 214.969 144.771C212.978 143.478 210.978 142.116 208.89 140.841C207.763 140.151 206.619 139.487 205.458 138.919C204.881 138.64 204.287 138.378 203.693 138.22C203.396 138.133 203.091 138.089 202.837 138.124C202.575 138.168 202.27 138.299 202.016 138.43C201.51 138.718 201.117 139.181 200.968 139.731C200.82 140.282 200.89 140.884 201.134 141.399C201.239 141.653 201.431 141.871 201.632 142.116L202.209 142.823C202.593 143.295 202.968 143.758 203.344 144.221L203.693 144.649L203.143 144.579C202.016 144.43 200.645 144.587 200.06 145.531C199.519 146.491 199.772 147.723 200.112 148.762L200.252 149.19L199.833 149.024C199.117 148.736 198.339 148.561 197.588 148.561C196.837 148.544 196.121 148.841 195.745 149.426C195.536 149.705 195.448 150.055 195.344 150.387C195.317 150.745 195.239 151.094 195.265 151.444C195.265 152.16 195.414 152.85 195.536 153.522L195.553 153.645L195.457 153.714C194.785 154.212 194.252 154.972 194.138 155.767C193.999 156.579 194.348 157.339 194.776 158.029C195.623 159.418 196.54 160.675 197.405 161.837C198.278 162.999 199.117 164.073 199.903 165.042C200.68 166.064 201.187 167.104 201.658 168.029C202.575 169.898 203.213 171.392 203.632 172.414C203.833 172.903 203.99 173.296 204.104 173.584C204.209 173.846 204.252 173.986 204.244 173.995L204.261 173.986Z" fill="#6F4439"/>
<path d="M243.809 215.114C243.686 215.166 242.455 212.459 240.664 209.262C238.883 206.057 237.232 203.585 237.337 203.506C237.389 203.471 237.861 204.048 238.559 205.035C239.258 206.022 240.158 207.428 241.057 209.035C241.957 210.651 242.673 212.153 243.145 213.271C243.616 214.38 243.852 215.096 243.8 215.114H243.809Z" fill="#6F4439"/>
<path d="M256.141 175.348C256.141 175.348 256.071 175.505 255.914 175.775C255.722 176.09 255.486 176.483 255.189 176.972C254.508 178.046 253.582 179.531 252.429 181.356C250.027 185.103 246.726 190.239 242.988 196.056L242.918 195.741C244.027 196.414 245.189 197.121 246.368 197.846C253.093 201.977 259.172 205.724 263.635 208.327C265.836 209.593 267.635 210.633 268.936 211.384C269.53 211.725 270.01 211.995 270.386 212.205C270.718 212.397 270.884 212.502 270.875 212.519C270.875 212.537 270.683 212.449 270.342 212.283C269.958 212.091 269.469 211.847 268.858 211.532C267.574 210.869 265.731 209.873 263.477 208.598C258.971 206.056 252.857 202.353 246.132 198.222C244.953 197.497 243.791 196.789 242.682 196.117L242.481 195.995L242.612 195.802C246.394 190.021 249.748 184.911 252.184 181.182C253.381 179.391 254.35 177.933 255.058 176.876C255.381 176.404 255.643 176.029 255.853 175.723C256.036 175.461 256.141 175.33 256.15 175.339L256.141 175.348Z" fill="#263238"/>
<path d="M254.796 168.71C254.857 168.745 254.42 169.505 253.774 170.754C253.128 172.003 252.281 173.749 251.503 175.741C250.726 177.741 250.167 179.601 249.809 180.955C249.442 182.309 249.25 183.165 249.18 183.156C249.128 183.147 249.206 182.274 249.494 180.885C249.783 179.496 250.298 177.601 251.084 175.584C251.87 173.566 252.77 171.819 253.495 170.605C254.219 169.391 254.752 168.684 254.796 168.719V168.71Z" fill="#263238"/>
<path d="M147.368 224.721C147.639 265.937 114.773 299.17 73.6885 298.401C32.997 297.65 0 265.413 0 224.721C0 184.03 32.9882 151.042 73.6798 151.042C114.371 151.042 147.098 184.03 147.36 224.721H147.368Z" fill="#6785B4"/>
<path d="M20.3415 218.52C17.0924 217.323 14.8129 213.873 14.9876 210.414C15.1622 206.956 17.765 203.75 21.1188 202.886C18.1318 200.825 16.6208 196.842 17.4855 193.322C18.3501 189.802 21.538 186.972 25.1364 186.527C22.5162 184.876 21.3634 181.435 21.9485 178.396C22.5337 175.356 24.6211 172.754 27.1714 171.007C34.1324 166.229 44.7704 168.09 49.6876 174.955L59.5483 242.381C57.1115 245.639 51.4519 250.25 47.3993 249.936C43.3468 249.621 39.5213 247.115 37.6173 243.525C35.0932 243.656 32.5166 243.787 30.0799 243.123C27.6431 242.459 25.3111 240.861 24.4377 238.494C23.5643 236.127 24.6037 233.018 26.988 232.179C24.0098 230.948 20.8655 229.594 19.0314 226.948C17.1973 224.301 17.4505 219.952 20.3415 218.537V218.52Z" fill="#263238"/>
<path d="M34.8573 198.868C32.0711 196.17 31.6956 191.34 34.045 188.248C32.2633 186.58 32.3768 183.593 33.6258 181.505C34.8748 179.418 36.9884 178.012 39.0234 176.675C39.4164 170.981 45.0411 166.186 50.7269 166.71C52.9715 162.081 58.9718 160.526 64.0637 161.234C65.3039 161.408 66.5616 161.679 67.8106 161.496C68.7189 161.356 69.5748 160.98 70.457 160.727C75.3305 159.33 80.7718 162.098 83.3832 166.439C83.8025 167.129 84.1693 167.872 84.7545 168.439C85.5231 169.173 86.5711 169.522 87.4969 170.038C89.497 171.164 90.9643 173.199 91.401 175.453C91.7678 177.374 91.4534 179.505 92.519 181.138C93.0517 181.959 93.8989 182.562 94.3444 183.427C95.6545 185.942 93.1129 189.086 94.0649 191.759C94.257 192.3 94.5889 192.79 94.8247 193.314C95.3051 194.397 95.3837 195.654 95.0256 196.781C94.7549 197.654 94.2308 198.493 94.3094 199.401C94.3706 200.091 94.7723 200.694 95.0082 201.349C95.5846 202.938 92.9731 209.795 91.6805 210.895L49.3207 217.507C46.0106 217.323 42.9711 214.799 42.1851 211.585C42.0541 211.052 41.958 210.467 41.565 210.083C41.2244 209.76 40.7352 209.664 40.2986 209.498C37.3552 208.432 36.4731 204.729 36.3071 201.602C36.2809 201.165 36.2635 200.711 36.0888 200.31C35.8442 199.724 35.3115 199.314 34.8573 198.868Z" fill="#263238"/>
<path d="M36.6042 184.44C41.3205 175.234 48.954 168.867 59.033 166.526C64.7188 165.208 67.339 165.88 71.6885 166.107C76.038 166.334 80.2216 167.74 83.4183 170.693C87.2175 174.195 90.6587 178.3 92.292 183.208C93.9689 188.248 94.6589 193.383 94.5803 197.759C94.4755 203.069 92.6675 211.541 90.5277 216.406L81.9946 219.358C74.7716 221.175 67.4438 223 59.9937 222.869C52.5437 222.738 44.8403 220.406 39.7047 215.009C32.5691 207.515 31.8791 193.663 36.6042 184.449V184.44Z" fill="#263238"/>
<path d="M48.3076 181.829L64.3694 171.06L69.077 170.605C79.4093 168.422 88.9817 178.274 90.8508 186.624C92.9295 195.899 95.0955 207.306 95.0955 214.467C95.0955 228.879 83.5841 232.556 83.5841 232.556L85.1213 240.862C84.0208 248.661 68.9373 252.425 60.6836 245.56L44.6743 187.532C44.2201 184.973 45.7922 182.492 48.2989 181.82L48.3076 181.829Z" fill="#DD9077"/>
<path d="M73.7497 215.699C73.6885 214.956 73.9505 214.223 74.3698 213.672C75.2082 212.572 76.693 212.162 77.9594 212.686C79.2259 213.21 80.1866 214.633 80.2914 216.127C79.8547 217.114 79.0337 217.891 78.0031 218.205C77.8459 218.258 77.68 218.293 77.514 218.328C76.7192 218.476 75.8546 218.38 75.1209 217.926C74.3872 217.472 73.8108 216.625 73.7409 215.708L73.7497 215.699Z" fill="#6F4439"/>
<path d="M89.366 198.117C89.5495 199.06 88.9031 200.004 87.9162 200.213C86.9293 200.423 85.986 199.829 85.8026 198.886C85.6192 197.943 86.2655 196.999 87.2524 196.79C88.2394 196.58 89.1826 197.174 89.3748 198.117H89.366Z" fill="#263238"/>
<path d="M88.711 191.942C88.5276 192.213 86.9992 191.418 85.0602 191.733C83.1213 192.021 81.8549 193.244 81.6016 193.034C81.4793 192.947 81.6452 192.484 82.1868 191.934C82.7283 191.383 83.6977 190.79 84.903 190.597C86.1083 190.414 87.2001 190.693 87.8551 191.06C88.5276 191.427 88.7896 191.82 88.7023 191.942H88.711Z" fill="#263238"/>
<path d="M79.6276 209.637C79.6014 209.532 80.7718 209.131 82.6845 208.572C83.1736 208.441 83.6278 208.266 83.654 207.917C83.7151 207.541 83.4182 207.043 83.0863 206.502C82.4312 205.375 81.7413 204.196 81.0251 202.964C78.1429 197.916 75.9681 193.733 76.169 193.619C76.3699 193.506 78.8765 197.506 81.7675 202.554C82.4662 203.803 83.1387 204.991 83.7763 206.126C84.0558 206.659 84.475 207.244 84.344 208.03C84.2654 208.423 83.9509 208.746 83.6453 208.886C83.3396 209.035 83.0688 209.087 82.8243 209.139C80.8766 209.559 79.6538 209.759 79.6276 209.646V209.637Z" fill="#263238"/>
<path d="M83.6103 232.538C83.6103 232.538 74.2475 234.643 63.9851 230.503C63.9851 230.503 70.422 239.849 84.2828 236.303L83.6103 232.538Z" fill="#6F4439"/>
<path d="M74.1252 211.882C74.4396 211.812 74.7715 213.917 76.8153 215.131C78.8503 216.345 81.06 215.751 81.1211 216.048C81.1735 216.179 80.6844 216.537 79.7411 216.712C78.8153 216.887 77.4092 216.808 76.1689 216.066C74.92 215.323 74.2562 214.179 74.0466 213.323C73.8282 212.459 73.9767 211.9 74.1252 211.882Z" fill="#263238"/>
<path d="M86.6061 185.375C86.3528 185.899 84.8156 185.82 83.1037 186.239C81.3744 186.606 80.0294 187.34 79.5752 186.982C79.3743 186.798 79.4879 186.309 80.0119 185.733C80.5272 185.165 81.488 184.562 82.667 184.292C83.8461 184.021 84.9641 184.152 85.6715 184.44C86.3877 184.728 86.7021 185.121 86.5973 185.375H86.6061Z" fill="#263238"/>
<path d="M68.2648 201.89C68.422 202.842 69.3478 203.497 70.3435 203.357C71.3391 203.218 72.0204 202.336 71.8719 201.384C71.7147 200.432 70.7889 199.776 69.7932 199.916C68.7976 200.056 68.1076 200.947 68.2648 201.899V201.89Z" fill="#263238"/>
<path d="M62.6051 196.79C62.8759 196.982 64.0287 195.707 65.959 195.331C67.8804 194.929 69.4875 195.645 69.6534 195.366C69.732 195.244 69.4263 194.868 68.7189 194.536C68.0289 194.213 66.9022 193.977 65.7057 194.222C64.5091 194.466 63.5833 195.104 63.0942 195.672C62.5876 196.239 62.4741 196.702 62.6051 196.79Z" fill="#263238"/>
<path d="M62.4305 190.396C62.8934 190.754 64.2908 190.012 66.0726 189.636C67.8456 189.208 69.4351 189.278 69.6884 188.754C69.7932 188.501 69.4701 188.108 68.7277 187.828C67.994 187.54 66.8412 187.418 65.6184 187.697C64.3956 187.977 63.4087 188.579 62.8759 189.156C62.3344 189.732 62.2121 190.221 62.4218 190.405L62.4305 190.396Z" fill="#263238"/>
<path d="M94.1086 187.802C91.9863 186.85 90.5103 185.357 90.3181 183.034C89.0779 183.601 87.532 182.108 86.6149 181.086C85.7066 180.064 84.7022 179.627 84.5711 178.265C84.5449 177.994 84.5275 177.715 84.3703 177.496C84.1257 177.156 83.6453 177.095 83.2261 177.025C81.0776 176.667 79.1561 175.121 78.3351 173.103C76.3874 174.291 74.134 174.99 71.8457 175.103C71.0422 176.693 69.3828 177.819 67.6098 177.985C65.8368 178.151 64.0026 177.348 62.9196 175.933C62.5004 177.226 61.3475 178.178 60.0898 178.684C58.8321 179.191 57.4522 179.322 56.1071 179.453C57.0417 181.977 55.749 185.112 53.3123 186.239C52.9804 186.387 52.5961 186.553 52.4825 186.894C52.3603 187.252 52.5961 187.619 52.7795 187.951C53.9236 190.047 52.8406 193.043 50.6135 193.916C52.369 194.929 52.5873 197.794 51.0152 199.06C50.6921 199.322 50.2641 199.637 50.3776 200.039C50.4213 200.187 50.5349 200.309 50.6484 200.423C51.5043 201.279 52.3603 202.231 52.6135 203.41C52.8668 204.598 52.238 206.048 51.0502 206.266C51.7576 206.738 52.4389 207.375 52.5699 208.222C52.7009 209.061 51.9672 210.039 51.1375 209.838C50.7881 209.751 45.836 209.463 45.5827 209.209C42.3337 205.864 45.2159 201.288 44.8578 196.641C44.4997 191.995 42.1939 186.938 43.9494 182.623C44.6831 180.815 48.8667 179.409 50.0545 177.854C51.4083 176.081 53.1288 174.632 54.8407 173.208C57.0766 171.348 59.3911 169.487 62.0986 168.448C67.1556 166.5 72.8414 167.653 78.0207 169.243C79.9945 169.845 81.9684 170.518 83.7065 171.627C85.7852 172.955 87.4446 174.841 88.9294 176.806C91.078 179.645 92.9645 182.772 93.7855 186.239" fill="#263238"/>
<path d="M94.3532 183.427C94.3532 183.427 94.2047 183.043 93.6894 182.457C93.4361 182.161 93.0955 181.829 92.7548 181.383C92.423 180.938 92.126 180.361 91.9601 179.645C91.7854 178.938 91.733 178.134 91.6718 177.243C91.6107 176.361 91.5408 175.374 91.2002 174.379C90.8683 173.383 90.3093 172.387 89.5058 171.505C89.104 171.068 88.6411 170.658 88.1258 170.3C87.6105 169.942 87.0254 169.653 86.4402 169.374C85.855 169.086 85.2698 168.78 84.7982 168.308C84.3266 167.837 83.9859 167.225 83.6278 166.614C82.9117 165.374 81.9509 164.186 80.7631 163.199C79.5753 162.203 78.1866 161.347 76.6145 160.832C75.8371 160.544 75.0074 160.395 74.1602 160.273C73.313 160.212 72.4396 160.186 71.575 160.334C71.1383 160.395 70.7103 160.509 70.2823 160.614C69.8544 160.745 69.4439 160.893 69.0246 161.024C68.1949 161.313 67.3302 161.452 66.4394 161.382C65.5485 161.33 64.6577 161.138 63.7319 161.033C62.8061 160.911 61.8715 160.893 60.9195 160.928C59.9762 160.963 59.0242 161.103 58.081 161.295C57.1377 161.505 56.2119 161.81 55.3123 162.212C53.5393 163.033 51.8799 164.317 50.8842 166.099C50.7881 166.273 50.692 166.448 50.5872 166.623L50.7357 166.544C47.7137 166.273 44.7704 167.487 42.6306 169.383C40.482 171.278 39.0584 173.924 38.875 176.649L38.9361 176.545C37.8444 177.261 36.7613 177.977 35.7919 178.807C34.8224 179.628 33.9577 180.58 33.3638 181.671C32.7787 182.763 32.4992 183.995 32.569 185.182C32.6302 186.37 33.0931 187.541 33.949 188.327L33.9315 188.161C32.7437 189.742 32.2983 191.672 32.3944 193.436C32.4817 195.209 33.0843 196.86 34.0625 198.109C34.2896 198.432 34.5779 198.703 34.8399 198.982C35.1194 199.244 35.3988 199.48 35.6259 199.751C35.853 200.022 36.0277 200.318 36.0976 200.65C36.1762 200.982 36.1849 201.323 36.2111 201.655C36.2897 203.009 36.4906 204.24 36.8225 205.314C37.1544 206.389 37.5998 207.306 38.1588 207.978C38.709 208.659 39.3379 209.096 39.8794 209.341C40.4209 209.603 40.8838 209.664 41.1545 209.812C41.434 209.943 41.5388 210.066 41.5476 210.057C41.5476 210.057 41.4515 209.926 41.172 209.777C40.9012 209.62 40.4384 209.542 39.9143 209.271C39.3815 209.018 38.7789 208.581 38.2461 207.908C37.7046 207.245 37.2767 206.336 36.9535 205.271C36.6391 204.205 36.4469 202.982 36.3771 201.646C36.3596 201.314 36.3508 200.965 36.2722 200.607C36.1936 200.249 36.0102 199.908 35.7657 199.628C35.5211 199.34 35.2416 199.096 34.9709 198.834C34.7176 198.563 34.4381 198.301 34.2198 197.986C33.2765 196.772 32.6913 195.157 32.6127 193.427C32.5341 191.707 32.9708 189.829 34.1237 188.309L34.1936 188.222L34.115 188.143C33.3202 187.401 32.8835 186.3 32.8223 185.165C32.7612 184.03 33.0319 182.842 33.5997 181.794C34.1761 180.746 35.0146 179.82 35.9753 179.016C36.936 178.204 38.0016 177.497 39.0933 176.78L39.1545 176.745V176.676C39.3466 174.029 40.7266 171.453 42.8227 169.601C44.9101 167.749 47.7836 166.579 50.7008 166.841H50.7968L50.8492 166.763C50.9453 166.597 51.0414 166.422 51.1287 166.256C52.0895 164.535 53.6965 163.286 55.4258 162.483C56.2992 162.099 57.2076 161.793 58.1334 161.583C59.0592 161.391 59.9937 161.251 60.9195 161.225C61.8453 161.19 62.7799 161.208 63.6795 161.33C64.5878 161.426 65.4874 161.618 66.4045 161.671C66.8586 161.697 67.3215 161.688 67.7757 161.627C68.2299 161.557 68.6666 161.435 69.0858 161.295C69.505 161.155 69.9242 161.007 70.3347 160.885C70.754 160.78 71.1645 160.666 71.5837 160.605C72.4222 160.457 73.2694 160.474 74.0991 160.535C74.9201 160.649 75.7323 160.789 76.4922 161.068C78.0294 161.575 79.4006 162.404 80.571 163.374C81.7413 164.343 82.6846 165.496 83.4008 166.719C83.7589 167.33 84.1082 167.959 84.6148 168.457C85.1214 168.955 85.7327 169.269 86.3266 169.557C86.9206 169.837 87.4883 170.108 87.9948 170.457C88.5014 170.798 88.9556 171.199 89.3486 171.627C90.1347 172.483 90.6936 173.461 91.0255 174.431C91.3661 175.4 91.4448 176.37 91.5146 177.252C91.5845 178.134 91.6456 178.955 91.829 179.671C92.0037 180.388 92.3181 180.981 92.6588 181.427C93.0081 181.872 93.3575 182.195 93.6108 182.484C93.8728 182.763 94.0475 182.999 94.1523 183.165C94.2658 183.331 94.3095 183.418 94.3182 183.418L94.3532 183.427Z" fill="#455A64"/>
<path d="M54.9804 163.95C54.9804 163.95 55.2163 163.767 55.653 163.47C56.0897 163.182 56.7622 162.797 57.6792 162.561C58.5788 162.326 59.7317 162.247 60.9283 162.588C62.1074 162.928 63.3214 163.679 64.1861 164.806C64.4393 165.129 64.6577 165.479 64.8149 165.837C64.9721 166.186 65.042 166.57 64.8848 166.867L64.6926 167.225L65.0682 167.059C66.0988 166.605 67.2342 166.658 68.1076 166.998C68.9985 167.339 69.6186 167.968 69.9942 168.562C70.3784 169.164 70.5269 169.723 70.5968 170.108C70.6667 170.492 70.6667 170.71 70.6841 170.71C70.6929 170.71 70.7016 170.658 70.7103 170.553C70.7103 170.448 70.7103 170.291 70.6929 170.09C70.6492 169.697 70.5269 169.103 70.1514 168.466C69.7845 167.837 69.1382 167.147 68.1949 166.771C67.2691 166.396 66.0639 166.317 64.9459 166.797L65.1293 166.998C65.3477 166.579 65.2429 166.099 65.0769 165.723C64.9022 165.33 64.6752 164.981 64.4131 164.631C63.5048 163.444 62.2296 162.666 60.9894 162.326C59.7405 161.985 58.5439 162.09 57.6181 162.361C56.6836 162.631 56.0111 163.05 55.5831 163.374C55.3735 163.54 55.2163 163.679 55.1202 163.784C55.0241 163.889 54.9717 163.941 54.9804 163.95Z" fill="#455A64"/>
<path d="M36.9535 186.929C36.9535 186.929 36.9535 186.99 37.0059 187.104C37.0583 187.209 37.1369 187.374 37.2854 187.54C37.5736 187.89 38.1676 188.274 38.9886 188.361C39.8183 188.457 40.779 188.161 41.7136 187.68C42.1852 187.436 42.6656 187.191 43.1547 186.868C43.6263 186.545 44.1329 186.108 44.325 185.462C44.3425 185.409 44.3512 185.348 44.3599 185.296L44.1416 185.401C45.1722 186.003 46.2203 186.501 47.2509 186.728C48.2728 186.973 49.2597 186.894 50.0108 186.632C50.7707 186.379 51.2947 185.968 51.5829 185.636C51.7314 185.47 51.8275 185.331 51.8799 185.226C51.9323 185.121 51.9585 185.069 51.9498 185.069C51.9236 185.051 51.8013 185.261 51.4956 185.558C51.1899 185.855 50.6746 186.213 49.9497 186.431C49.2248 186.658 48.299 186.711 47.312 186.457C46.3251 186.23 45.3119 185.732 44.2901 185.139L44.1154 185.042L44.0717 185.243C44.0717 185.243 44.0543 185.331 44.0368 185.383C43.8796 185.916 43.4429 186.318 42.9887 186.632C42.5258 186.938 42.0367 187.2 41.5825 187.444C40.6742 187.933 39.7659 188.23 39.006 188.161C38.2374 188.108 37.6697 187.776 37.364 187.471C37.0583 187.165 36.9797 186.92 36.9535 186.938V186.929Z" fill="#455A64"/>
<path d="M52.0982 210.371C51.9323 209.323 50.3252 207.052 49.2684 207.052C46.4386 207.052 41.4952 208.074 42.5607 215.088C44.0193 224.677 53.3472 221.236 53.321 220.965C53.3035 220.747 52.6747 213.987 52.0895 210.371H52.0982Z" fill="#DD9077"/>
<path d="M50.1506 217.865C50.1069 217.839 50.0021 218.005 49.7401 218.179C49.4868 218.345 49.0239 218.502 48.4911 218.398C47.4168 218.179 46.3251 216.703 46.0107 214.974C45.8535 214.101 45.9059 213.245 46.1155 212.511C46.2989 211.769 46.6832 211.21 47.181 211.035C47.6701 210.843 48.0806 211.087 48.2378 211.341C48.4038 211.594 48.3776 211.795 48.43 211.795C48.4562 211.812 48.6134 211.603 48.4737 211.218C48.4038 211.035 48.2553 210.825 48.002 210.677C47.74 210.528 47.3906 210.485 47.0413 210.572C46.3076 210.738 45.7487 211.515 45.5216 212.328C45.2596 213.149 45.1722 214.109 45.3469 215.088C45.705 217.009 46.9627 218.668 48.4125 218.861C49.1112 218.93 49.644 218.642 49.906 218.371C50.168 218.092 50.1855 217.865 50.1506 217.856V217.865Z" fill="#6F4439"/>
<g opacity="0.3">
<path d="M76.3263 199.078C76.9813 203.559 73.872 207.716 69.3915 208.371C64.911 209.026 60.7536 205.917 60.0986 201.436C59.4435 196.956 62.5528 192.798 67.0333 192.143C71.5139 191.488 75.6712 194.598 76.3263 199.078Z" fill="white"/>
</g>
<g opacity="0.3">
<path d="M96.3096 196.493C96.9647 200.973 93.8554 205.131 89.3749 205.786C84.8943 206.441 80.737 203.331 80.0819 198.851C79.4269 194.37 82.5362 190.213 87.0167 189.558C91.4972 188.903 95.6546 192.012 96.3096 196.493Z" fill="white"/>
</g>
<path d="M79.6539 197.689C79.6015 197.785 78.9028 197.462 78.0294 197.646C77.1473 197.812 76.632 198.379 76.5446 198.309C76.5097 198.283 76.5883 198.091 76.8154 197.855C77.0512 197.619 77.4529 197.375 77.9508 197.279C78.4486 197.183 78.9203 197.253 79.2172 197.375C79.5229 197.497 79.6714 197.646 79.6452 197.689H79.6539Z" fill="#455A64"/>
<path d="M60.6924 201.008C60.7186 201.052 60.1335 201.428 59.164 202.004C58.1945 202.581 56.8407 203.349 55.3385 204.179C53.8363 205.009 52.465 205.742 51.4606 206.258C50.9628 206.52 50.5348 206.712 50.2117 206.782C49.8972 206.851 49.7138 206.834 49.7138 206.808C49.7138 206.782 49.8798 206.747 50.168 206.642C50.4562 206.537 50.8405 206.319 51.3296 206.022C52.2991 205.445 53.6528 204.677 55.1551 203.847C56.6573 203.017 58.0286 202.284 59.033 201.768C60.0374 201.253 60.6662 200.956 60.6924 201.008Z" fill="#455A64"/>
<path d="M36.9098 288.269C36.9098 288.269 49.6352 298.811 76.2738 298.663C101.209 298.523 116.791 285.029 116.791 285.029C122.092 273.876 116.057 266.216 113.236 251.884C113.236 251.884 104.886 238.914 102.301 238.8C96.5541 238.556 86.0733 240.407 85.4882 239.813C81.7151 246.303 76.7979 252.967 59.033 240.206L38.1064 245.639C35.0757 246.914 30.3244 250.198 30.6213 253.473L36.9098 288.278" fill="#E94675"/>
<path d="M21.0228 276.33C21.0228 276.33 24.6299 253.56 35.3203 247.167C44.1678 241.874 55.6879 278.662 55.6879 278.662L46.0281 293.3C35.7744 288.723 30.5952 285.5 21.014 276.338L21.0228 276.33Z" fill="#E94675"/>
<path d="M137.735 222.904L124.852 227.228L135.35 262.74L118.267 246.844L106.179 271.011C106.179 271.011 131.088 288.427 140.993 289.789C150.897 291.143 158.758 286.488 156.574 275.037C155.701 270.461 137.744 222.904 137.744 222.904H137.735Z" fill="#DD9077"/>
<path d="M122.992 210.266C122.992 210.266 119.507 206.379 117.769 207.262C116.031 208.144 113.961 210.441 114.048 212.022C114.136 213.602 114.887 214.86 115.577 214.624C116.267 214.389 117.952 212.511 117.952 212.511L121.175 215.218L121.21 219.681L119.079 221.577L116.904 219.009L116.73 216.817C116.642 215.751 115.516 214.991 114.555 215.463C114.074 215.69 113.673 216.196 113.585 217.21C113.341 220.101 114.258 225.402 117.524 227.018C120.782 228.634 126.643 230.468 126.643 230.468L138.442 226.328L137.665 211.375C137.665 211.375 141.22 205.235 141.01 203.157C140.8 201.087 139.49 194.894 139.49 194.894C139.49 194.894 137.77 194.187 137.368 196.1C136.975 198.004 137.438 203.148 137.438 203.148L134.294 207.305L131.866 191.287C131.761 190.571 131.045 190.091 130.346 190.283C129.385 190.545 128.267 191.357 128.276 193.733C128.293 197.899 129.665 206.86 129.176 206.982C128.686 207.104 128.503 206.842 127.822 204.781C127.28 203.165 124.695 195.174 123.76 192.292C123.551 191.654 122.782 191.436 122.258 191.855C121.568 192.414 120.843 193.444 120.939 195.305C121.105 198.694 123.734 207.122 123.874 207.908C124.014 208.694 123.009 210.24 123.009 210.24L122.992 210.266Z" fill="#DD9077"/>
<path d="M130.224 224.197C130.136 224.24 129.831 223.786 129.219 223.175C128.617 222.564 127.656 221.839 126.442 221.358C125.228 220.887 124.031 220.756 123.167 220.791C122.302 220.817 121.769 220.948 121.743 220.852C121.717 220.791 122.223 220.511 123.132 220.371C124.031 220.223 125.341 220.293 126.66 220.808C127.97 221.332 128.975 222.171 129.534 222.895C130.101 223.62 130.285 224.162 130.224 224.197Z" fill="#6F4439"/>
<path d="M121.988 285.492L135.106 261.876C135.106 261.876 125.848 251.107 118.005 244.242C109.358 236.678 101.244 237.543 89.6194 240.032C89.6194 240.032 95.6109 267.57 107.218 275.649C109.376 277.151 121.996 285.501 121.996 285.501" fill="#E94675"/>
<path d="M48.6133 293.292C48.6133 293.292 48.4474 292.995 48.2901 292.41C48.1329 291.824 47.9757 290.96 47.8272 289.885C47.539 287.737 47.3119 284.767 47.0325 281.492C46.7704 278.217 46.4822 275.256 46.2377 273.116C45.9931 270.976 45.8097 269.658 45.8796 269.64C45.9145 269.64 45.9931 269.963 46.1154 270.548C46.2464 271.142 46.3949 271.998 46.5608 273.064C46.8927 275.195 47.2246 278.164 47.4954 281.448C47.7661 284.732 47.9495 287.702 48.1504 289.842C48.2552 290.916 48.36 291.772 48.4648 292.366C48.5696 292.951 48.657 293.274 48.622 293.292H48.6133Z" fill="#263238"/>
<path d="M102.974 254.032C102.974 254.032 103.384 254.32 104.083 254.897C104.773 255.482 105.769 256.338 106.956 257.438C109.288 259.648 112.59 262.853 114.747 267.378C115.83 269.631 116.398 271.963 116.695 274.094C117 276.225 117.044 278.164 117.044 279.78C117.044 281.404 116.974 282.706 116.922 283.614C116.869 284.514 116.817 285.012 116.791 285.012C116.756 285.012 116.747 284.514 116.747 283.605C116.747 282.706 116.765 281.396 116.721 279.78C116.677 278.173 116.599 276.251 116.275 274.146C115.961 272.05 115.385 269.771 114.328 267.561C112.214 263.124 108.991 259.919 106.721 257.657C105.594 256.582 104.668 255.692 103.952 255.01C103.297 254.39 102.939 254.032 102.965 254.015L102.974 254.032Z" fill="#263238"/>
<path d="M137.647 273.964C137.595 273.99 137.281 273.405 136.879 272.418C136.477 271.431 136.014 270.033 135.665 268.444C135.316 266.854 135.141 265.396 135.08 264.33C135.019 263.264 135.062 262.609 135.123 262.609C135.263 262.609 135.403 265.212 136.11 268.348C136.8 271.483 137.778 273.911 137.647 273.964Z" fill="#263238"/>
<path d="M34.621 145.186L35.2791 136.67C31.4645 131.459 29.1543 125.052 29.02 118.014C28.7245 101.426 41.3367 87.0674 57.8306 85.187C76.8765 83.0245 93.7061 97.6783 94.0419 116.993C94.324 133.393 82.0073 147.63 65.7552 149.739C57.6828 150.786 49.9866 148.799 43.7544 144.702L34.621 145.186Z" fill="white"/>
<path d="M34.6209 145.186C34.6209 145.186 34.8089 145.186 35.1984 145.186C35.6148 145.173 36.1924 145.146 36.9311 145.119C38.516 145.052 40.8128 144.958 43.7677 144.837C43.8349 144.837 43.8886 144.77 43.8886 144.703C43.8886 144.676 43.8752 144.649 43.8617 144.622C43.8617 144.622 43.8617 144.622 43.8617 144.609L43.7006 144.797C47.0719 147.026 52.0684 149.444 58.5155 150.062C61.7256 150.384 65.2447 150.196 68.8981 149.404C72.538 148.571 76.272 147.04 79.7507 144.716C83.2161 142.379 86.4128 139.249 88.9244 135.421C91.4361 131.607 93.33 127.121 93.9881 122.245C94.7 117.383 94.2971 112.212 92.7121 107.282C91.1541 102.326 88.2394 97.7058 84.3577 93.9449C82.437 91.9974 80.1805 90.4527 77.9106 89.0424C76.7286 88.4246 75.5467 87.7933 74.3244 87.2695L72.4709 86.571L71.5441 86.2218L70.5905 85.9666C65.5402 84.5295 60.3019 84.3817 55.4263 85.2816C50.5372 86.1547 46.0914 88.2768 42.3574 90.9766C38.6235 93.7032 35.6282 97.0745 33.4523 100.674C31.2899 104.287 29.9333 108.129 29.2886 111.809C29.1677 112.736 29.0602 113.649 28.9393 114.549C28.8453 115.449 28.8722 116.349 28.8319 117.222C28.7782 118.968 28.9528 120.647 29.1811 122.245C30.1348 128.665 32.8076 133.514 35.185 136.724L35.1581 136.644C34.9835 139.384 34.8358 141.519 34.7418 143.01C34.7015 143.709 34.6746 144.246 34.6477 144.635C34.6343 144.998 34.6209 145.173 34.6343 145.173C34.6343 145.173 34.6612 144.971 34.7015 144.595C34.7418 144.192 34.7955 143.655 34.8626 142.943C34.997 141.479 35.185 139.37 35.4133 136.671C35.4133 136.644 35.4133 136.617 35.3865 136.59C33.0762 133.366 30.484 128.544 29.5706 122.191C29.3557 120.606 29.208 118.954 29.2617 117.222C29.302 116.362 29.2886 115.476 29.3826 114.589C29.5035 113.703 29.6244 112.803 29.7452 111.889C30.4034 108.249 31.76 104.489 33.8956 100.929C36.0446 97.3834 39.013 94.0793 42.6798 91.4198C46.3466 88.7738 50.7253 86.6919 55.5203 85.8457C60.3019 84.9727 65.4462 85.1204 70.4024 86.5442L71.3426 86.7859L72.2559 87.1217L74.0692 87.8067C75.2646 88.3171 76.4197 88.935 77.5883 89.5394C79.8179 90.9229 82.0341 92.4272 83.9145 94.3479C87.729 98.0281 90.59 102.568 92.1212 107.43C93.6792 112.279 94.0687 117.356 93.3971 122.124C92.7524 126.906 90.8989 131.325 88.4409 135.086C85.9695 138.846 82.84 141.949 79.4418 144.259C76.0302 146.556 72.35 148.087 68.7772 148.92C65.191 149.726 61.7122 149.927 58.5424 149.632C52.1624 149.068 47.1928 146.717 43.8214 144.555C43.7677 144.515 43.6871 144.528 43.6469 144.595C43.62 144.649 43.62 144.703 43.6469 144.743V144.756L43.7274 144.541C40.8128 144.729 38.5429 144.864 36.9848 144.958C36.2327 145.012 35.6417 145.052 35.2253 145.079C34.8223 145.106 34.6074 145.132 34.6074 145.132L34.6209 145.186Z" fill="#92A0BF"/>
<path d="M70.9396 117.49C70.9396 119.773 72.7932 121.627 75.0765 121.627C77.3599 121.627 79.2134 119.773 79.2134 117.49C79.2134 115.207 77.3599 113.353 75.0765 113.353C72.7932 113.353 70.9396 115.207 70.9396 117.49Z" fill="#92A0BF"/>
<path d="M57.0112 117.49C57.0112 119.773 58.8648 121.627 61.1481 121.627C63.4315 121.627 65.285 119.773 65.285 117.49C65.285 115.207 63.4315 113.353 61.1481 113.353C58.8648 113.353 57.0112 115.207 57.0112 117.49Z" fill="#92A0BF"/>
<path d="M43.0827 117.49C43.0827 119.773 44.9362 121.627 47.2196 121.627C49.5029 121.627 51.3565 119.773 51.3565 117.49C51.3565 115.207 49.5029 113.353 47.2196 113.353C44.9362 113.353 43.0827 115.207 43.0827 117.49Z" fill="#92A0BF"/>
<path d="M177.915 84.653L176.994 72.7312C182.334 65.4352 185.568 56.4657 185.756 46.6123C186.17 23.3892 168.513 3.28765 145.422 0.655073C118.757 -2.37239 95.1959 18.1429 94.7258 45.1832C94.3309 68.143 111.574 88.0754 134.327 91.0276C145.629 92.4943 156.403 89.7113 165.128 83.9761L177.915 84.653Z" fill="white"/>
<path d="M177.915 84.653C177.915 84.653 177.652 84.653 177.107 84.653C176.524 84.6342 175.715 84.5966 174.681 84.559C172.462 84.4649 169.247 84.3333 165.11 84.1641C165.016 84.1641 164.941 84.07 164.941 83.976C164.941 83.9384 164.959 83.9008 164.978 83.8632C164.978 83.8632 164.978 83.8632 164.978 83.8444L165.204 84.1077C160.484 87.2291 153.489 90.6139 144.463 91.4789C139.969 91.9302 135.042 91.6669 129.927 90.5575C124.831 89.3916 119.604 87.2479 114.734 83.9948C109.882 80.7229 105.407 76.3416 101.89 70.9824C98.374 65.642 95.7226 59.3615 94.8012 52.5356C93.8046 45.7285 94.3687 38.4889 96.5876 31.5878C98.7689 24.6491 102.849 18.1805 108.284 12.9153C110.973 10.1887 114.132 8.02623 117.31 6.0518C118.964 5.18681 120.619 4.30302 122.33 3.56966L124.925 2.59185L126.223 2.10294L127.558 1.74566C134.628 -0.266379 141.962 -0.473224 148.788 0.786652C155.632 2.00892 161.857 4.97997 167.084 8.75959C172.312 12.5768 176.505 17.2967 179.551 22.3362C182.579 27.3945 184.478 32.7724 185.381 37.9248C185.55 39.2222 185.7 40.5009 185.869 41.7608C186.001 43.0207 185.964 44.2806 186.02 45.5028C186.095 47.9474 185.851 50.2979 185.531 52.5356C184.196 61.5239 180.454 68.3122 177.126 72.8064L177.163 72.6936C177.408 76.5296 177.614 79.5195 177.746 81.6067C177.803 82.5845 177.84 83.3367 177.878 83.882C177.897 84.3897 177.915 84.6342 177.897 84.6342C177.897 84.6342 177.859 84.3521 177.803 83.8256C177.746 83.2615 177.671 82.5093 177.577 81.5127C177.389 79.463 177.126 76.5108 176.806 72.7312C176.806 72.6936 176.806 72.656 176.844 72.6183C180.078 68.1054 183.707 61.3547 184.986 52.4603C185.287 50.2415 185.493 47.9286 185.418 45.5028C185.362 44.2994 185.381 43.0583 185.249 41.8172C185.08 40.5761 184.91 39.3163 184.741 38.0376C183.82 32.9417 181.921 27.6765 178.931 22.6934C175.922 17.7292 171.766 13.1033 166.633 9.38013C161.499 5.67572 155.369 2.76108 148.656 1.57642C141.962 0.354157 134.76 0.561002 127.821 2.55424L126.505 2.89271L125.226 3.36281L122.688 4.32182C121.014 5.03638 119.397 5.90137 117.761 6.74755C114.64 8.68438 111.537 10.7904 108.904 13.4794C103.564 18.6318 99.5586 24.9875 97.415 31.7946C95.2337 38.5829 94.6884 45.6909 95.6286 52.3663C96.5312 59.0606 99.1261 65.2471 102.567 70.5123C106.027 75.7774 110.409 80.1212 115.166 83.3555C119.942 86.571 125.095 88.7147 130.097 89.8805C135.117 91.0088 139.987 91.2908 144.425 90.8771C153.357 90.0874 160.315 86.7966 165.035 83.7692C165.11 83.7128 165.223 83.7316 165.279 83.8256C165.317 83.9008 165.317 83.976 165.279 84.0324V84.0512L165.166 83.7504C169.247 84.0136 172.425 84.2017 174.606 84.3333C175.659 84.4085 176.486 84.4649 177.069 84.5025C177.633 84.5401 177.934 84.5778 177.934 84.5778L177.915 84.653Z" fill="#6B6DD5"/>
<path d="M127.069 45.8786C127.069 49.0753 124.474 51.6702 121.277 51.6702C118.081 51.6702 115.486 49.0753 115.486 45.8786C115.486 42.6819 118.081 40.0869 121.277 40.0869C124.474 40.0869 127.069 42.6819 127.069 45.8786Z" fill="#6B6DD5"/>
<path d="M146.569 45.8786C146.569 49.0753 143.974 51.6702 140.777 51.6702C137.58 51.6702 134.986 49.0753 134.986 45.8786C134.986 42.6819 137.58 40.0869 140.777 40.0869C143.974 40.0869 146.569 42.6819 146.569 45.8786Z" fill="#6B6DD5"/>
<path d="M166.069 45.8786C166.069 49.0753 163.474 51.6702 160.277 51.6702C157.08 51.6702 154.485 49.0753 154.485 45.8786C154.485 42.6819 157.08 40.0869 160.277 40.0869C163.474 40.0869 166.069 42.6819 166.069 45.8786Z" fill="#6B6DD5"/>
</svg>
