<svg width="262" height="243" viewBox="0 0 262 243" fill="none" xmlns="http://www.w3.org/2000/svg">
<path d="M165.279 214.584L166.111 216.262C166.224 216.489 166.445 216.652 166.7 216.688L168.555 216.958C169.195 217.05 169.45 217.839 168.989 218.287L167.646 219.594C167.461 219.772 167.375 220.035 167.418 220.284L167.731 222.124C167.837 222.764 167.169 223.247 166.601 222.948L164.945 222.074C164.718 221.954 164.448 221.954 164.22 222.074L162.565 222.948C161.989 223.247 161.321 222.764 161.435 222.124L161.747 220.284C161.79 220.028 161.705 219.772 161.52 219.594L160.177 218.287C159.715 217.832 159.971 217.05 160.61 216.958L162.465 216.688C162.721 216.652 162.941 216.489 163.055 216.262L163.886 214.584C164.171 214.002 165.002 214.002 165.286 214.584H165.279Z" fill="#E94675"/>
<path d="M177.772 214.584L178.603 216.262C178.717 216.489 178.937 216.652 179.193 216.688L181.048 216.958C181.687 217.05 181.943 217.839 181.481 218.287L180.138 219.594C179.953 219.772 179.868 220.035 179.911 220.284L180.223 222.124C180.33 222.764 179.662 223.247 179.094 222.948L177.438 222.074C177.21 221.954 176.94 221.954 176.713 222.074L175.057 222.948C174.482 223.247 173.814 222.764 173.927 222.124L174.24 220.284C174.283 220.028 174.197 219.772 174.013 219.594L172.67 218.287C172.208 217.832 172.464 217.05 173.103 216.958L174.958 216.688C175.214 216.652 175.434 216.489 175.548 216.262L176.372 214.584C176.656 214.002 177.488 214.002 177.772 214.584Z" fill="#E94675"/>
<path d="M152.787 214.584L153.618 216.262C153.732 216.489 153.952 216.652 154.208 216.688L156.063 216.958C156.702 217.05 156.958 217.839 156.496 218.287L155.153 219.594C154.968 219.772 154.883 220.035 154.926 220.284L155.238 222.124C155.345 222.764 154.677 223.247 154.108 222.948L152.453 222.074C152.225 221.954 151.955 221.954 151.728 222.074L150.072 222.948C149.496 223.247 148.828 222.764 148.942 222.124L149.262 220.284C149.305 220.028 149.219 219.772 149.035 219.594L147.691 218.287C147.23 217.832 147.485 217.05 148.125 216.958L149.98 216.688C150.235 216.652 150.456 216.489 150.569 216.262L151.394 214.584C151.678 214.002 152.509 214.002 152.794 214.584H152.787Z" fill="#E94675"/>
<path d="M179.371 230.083C179.371 230.083 179.804 230.068 180.607 229.948C181.403 229.827 182.604 229.536 183.912 228.711C185.219 227.915 186.612 226.501 187.401 224.462C187.799 223.446 187.991 222.28 187.969 221.037C187.969 219.786 187.962 218.464 187.955 217.078C187.934 215.714 187.593 214.279 186.868 212.971C186.136 211.678 185.034 210.505 183.642 209.709C182.249 208.899 180.586 208.508 178.866 208.572C177.125 208.572 175.334 208.572 173.501 208.579C166.153 208.579 158.088 208.587 149.61 208.594C147.528 208.594 145.503 209.382 143.989 210.718C142.454 212.04 141.459 213.902 141.182 215.842C141.033 216.801 141.083 217.796 141.076 218.777C141.076 219.757 141.054 220.738 141.09 221.683C141.125 223.573 141.879 225.364 142.994 226.764C144.146 228.15 145.681 229.152 147.329 229.592C148.146 229.848 148.992 229.898 149.823 229.912C150.669 229.912 151.5 229.912 152.311 229.912C155.572 229.919 158.614 229.926 161.392 229.933C166.935 229.955 171.419 229.976 174.546 229.99C176.088 230.005 177.289 230.019 178.12 230.026C178.518 230.033 178.824 230.04 179.051 230.047C179.257 230.047 179.371 230.061 179.371 230.068C179.371 230.076 179.264 230.083 179.051 230.09C178.824 230.09 178.518 230.097 178.12 230.111C177.282 230.118 176.081 230.132 174.546 230.147C171.419 230.161 166.935 230.182 161.392 230.203C158.614 230.203 155.572 230.218 152.311 230.225C151.493 230.225 150.662 230.225 149.823 230.225C148.978 230.211 148.09 230.161 147.237 229.898C145.524 229.443 143.918 228.406 142.724 226.97C141.559 225.513 140.777 223.652 140.728 221.683C140.692 220.71 140.713 219.75 140.706 218.763C140.713 217.789 140.656 216.787 140.813 215.771C141.104 213.753 142.142 211.806 143.741 210.427C145.318 209.034 147.436 208.217 149.603 208.21C158.074 208.21 166.146 208.217 173.494 208.224C175.327 208.224 177.118 208.224 178.859 208.231C180.614 208.167 182.362 208.587 183.791 209.425C185.233 210.257 186.363 211.472 187.116 212.815C187.856 214.165 188.204 215.65 188.218 217.057C188.218 218.443 188.218 219.765 188.211 221.022C188.218 222.28 188.012 223.481 187.6 224.519C186.775 226.601 185.333 228.029 183.99 228.818C182.647 229.635 181.432 229.905 180.621 230.005C180.216 230.076 179.904 230.054 179.691 230.068C179.477 230.068 179.371 230.068 179.371 230.068V230.083Z" fill="#E94675"/>
<path d="M240.842 67.5685H238.433L233.181 60.2491V55.4454C233.181 55.4454 229.465 55.218 229.898 61.5069C230.339 67.7959 229.863 66.197 229.863 66.197C229.863 66.197 221.968 66.2254 221.307 66.9147C220.831 67.4121 220.61 75.2573 220.532 79.5139C220.49 81.6529 221.804 83.6497 223.794 84.1542C224.078 84.2253 224.362 84.2679 224.647 84.2679C226.615 84.2679 236.677 82.669 236.677 82.669H240.835V67.5756L240.842 67.5685Z" fill="#E94675"/>
<path d="M247.735 66.2466L246.249 82.7044H242.135V66.5806L247.735 66.2466Z" fill="#E94675"/>
<path d="M211.067 56.1699L212.055 55.168L217.263 55.971L219.267 57.9394C219.267 57.9394 220.888 56.4826 218.081 54.0878C215.274 51.6931 216.134 52.155 216.134 52.155C216.134 52.155 219.353 48.8435 219.338 48.2892C219.324 47.8842 216.134 44.5798 214.393 42.8033C213.511 41.9079 212.147 41.645 211.117 42.2632C210.967 42.3485 210.832 42.4551 210.719 42.5688C209.909 43.3931 206.455 48.2537 206.455 48.2537L204.75 49.9876L211.053 56.1699H211.067Z" fill="#E94675"/>
<path d="M208.793 59.588L202.525 52.226L204.209 50.5063L210.946 57.1151L208.793 59.588Z" fill="#E94675"/>
<path d="M222.065 165.926C244.108 143.883 244.108 108.145 222.065 86.1021C200.022 64.0593 164.283 64.0593 142.241 86.1021C120.198 108.145 120.198 143.883 142.241 165.926C164.283 187.969 200.022 187.969 222.065 165.926Z" fill="#6785B4"/>
<path d="M162.517 69.7224C161.48 70.2909 160.833 71.499 160.933 72.6786C159.988 72.1243 158.694 72.3162 157.891 73.0552C157.081 73.7943 156.769 74.9952 157.01 76.0682C157.245 77.1342 157.991 78.058 158.929 78.6193C158.254 78.6904 157.714 79.2731 157.536 79.9269C157.358 80.5806 157.508 81.2841 157.778 81.9024C158.68 83.9632 161.117 85.221 163.32 84.7662L167.406 70.5183L162.525 69.7153L162.517 69.7224Z" fill="#263238"/>
<path d="M172.736 125.442L172.85 120.474C172.85 120.474 162.681 119.465 161.999 109.396C161.672 104.528 161.807 94.4587 162.034 85.3486C162.276 75.5492 170.007 67.5832 179.792 67.0432L180.766 66.9863C191.283 67.0148 197.139 75.9685 196.812 86.4856L195.433 128.725L177.412 135.433L172.736 125.442Z" fill="#DD9077"/>
<path d="M172.85 120.482C172.85 120.482 179.231 120.666 185.84 116.957C185.84 116.957 185.463 124.085 173.056 123.729L172.85 120.475V120.482Z" fill="#6F4439"/>
<path d="M166.078 95.8234C166.092 96.5838 166.753 97.202 167.549 97.202C168.345 97.202 168.977 96.5838 168.963 95.8234C168.949 95.0631 168.288 94.4448 167.499 94.4448C166.703 94.4448 166.071 95.0631 166.085 95.8234H166.078Z" fill="#263238"/>
<path d="M164.472 90.1594C164.664 90.337 165.708 89.4701 167.257 89.3848C168.806 89.2782 169.986 90.0172 170.142 89.8183C170.221 89.733 170.022 89.399 169.503 89.065C168.998 88.731 168.146 88.4326 167.179 88.4894C166.213 88.5463 165.424 88.9513 164.976 89.3351C164.521 89.7259 164.379 90.0741 164.472 90.1523V90.1594Z" fill="#263238"/>
<path d="M179.679 95.3046C179.693 96.065 180.354 96.6832 181.15 96.6761C181.946 96.6761 182.578 96.0579 182.564 95.2975C182.55 94.5372 181.889 93.9189 181.1 93.9189C180.304 93.9189 179.672 94.5372 179.686 95.2975L179.679 95.3046Z" fill="#263238"/>
<path d="M179.707 89.6057C179.899 89.7833 180.624 88.8098 182.173 88.7245C183.722 88.6179 185.214 89.4635 185.378 89.2646C185.456 89.1793 185.257 88.8453 184.738 88.5113C184.234 88.1773 183.381 87.8789 182.415 87.9357C181.448 87.9926 180.659 88.3976 180.212 88.7813C179.757 89.1722 179.615 89.5204 179.707 89.5985V89.6057Z" fill="#263238"/>
<path d="M174.726 101.401C174.726 101.316 173.759 101.202 172.182 101.089C171.784 101.067 171.407 101.011 171.322 100.748C171.215 100.471 171.357 100.03 171.521 99.5609C171.841 98.5803 172.175 97.557 172.523 96.484C173.909 92.1066 174.889 88.518 174.712 88.4611C174.534 88.4043 173.269 91.9076 171.883 96.2921C171.549 97.3722 171.23 98.4026 170.931 99.3833C170.803 99.8381 170.576 100.364 170.81 100.947C170.931 101.238 171.237 101.437 171.492 101.487C171.748 101.551 171.976 101.544 172.168 101.544C173.745 101.544 174.719 101.494 174.719 101.409L174.726 101.401Z" fill="#263238"/>
<path d="M178.712 85.1358C178.925 85.5337 180.425 85.1073 182.258 85.0576C184.092 84.9723 185.619 85.285 185.804 84.8728C185.882 84.681 185.57 84.3257 184.923 84.0059C184.283 83.6861 183.296 83.4445 182.201 83.48C181.1 83.5227 180.141 83.8424 179.522 84.2049C178.904 84.5673 178.62 84.9439 178.712 85.1358Z" fill="#263238"/>
<path d="M164.173 86.4218C164.514 86.7345 165.651 86.2299 167.072 86.0452C168.479 85.8178 169.723 85.967 169.95 85.5691C170.05 85.3772 169.823 85.0503 169.254 84.7803C168.7 84.5103 167.797 84.3468 166.831 84.4889C165.857 84.6311 165.054 85.0503 164.599 85.4696C164.145 85.8888 164.017 86.2655 164.173 86.4218Z" fill="#263238"/>
<path d="M195.739 96.3846C195.717 94.8283 196.989 93.5208 198.545 93.5848C200.436 93.6558 202.589 94.6081 202.674 98.5022C202.838 105.402 195.874 104.145 195.859 103.946C195.845 103.811 195.781 99.2768 195.739 96.3846Z" fill="#DD9077"/>
<path d="M197.295 101.309C197.295 101.309 197.416 101.387 197.622 101.48C197.821 101.565 198.162 101.622 198.524 101.48C199.249 101.195 199.832 100.023 199.839 98.7792C199.839 98.1539 199.697 97.557 199.462 97.0666C199.242 96.5692 198.908 96.221 198.538 96.1642C198.169 96.086 197.913 96.3134 197.835 96.5124C197.75 96.7042 197.792 96.8463 197.757 96.8535C197.735 96.8748 197.608 96.7398 197.657 96.4555C197.686 96.3205 197.757 96.1499 197.92 96.0149C198.084 95.8728 198.325 95.8017 198.581 95.8231C199.114 95.8444 199.604 96.3276 199.86 96.8606C200.144 97.4006 200.322 98.0686 200.322 98.7721C200.308 100.165 199.626 101.48 198.638 101.792C198.155 101.927 197.75 101.792 197.537 101.636C197.316 101.472 197.281 101.316 197.302 101.302L197.295 101.309Z" fill="#6F4439"/>
<path d="M172.104 78.8818C172.104 78.8818 172.075 78.8889 172.054 78.8889C172.011 78.8889 171.969 78.896 171.933 78.9032L172.104 78.8818Z" fill="#563189"/>
<path d="M202.788 83.6646C202.632 83.0535 202.198 82.5489 201.658 82.2434C201.971 81.8667 202.198 81.4333 202.312 80.9572C202.625 79.6283 201.985 78.1289 200.812 77.4254C201.949 76.2174 202.354 74.3627 201.822 72.7851C201.289 71.2075 199.839 69.9853 198.205 69.7152C198.19 67.6402 196.996 65.6079 195.192 64.5846C193.387 63.5613 191.027 63.5826 189.244 64.6343C187.659 61.4224 183.076 60.1717 180.084 62.133C177.952 60.7828 175.685 59.3971 173.177 59.3829C170.668 59.3687 167.975 61.3584 168.224 63.8527C166.412 63.4689 164.493 63.341 162.724 63.8953C160.954 64.4496 159.355 65.7713 158.829 67.555C158.311 69.3386 159.106 71.5131 160.819 72.2379C159.348 73.9363 159.448 76.7787 161.046 78.3705C161.508 78.8324 162.084 79.1451 162.695 79.3512C162.688 79.7846 162.695 80.2252 162.752 80.6729C162.752 80.6729 162.922 80.211 163.214 79.5075C164.592 79.7989 166.113 79.4933 167.179 78.5553C168.515 79.8557 170.618 80.2892 172.359 79.6283C174.1 78.9603 175.38 77.2264 175.5 75.3717C176.538 76.26 178.03 76.5869 179.345 76.2174C180.659 75.8478 181.761 74.789 182.18 73.4886C183.751 75.0875 186.33 75.6062 188.398 74.7393C188.505 76.0752 189.258 77.2833 190.302 78.1147C190.281 79.2659 190.167 80.5876 190.345 82.2007C192.335 100.279 195.931 105.218 196.4 96.6262C196.449 95.7095 198.858 94.8355 199.15 91.1332C199.533 91.0479 199.903 90.92 200.251 90.7281C200.976 90.3231 201.566 89.6338 201.758 88.8237C201.949 88.0136 201.701 87.0898 201.061 86.5568C202.276 86.2655 203.115 84.8798 202.795 83.6717L202.788 83.6646Z" fill="#263238"/>
<path d="M188.767 75.876C188.767 75.876 188.767 76.0892 188.91 76.4445C189.059 76.7927 189.357 77.283 189.912 77.7165C190.452 78.15 191.29 78.5266 192.257 78.4627C193.209 78.4058 194.275 77.9368 194.978 77.0059H194.58C194.936 77.4962 195.412 77.9226 195.966 78.2282C197.16 78.8819 198.56 78.9459 199.654 78.5053C200.763 78.0718 201.473 77.1978 201.85 76.4232C202.234 75.6344 202.29 74.9096 202.269 74.4335C202.234 73.9503 202.127 73.7015 202.106 73.7086C202.006 73.7015 202.312 74.8101 201.537 76.2598C201.154 76.9562 200.478 77.7165 199.491 78.0718C198.517 78.4413 197.266 78.3703 196.208 77.7876C195.71 77.5175 195.291 77.1409 194.978 76.7145L194.779 76.4445L194.58 76.7145C193.998 77.5175 193.067 77.9581 192.228 78.0363C191.375 78.1216 190.629 77.8302 190.103 77.4678C189.038 76.7074 188.839 75.8405 188.76 75.8831L188.767 75.876Z" fill="#455A64"/>
<path d="M174.392 105.871C174.427 106.013 175.536 105.871 176.893 105.644C178.25 105.424 179.352 105.203 179.338 105.061C179.323 104.919 178.186 104.912 176.815 105.139C175.436 105.36 174.363 105.736 174.399 105.871H174.392Z" fill="#263238"/>
<path d="M152.668 129.592C152.668 129.592 150.472 129.727 145.953 133.109C141.433 136.492 131.229 150.363 131.229 150.363C135.77 159.907 139.096 165.258 147.332 170.921L156.875 161.157C156.875 161.157 162.397 134.559 161.743 134.651C161.089 134.744 152.668 129.592 152.668 129.592Z" fill="#563189"/>
<path d="M218.713 125.875C212.31 123.04 195.682 121.256 195.682 121.256C195.682 121.256 192.228 130.167 182.18 130.636C175.998 130.928 171.492 124.461 171.492 124.461C171.492 124.461 154.964 128.505 151.51 129.919C148.831 148.985 148.213 153.525 150.657 172.904C158.026 177.871 167.229 181.367 176.552 182.17C194.467 183.712 213.476 176.826 225.307 161.975L218.72 125.875H218.713Z" fill="#563189"/>
<path d="M147.332 141.715C147.332 141.715 147.403 142.148 147.467 142.944C147.531 143.797 147.623 144.927 147.722 146.298C147.943 149.127 148.27 153.035 148.724 157.341C149.186 161.648 149.684 165.535 150.067 168.349C150.252 169.706 150.409 170.836 150.522 171.681C150.629 172.47 150.671 172.904 150.65 172.911C150.622 172.911 150.529 172.484 150.38 171.703C150.231 170.921 150.032 169.791 149.812 168.384C149.364 165.577 148.817 161.69 148.355 157.377C147.9 153.063 147.609 149.148 147.459 146.313C147.381 144.891 147.339 143.747 147.317 142.951C147.296 142.155 147.296 141.715 147.317 141.715H147.332Z" fill="#263238"/>
<path d="M179.835 135.007C179.835 133.479 179.878 128.376 180.29 125.825C180.873 122.223 187.055 113.525 187.055 113.525C187.055 113.525 186.913 110.242 183.367 112.487C179.167 115.152 177.447 118.826 176.211 118.314C174.974 117.803 166.824 111.677 164.926 112.196C163.036 112.715 163.029 114.64 163.711 115.443C164.401 116.26 165.331 117.433 165.331 117.433C165.331 117.433 161.203 116.715 162.674 121.064C162.674 121.064 157.586 118.868 158.964 124.916C158.964 124.916 157.046 126.223 158.147 128.227C159.064 129.89 161.316 132.796 162.596 134.339C163.875 135.888 166.198 141.537 166.198 141.537L168.529 151.052L184.035 145.346L179.842 134.985L179.835 135.007Z" fill="#DD9077"/>
<path d="M165.246 117.455C165.211 117.519 166.248 118.165 167.499 118.997C168.75 119.828 169.744 120.539 169.787 120.482C169.83 120.432 168.899 119.629 167.634 118.791C166.376 117.952 165.275 117.398 165.246 117.455Z" fill="#6F4439"/>
<path d="M162.453 120.809C162.397 120.844 162.88 121.669 163.725 122.472C164.571 123.282 165.417 123.722 165.452 123.666C165.495 123.602 164.72 123.083 163.903 122.294C163.079 121.512 162.517 120.766 162.453 120.809Z" fill="#6F4439"/>
<path d="M158.737 124.703C158.687 124.753 159.163 125.314 159.803 125.968C160.442 126.621 160.997 127.105 161.046 127.062C161.096 127.012 160.62 126.451 159.981 125.797C159.341 125.143 158.787 124.66 158.737 124.703Z" fill="#6F4439"/>
<path d="M210.171 149.162L193.514 165.897L179.593 135.433L166.191 141.559C166.191 141.559 176.254 184.387 181.249 190.541C186.238 196.695 189.066 196.873 195.788 193.775C202.511 190.676 223.239 165.727 223.239 165.727L210.164 149.155L210.171 149.162Z" fill="#DD9077"/>
<path d="M220.866 173.337C220.866 173.337 228.839 158.265 229.471 144.664C229.749 138.659 227.595 132.733 223.211 128.618C221.655 127.161 219.864 125.939 217.974 125.577C217.974 125.577 216.325 130.892 213.035 135.433C209.745 139.974 197.288 159.409 197.288 159.409L220.859 173.337H220.866Z" fill="#563189"/>
<path d="M166.191 141.559C166.191 141.559 166.134 141.452 166.035 141.246C165.928 141.019 165.793 140.706 165.609 140.315C165.232 139.498 164.692 138.29 163.931 136.79C163.541 136.051 163.114 135.206 162.496 134.417C161.842 133.628 161.153 132.768 160.428 131.823C159.71 130.878 158.957 129.862 158.247 128.718C157.898 128.164 157.55 127.446 157.678 126.693C157.792 125.946 158.247 125.286 158.865 124.817L158.801 124.973C158.694 124.404 158.573 123.829 158.566 123.218C158.538 122.912 158.602 122.599 158.63 122.287C158.716 121.974 158.801 121.661 159 121.384C159.369 120.809 160.101 120.524 160.762 120.539C161.437 120.539 162.091 120.681 162.723 120.937L162.496 121.143C162.432 120.915 162.368 120.681 162.304 120.453C162.247 120.219 162.226 119.97 162.183 119.729C162.169 119.231 162.19 118.698 162.482 118.229C162.766 117.76 163.278 117.476 163.782 117.355C164.294 117.234 164.82 117.22 165.346 117.291L165.182 117.582C164.877 117.206 164.564 116.822 164.251 116.438L163.775 115.856C163.619 115.671 163.441 115.465 163.327 115.209C163.093 114.719 163.022 114.143 163.164 113.603C163.306 113.056 163.697 112.587 164.187 112.317C164.443 112.189 164.678 112.082 164.976 112.025C165.282 111.983 165.566 112.04 165.829 112.111C166.362 112.253 166.852 112.473 167.335 112.701C168.302 113.17 169.233 113.717 170.156 114.278C171.869 115.323 173.496 116.438 175.109 117.483C175.507 117.732 175.934 118.03 176.31 118.172C176.637 118.272 177.049 117.959 177.376 117.661C178.051 117.035 178.663 116.325 179.309 115.664C180.588 114.335 181.96 113.141 183.466 112.239C183.843 112.011 184.248 111.819 184.681 111.706C185.101 111.571 185.591 111.564 186.025 111.72C186.465 111.883 186.792 112.239 186.991 112.622C187.197 113.006 187.311 113.411 187.36 113.838V113.894L187.325 113.944C185.264 116.708 183.488 119.352 182.109 121.789C181.434 123.012 180.83 124.198 180.51 125.349C180.219 126.508 180.205 127.652 180.126 128.654C180.027 130.672 180.006 132.264 179.956 133.351C179.935 133.891 179.913 134.31 179.885 134.587C179.856 134.865 179.821 135.007 179.821 135.007C179.807 135.007 179.821 134.865 179.835 134.58C179.835 134.275 179.849 133.87 179.856 133.344C179.871 132.257 179.856 130.665 179.935 128.64C179.991 127.631 179.991 126.501 180.283 125.293C180.602 124.092 181.199 122.898 181.874 121.661C183.246 119.188 185.008 116.538 187.069 113.745L187.034 113.859C186.941 113.134 186.607 112.295 185.897 112.025C185.186 111.763 184.347 112.111 183.637 112.53C182.173 113.411 180.83 114.591 179.565 115.905C178.925 116.559 178.321 117.27 177.618 117.924C177.44 118.087 177.241 118.243 177.021 118.378C176.794 118.485 176.509 118.627 176.197 118.52C175.685 118.322 175.33 118.044 174.903 117.789C173.283 116.737 171.656 115.628 169.957 114.591C169.041 114.029 168.11 113.489 167.165 113.027C166.696 112.8 166.213 112.587 165.729 112.459C165.488 112.388 165.239 112.352 165.033 112.381C164.82 112.416 164.571 112.523 164.365 112.629C163.953 112.864 163.633 113.241 163.512 113.688C163.391 114.136 163.448 114.626 163.647 115.046C163.732 115.252 163.889 115.429 164.052 115.628L164.521 116.204C164.834 116.588 165.14 116.964 165.445 117.341L165.729 117.689L165.282 117.632C164.365 117.511 163.249 117.639 162.773 118.407C162.333 119.188 162.539 120.19 162.816 121.036L162.93 121.384L162.588 121.249C162.006 121.015 161.373 120.873 160.762 120.873C160.151 120.858 159.568 121.1 159.263 121.576C159.092 121.804 159.021 122.088 158.936 122.358C158.915 122.649 158.851 122.933 158.872 123.218C158.872 123.8 158.993 124.362 159.092 124.909L159.106 125.008L159.028 125.065C158.481 125.47 158.048 126.089 157.955 126.735C157.842 127.396 158.126 128.014 158.474 128.576C159.163 129.706 159.909 130.729 160.613 131.674C161.324 132.619 162.006 133.493 162.645 134.282C163.278 135.113 163.69 135.959 164.074 136.712C164.82 138.233 165.338 139.448 165.68 140.28C165.843 140.677 165.971 140.997 166.063 141.232C166.149 141.445 166.184 141.559 166.177 141.566L166.191 141.559Z" fill="#6F4439"/>
<path d="M198.368 175.021C198.268 175.064 197.266 172.861 195.81 170.26C194.36 167.652 193.017 165.641 193.102 165.577C193.145 165.549 193.529 166.018 194.097 166.821C194.666 167.624 195.398 168.768 196.129 170.076C196.861 171.39 197.444 172.612 197.828 173.522C198.212 174.425 198.403 175.007 198.361 175.021H198.368Z" fill="#6F4439"/>
<path d="M208.402 142.667C208.402 142.667 208.345 142.795 208.217 143.015C208.061 143.271 207.869 143.59 207.627 143.988C207.073 144.862 206.32 146.07 205.382 147.556C203.427 150.604 200.741 154.783 197.7 159.515L197.643 159.259C198.546 159.807 199.491 160.382 200.45 160.972C205.922 164.333 210.868 167.382 214.499 169.499C216.29 170.53 217.753 171.375 218.812 171.987C219.295 172.264 219.686 172.484 219.992 172.655C220.262 172.811 220.397 172.896 220.39 172.91C220.39 172.925 220.233 172.854 219.956 172.719C219.644 172.562 219.246 172.363 218.748 172.107C217.704 171.567 216.204 170.757 214.371 169.72C210.704 167.652 205.73 164.639 200.258 161.278C199.299 160.688 198.354 160.112 197.451 159.565L197.288 159.466L197.394 159.309C200.471 154.605 203.2 150.448 205.183 147.414C206.156 145.957 206.945 144.77 207.521 143.91C207.784 143.526 207.997 143.221 208.167 142.972C208.316 142.759 208.402 142.652 208.409 142.66L208.402 142.667Z" fill="#263238"/>
<path d="M207.308 137.266C207.357 137.295 207.002 137.913 206.476 138.929C205.95 139.945 205.261 141.366 204.629 142.987C203.996 144.614 203.541 146.127 203.25 147.229C202.951 148.33 202.795 149.027 202.738 149.02C202.696 149.013 202.76 148.302 202.994 147.172C203.229 146.042 203.648 144.5 204.287 142.859C204.927 141.217 205.659 139.796 206.249 138.808C206.839 137.82 207.272 137.245 207.308 137.273V137.266Z" fill="#263238"/>
<path d="M119.902 182.838C120.122 216.372 93.3819 243.411 59.9546 242.786C26.847 242.174 0 215.946 0 182.838C0 149.731 26.8399 122.891 59.9475 122.891C93.055 122.891 119.682 149.731 119.895 182.838H119.902Z" fill="#6785B4"/>
<path d="M16.5502 177.792C13.9067 176.819 12.052 174.012 12.1942 171.198C12.3363 168.384 14.4539 165.776 17.1827 165.072C14.7524 163.395 13.523 160.155 14.2265 157.291C14.93 154.427 17.5238 152.125 20.4515 151.763C18.3197 150.419 17.3817 147.62 17.8578 145.147C18.3339 142.674 20.0322 140.556 22.1072 139.135C27.7708 135.248 36.4261 136.761 40.4269 142.347L48.4497 197.206C46.4671 199.857 41.8623 203.609 38.5651 203.353C35.2678 203.097 32.1553 201.058 30.6062 198.137C28.5525 198.244 26.4562 198.35 24.4736 197.81C22.491 197.27 20.5936 195.97 19.883 194.044C19.1724 192.118 20.018 189.589 21.958 188.906C19.5348 187.904 16.9766 186.803 15.4843 184.65C13.992 182.497 14.1981 178.958 16.5502 177.807V177.792Z" fill="#263238"/>
<path d="M28.3606 161.804C26.0938 159.608 25.7882 155.678 27.6998 153.162C26.2501 151.805 26.3425 149.375 27.3587 147.677C28.3748 145.978 30.0945 144.834 31.7503 143.747C32.07 139.114 36.6464 135.212 41.2725 135.639C43.0988 131.872 47.9807 130.608 52.1236 131.183C53.1327 131.325 54.156 131.546 55.1721 131.396C55.9112 131.283 56.6076 130.977 57.3253 130.771C61.2905 129.634 65.7177 131.887 67.8424 135.418C68.1835 135.98 68.4819 136.584 68.9581 137.046C69.5834 137.643 70.4361 137.927 71.1894 138.346C72.8167 139.263 74.0105 140.919 74.3658 142.752C74.6643 144.315 74.4085 146.049 75.2754 147.378C75.7089 148.046 76.3982 148.536 76.7606 149.24C77.8265 151.286 75.7586 153.845 76.5332 156.019C76.6895 156.46 76.9596 156.858 77.1514 157.284C77.5423 158.165 77.6062 159.188 77.3149 160.105C77.0946 160.816 76.6682 161.498 76.7322 162.237C76.7819 162.798 77.1088 163.289 77.3007 163.822C77.7697 165.115 75.6449 170.693 74.5932 171.589L40.1284 176.968C37.4352 176.819 34.9622 174.765 34.3227 172.15C34.2161 171.717 34.1379 171.241 33.8182 170.928C33.541 170.665 33.1431 170.587 32.7878 170.452C30.393 169.585 29.6753 166.572 29.5403 164.028C29.5189 163.672 29.5047 163.303 29.3626 162.976C29.1636 162.5 28.7302 162.166 28.3606 161.804Z" fill="#263238"/>
<path d="M29.782 150.064C33.6193 142.574 39.8301 137.394 48.0306 135.49C52.6567 134.416 54.7885 134.964 58.3274 135.148C61.8662 135.333 65.2701 136.477 67.8709 138.879C70.9621 141.729 73.7619 145.069 75.0908 149.062C76.4552 153.162 77.0165 157.341 76.9526 160.901C76.8673 165.222 75.3963 172.115 73.6553 176.073L66.7126 178.475C60.8358 179.953 54.8738 181.438 48.8122 181.331C42.7507 181.225 36.4831 179.327 32.3046 174.936C26.4989 168.839 25.9375 157.568 29.782 150.071V150.064Z" fill="#263238"/>
<path d="M39.3041 147.94L52.3723 139.178L56.2026 138.808C64.6091 137.032 72.3975 145.047 73.9182 151.841C75.6095 159.388 77.3718 168.668 77.3718 174.495C77.3718 186.221 68.0059 189.212 68.0059 189.212L69.2566 195.97C68.3612 202.316 56.0889 205.379 49.3735 199.793L36.348 152.58C35.9785 150.498 37.2576 148.48 39.297 147.933L39.3041 147.94Z" fill="#DD9077"/>
<path d="M60.0044 175.497C59.9546 174.893 60.1678 174.296 60.5089 173.849C61.1911 172.953 62.3991 172.619 63.4295 173.046C64.4599 173.472 65.2416 174.63 65.3269 175.846C64.9716 176.649 64.3036 177.281 63.4651 177.537C63.3372 177.579 63.2021 177.608 63.0671 177.636C62.4205 177.757 61.717 177.679 61.12 177.309C60.5231 176.94 60.0541 176.251 59.9973 175.505L60.0044 175.497Z" fill="#6F4439"/>
<path d="M72.7101 161.192C72.8594 161.96 72.3335 162.727 71.5305 162.898C70.7275 163.069 69.9601 162.585 69.8108 161.818C69.6616 161.05 70.1875 160.283 70.9904 160.112C71.7934 159.942 72.5609 160.425 72.7172 161.192H72.7101Z" fill="#263238"/>
<path d="M72.1772 156.169C72.028 156.389 70.7844 155.742 69.2069 155.998C67.6293 156.233 66.5989 157.228 66.3928 157.057C66.2933 156.986 66.4284 156.609 66.8689 156.162C67.3095 155.714 68.0983 155.231 69.079 155.074C70.0596 154.925 70.9479 155.153 71.4808 155.451C72.028 155.749 72.2412 156.069 72.1701 156.169H72.1772Z" fill="#263238"/>
<path d="M64.7868 170.565C64.7655 170.48 65.7177 170.153 67.2739 169.698C67.6719 169.592 68.0414 169.45 68.0627 169.165C68.1125 168.86 67.8709 168.455 67.6008 168.014C67.0679 167.098 66.5065 166.138 65.9238 165.136C63.5787 161.029 61.8093 157.625 61.9728 157.533C62.1362 157.44 64.1757 160.695 66.5278 164.802C67.0963 165.818 67.6435 166.785 68.1622 167.709C68.3896 168.142 68.7307 168.618 68.6241 169.258C68.5601 169.578 68.3043 169.841 68.0556 169.954C67.8069 170.075 67.5866 170.118 67.3876 170.16C65.803 170.501 64.8081 170.665 64.7868 170.572V170.565Z" fill="#263238"/>
<path d="M68.0272 189.198C68.0272 189.198 60.4094 190.911 52.0597 187.542C52.0597 187.542 57.2969 195.146 68.5744 192.261L68.0272 189.198Z" fill="#6F4439"/>
<path d="M60.3098 172.392C60.5657 172.335 60.8357 174.048 62.4985 175.035C64.1543 176.023 65.9521 175.54 66.0019 175.782C66.0445 175.888 65.6466 176.18 64.8791 176.322C64.1258 176.464 62.9818 176.4 61.9727 175.796C60.9565 175.192 60.4164 174.261 60.2459 173.565C60.0682 172.861 60.189 172.406 60.3098 172.392Z" fill="#263238"/>
<path d="M70.4646 150.825C70.2585 151.251 69.0078 151.187 67.615 151.528C66.208 151.827 65.1137 152.424 64.7442 152.132C64.5807 151.983 64.6731 151.585 65.0995 151.116C65.5187 150.654 66.3004 150.164 67.2597 149.944C68.2191 149.723 69.1286 149.83 69.7042 150.064C70.287 150.299 70.5428 150.619 70.4575 150.825H70.4646Z" fill="#263238"/>
<path d="M55.5417 164.262C55.6696 165.037 56.4229 165.57 57.233 165.456C58.0431 165.343 58.5974 164.625 58.4766 163.85C58.3487 163.076 57.5954 162.543 56.7853 162.656C55.9752 162.77 55.4138 163.495 55.5417 164.27V164.262Z" fill="#263238"/>
<path d="M50.9369 160.112C51.1572 160.269 52.0952 159.231 53.6656 158.926C55.229 158.599 56.5365 159.182 56.6715 158.954C56.7355 158.855 56.4868 158.549 55.9112 158.279C55.3498 158.016 54.4331 157.824 53.4596 158.023C52.486 158.222 51.7328 158.741 51.3348 159.203C50.9227 159.665 50.8303 160.041 50.9369 160.112Z" fill="#263238"/>
<path d="M50.7948 154.911C51.1714 155.202 52.3084 154.598 53.758 154.292C55.2006 153.944 56.4939 154.001 56.7 153.575C56.7853 153.368 56.5223 153.049 55.9183 152.821C55.3214 152.587 54.3834 152.487 53.3885 152.715C52.3937 152.942 51.5907 153.432 51.1572 153.901C50.7166 154.37 50.6171 154.768 50.7877 154.918L50.7948 154.911Z" fill="#263238"/>
<path d="M76.5688 152.8C74.842 152.026 73.6411 150.811 73.4847 148.92C72.4757 149.382 71.2179 148.167 70.4717 147.336C69.7327 146.504 68.9155 146.149 68.8089 145.04C68.7876 144.82 68.7734 144.593 68.6454 144.415C68.4465 144.138 68.0556 144.088 67.7145 144.031C65.9664 143.74 64.4031 142.482 63.7351 140.841C62.1504 141.807 60.317 142.376 58.4552 142.468C57.8015 143.761 56.4513 144.678 55.0087 144.813C53.5662 144.948 52.0739 144.294 51.1927 143.143C50.8516 144.195 49.9136 144.969 48.8903 145.381C47.8671 145.794 46.7443 145.9 45.6499 146.007C46.4103 148.06 45.3586 150.612 43.376 151.528C43.1059 151.649 42.7933 151.784 42.7009 152.061C42.6014 152.353 42.7933 152.651 42.9425 152.921C43.8734 154.627 42.9922 157.064 41.1802 157.775C42.6085 158.599 42.7862 160.93 41.5071 161.96C41.2441 162.173 40.8959 162.429 40.9883 162.756C41.0238 162.877 41.1162 162.976 41.2086 163.069C41.905 163.765 42.6014 164.54 42.8075 165.499C43.0136 166.465 42.5019 167.645 41.5355 167.823C42.1111 168.206 42.6654 168.725 42.7719 169.414C42.8785 170.097 42.2816 170.893 41.6065 170.729C41.3223 170.658 37.2931 170.424 37.087 170.217C34.4435 167.496 36.7886 163.772 36.4972 159.992C36.2059 156.211 34.3298 152.097 35.7582 148.586C36.3551 147.115 39.7589 145.971 40.7254 144.706C41.8268 143.264 43.2267 142.084 44.6196 140.926C46.4387 139.412 48.3219 137.899 50.5248 137.053C54.6392 135.468 59.2653 136.406 63.4793 137.7C65.0853 138.19 66.6912 138.737 68.1054 139.64C69.7966 140.72 71.1468 142.255 72.3548 143.854C74.103 146.163 75.6379 148.707 76.3059 151.528" fill="#263238"/>
<path d="M76.7678 149.24C76.7678 149.24 76.6469 148.928 76.2277 148.451C76.0216 148.21 75.7445 147.94 75.4673 147.577C75.1973 147.215 74.9557 146.746 74.8207 146.163C74.6785 145.588 74.6359 144.934 74.5862 144.209C74.5364 143.491 74.4796 142.688 74.2024 141.878C73.9324 141.068 73.4776 140.258 72.8238 139.54C72.497 139.185 72.1203 138.851 71.7011 138.56C71.2818 138.268 70.8057 138.034 70.3296 137.806C69.8535 137.572 69.3774 137.323 68.9936 136.94C68.6099 136.556 68.3327 136.058 68.0414 135.561C67.4587 134.552 66.677 133.585 65.7106 132.782C64.7441 131.972 63.6143 131.276 62.3352 130.857C61.7027 130.622 61.0276 130.501 60.3383 130.402C59.649 130.352 58.9384 130.331 58.2349 130.452C57.8796 130.501 57.5314 130.594 57.1832 130.679C56.835 130.786 56.501 130.906 56.1599 131.013C55.4848 131.247 54.7813 131.361 54.0565 131.304C53.3317 131.262 52.6068 131.105 51.8536 131.02C51.1003 130.921 50.34 130.906 49.5654 130.935C48.7979 130.963 48.0234 131.077 47.2559 131.233C46.4884 131.404 45.7352 131.653 45.0033 131.979C43.5607 132.647 42.2105 133.692 41.4004 135.142C41.3223 135.284 41.2441 135.426 41.1588 135.568L41.2796 135.504C38.8209 135.284 36.4261 136.272 34.6851 137.814C32.937 139.356 31.7787 141.509 31.6295 143.726L31.6792 143.641C30.791 144.223 29.9098 144.806 29.121 145.481C28.3322 146.149 27.6287 146.924 27.1455 147.812C26.6694 148.7 26.442 149.702 26.4988 150.669C26.5486 151.635 26.9252 152.587 27.6216 153.227L27.6074 153.092C26.641 154.378 26.2786 155.948 26.3567 157.384C26.4278 158.826 26.9181 160.17 27.714 161.186C27.8988 161.449 28.1333 161.669 28.3464 161.896C28.5738 162.109 28.8012 162.301 28.986 162.522C29.1708 162.742 29.3129 162.984 29.3697 163.254C29.4337 163.524 29.4408 163.801 29.4621 164.071C29.5261 165.172 29.6895 166.174 29.9595 167.048C30.2296 167.922 30.592 168.668 31.0468 169.216C31.4945 169.77 32.0061 170.125 32.4467 170.324C32.8873 170.537 33.2639 170.587 33.4842 170.708C33.7116 170.815 33.7969 170.914 33.804 170.907C33.804 170.907 33.7258 170.8 33.4984 170.679C33.2781 170.552 32.9015 170.488 32.4751 170.267C32.0416 170.061 31.5513 169.706 31.1178 169.159C30.6773 168.619 30.3291 167.88 30.0661 167.013C29.8103 166.146 29.654 165.151 29.5971 164.064C29.5829 163.794 29.5758 163.509 29.5119 163.218C29.4479 162.927 29.2987 162.65 29.0997 162.422C28.9007 162.188 28.6733 161.989 28.453 161.775C28.247 161.555 28.0196 161.342 27.8419 161.086C27.0744 160.098 26.5983 158.784 26.5344 157.377C26.4704 155.977 26.8257 154.449 27.7637 153.213L27.8206 153.142L27.7566 153.078C27.11 152.474 26.7547 151.578 26.7049 150.654C26.6552 149.731 26.8755 148.764 27.3374 147.911C27.8064 147.059 28.4886 146.305 29.2702 145.652C30.0519 144.991 30.9189 144.415 31.8071 143.832L31.8569 143.804V143.747C32.0132 141.594 33.136 139.498 34.8415 137.991C36.5398 136.485 38.8778 135.532 41.2512 135.746H41.3294L41.372 135.682C41.4502 135.547 41.5284 135.405 41.5994 135.27C42.3811 133.87 43.6886 132.853 45.0956 132.2C45.8063 131.887 46.5453 131.638 47.2985 131.468C48.0518 131.311 48.8122 131.198 49.5654 131.176C50.3187 131.148 51.079 131.162 51.811 131.262C52.55 131.34 53.2819 131.496 54.0281 131.539C54.3976 131.56 54.7742 131.553 55.1437 131.503C55.5133 131.446 55.8686 131.347 56.2097 131.233C56.5508 131.12 56.8919 130.999 57.2258 130.899C57.5669 130.814 57.9009 130.722 58.242 130.672C58.9242 130.551 59.6135 130.565 60.2886 130.615C60.9566 130.707 61.6174 130.821 62.2357 131.049C63.4864 131.461 64.602 132.136 65.5542 132.925C66.5065 133.713 67.2739 134.651 67.8566 135.646C68.148 136.144 68.4322 136.655 68.8444 137.06C69.2566 137.465 69.754 137.721 70.2372 137.956C70.7204 138.183 71.1823 138.403 71.5945 138.688C72.0066 138.965 72.3762 139.292 72.6959 139.64C73.3355 140.336 73.7903 141.132 74.0603 141.921C74.3374 142.71 74.4014 143.498 74.4583 144.216C74.5151 144.934 74.5648 145.602 74.7141 146.185C74.8562 146.767 75.112 147.251 75.3892 147.613C75.6734 147.975 75.9576 148.238 76.1637 148.473C76.3769 148.7 76.519 148.892 76.6043 149.027C76.6967 149.162 76.7322 149.233 76.7393 149.233L76.7678 149.24Z" fill="#455A64"/>
<path d="M44.7332 133.393C44.7332 133.393 44.9251 133.244 45.2804 133.003C45.6357 132.768 46.1828 132.455 46.929 132.264C47.6609 132.072 48.5989 132.008 49.5725 132.285C50.5318 132.562 51.5196 133.173 52.2231 134.09C52.4291 134.353 52.6068 134.637 52.7347 134.928C52.8626 135.213 52.9195 135.525 52.7916 135.767L52.6352 136.058L52.9408 135.923C53.7793 135.554 54.7031 135.596 55.4137 135.873C56.1386 136.151 56.6431 136.662 56.9487 137.145C57.2613 137.636 57.3821 138.091 57.439 138.403C57.4958 138.716 57.4958 138.894 57.51 138.894C57.5171 138.894 57.5243 138.851 57.5314 138.766C57.5314 138.68 57.5314 138.552 57.5172 138.389C57.4816 138.069 57.3821 137.586 57.0766 137.067C56.7781 136.556 56.2523 135.994 55.4848 135.689C54.7315 135.383 53.7509 135.319 52.8413 135.71L52.9905 135.873C53.1682 135.532 53.0829 135.142 52.9479 134.836C52.8058 134.516 52.621 134.232 52.4078 133.948C51.6688 132.981 50.6313 132.349 49.6222 132.072C48.606 131.795 47.6325 131.88 46.8792 132.1C46.1189 132.32 45.5717 132.661 45.2235 132.924C45.053 133.059 44.9251 133.173 44.8469 133.258C44.7687 133.344 44.7261 133.386 44.7332 133.393Z" fill="#455A64"/>
<path d="M30.0662 152.09C30.0662 152.09 30.0662 152.139 30.1088 152.232C30.1514 152.317 30.2154 152.452 30.3362 152.587C30.5707 152.871 31.0539 153.184 31.7219 153.255C32.397 153.333 33.1787 153.092 33.939 152.701C34.3227 152.502 34.7136 152.303 35.1115 152.04C35.4953 151.777 35.9074 151.422 36.0638 150.896C36.078 150.853 36.0851 150.803 36.0922 150.761L35.9145 150.846C36.753 151.336 37.6058 151.741 38.4443 151.926C39.2757 152.125 40.0787 152.061 40.6899 151.848C41.3081 151.642 41.7345 151.308 41.969 151.038C42.0898 150.903 42.1679 150.789 42.2106 150.704C42.2532 150.619 42.2745 150.576 42.2674 150.576C42.2461 150.562 42.1466 150.732 41.8979 150.974C41.6492 151.216 41.2299 151.507 40.6401 151.685C40.0503 151.869 39.297 151.912 38.4941 151.706C37.6911 151.521 36.8667 151.116 36.0353 150.633L35.8932 150.555L35.8577 150.718C35.8577 150.718 35.8435 150.789 35.8292 150.832C35.7013 151.265 35.346 151.592 34.9765 151.848C34.5999 152.097 34.2019 152.31 33.8324 152.509C33.0934 152.907 32.3543 153.148 31.7361 153.092C31.1108 153.049 30.6489 152.779 30.4001 152.53C30.1514 152.281 30.0875 152.083 30.0662 152.097V152.09Z" fill="#455A64"/>
<path d="M42.3882 171.163C42.2532 170.31 40.9457 168.462 40.0858 168.462C37.7834 168.462 33.7614 169.294 34.6283 175C35.815 182.803 43.4044 180.003 43.3831 179.782C43.3689 179.605 42.8572 174.105 42.3811 171.163H42.3882Z" fill="#DD9077"/>
<path d="M40.8036 177.26C40.7681 177.238 40.6828 177.373 40.4696 177.515C40.2635 177.65 39.8869 177.778 39.4534 177.693C38.5794 177.515 37.6911 176.314 37.4353 174.907C37.3074 174.197 37.35 173.5 37.5206 172.903C37.6698 172.299 37.9825 171.845 38.3875 171.703C38.7855 171.546 39.1195 171.745 39.2474 171.951C39.3824 172.157 39.3611 172.321 39.4037 172.321C39.425 172.335 39.5529 172.164 39.4392 171.852C39.3824 171.703 39.2616 171.532 39.0555 171.411C38.8423 171.29 38.5581 171.255 38.2738 171.326C37.6769 171.461 37.2221 172.093 37.0374 172.754C36.8242 173.422 36.7531 174.204 36.8952 175C37.1866 176.563 38.2099 177.913 39.3895 178.07C39.958 178.126 40.3915 177.892 40.6046 177.672C40.8178 177.444 40.832 177.26 40.8036 177.252V177.26Z" fill="#6F4439"/>
<g opacity="0.3">
<path d="M62.1007 161.974C62.6336 165.62 60.1038 169.002 56.4584 169.535C52.8129 170.068 49.4304 167.539 48.8974 163.893C48.3645 160.248 50.8943 156.865 54.5397 156.332C58.1852 155.799 61.5677 158.329 62.1007 161.974Z" fill="white"/>
</g>
<g opacity="0.3">
<path d="M78.3596 159.871C78.8925 163.516 76.3627 166.899 72.7173 167.432C69.0718 167.965 65.6893 165.435 65.1563 161.79C64.6234 158.144 67.1532 154.762 70.7986 154.229C74.4441 153.696 77.8266 156.225 78.3596 159.871Z" fill="white"/>
</g>
<path d="M64.8081 160.844C64.7655 160.922 64.197 160.659 63.4864 160.809C62.7686 160.944 62.3494 161.406 62.2783 161.349C62.2499 161.327 62.3138 161.171 62.4986 160.979C62.6905 160.787 63.0173 160.588 63.4224 160.51C63.8274 160.432 64.2112 160.489 64.4528 160.588C64.7015 160.688 64.8223 160.809 64.801 160.844H64.8081Z" fill="#455A64"/>
<path d="M49.3807 163.545C49.402 163.58 48.9259 163.886 48.1371 164.355C47.3483 164.824 46.2469 165.449 45.0246 166.124C43.8023 166.8 42.6867 167.396 41.8695 167.816C41.4644 168.029 41.1162 168.185 40.8533 168.242C40.5975 168.299 40.4482 168.285 40.4482 168.263C40.4482 168.242 40.5833 168.214 40.8178 168.128C41.0523 168.043 41.3649 167.865 41.7629 167.624C42.5517 167.155 43.6531 166.529 44.8754 165.854C46.0976 165.179 47.2133 164.582 48.0305 164.163C48.8477 163.744 49.3594 163.502 49.3807 163.545Z" fill="#455A64"/>
<path d="M30.0306 234.542C30.0306 234.542 40.3842 243.119 62.058 242.999C82.346 242.885 95.0234 231.906 95.0234 231.906C99.3368 222.831 94.4265 216.599 92.1312 204.938C92.1312 204.938 85.3377 194.386 83.2343 194.293C78.5584 194.094 70.0311 195.601 69.555 195.117C66.4851 200.397 62.4843 205.819 48.0304 195.437L31.0041 199.857C28.5383 200.895 24.6725 203.567 24.9141 206.231L30.0306 234.549" fill="#E94675"/>
<path d="M17.1045 224.828C17.1045 224.828 20.0394 206.302 28.7373 201.101C35.9358 196.794 45.3088 226.725 45.3088 226.725L37.4494 238.635C29.1068 234.912 24.8929 232.289 17.0974 224.835L17.1045 224.828Z" fill="#E94675"/>
<path d="M112.064 181.36L101.582 184.877L110.124 213.771L96.2244 200.838L86.3895 220.501C86.3895 220.501 106.656 234.67 114.715 235.779C122.773 236.88 129.169 233.093 127.392 223.776C126.681 220.053 112.071 181.36 112.071 181.36H112.064Z" fill="#DD9077"/>
<path d="M100.069 171.077C100.069 171.077 97.2335 167.915 95.8193 168.633C94.4052 169.35 92.7211 171.219 92.7921 172.506C92.8632 173.792 93.4743 174.815 94.0357 174.623C94.5971 174.431 95.9686 172.903 95.9686 172.903L98.5907 175.106L98.6192 178.738L96.8853 180.28L95.1158 178.19L94.9737 176.407C94.9026 175.54 93.986 174.922 93.2043 175.305C92.8134 175.49 92.4866 175.902 92.4155 176.727C92.2165 179.079 92.9627 183.392 95.6204 184.707C98.271 186.021 103.039 187.514 103.039 187.514L112.64 184.145L112.007 171.98C112.007 171.98 114.899 166.984 114.729 165.293C114.558 163.609 113.492 158.57 113.492 158.57C113.492 158.57 112.092 157.995 111.766 159.551C111.446 161.1 111.822 165.286 111.822 165.286L109.264 168.668L107.289 155.636C107.203 155.053 106.621 154.662 106.052 154.818C105.271 155.031 104.361 155.692 104.368 157.625C104.382 161.015 105.498 168.306 105.1 168.405C104.702 168.505 104.553 168.292 103.999 166.615C103.558 165.3 101.455 158.798 100.694 156.453C100.524 155.934 99.8983 155.756 99.4719 156.097C98.9105 156.552 98.3207 157.391 98.3989 158.904C98.5339 161.662 100.673 168.519 100.787 169.159C100.9 169.798 100.083 171.056 100.083 171.056L100.069 171.077Z" fill="#DD9077"/>
<path d="M105.953 182.411C105.882 182.447 105.633 182.077 105.136 181.58C104.645 181.083 103.864 180.493 102.876 180.102C101.888 179.718 100.914 179.612 100.211 179.64C99.5075 179.661 99.074 179.768 99.0527 179.69C99.0313 179.64 99.4435 179.413 100.183 179.299C100.914 179.178 101.98 179.235 103.053 179.654C104.119 180.081 104.937 180.763 105.391 181.353C105.853 181.942 106.002 182.383 105.953 182.411Z" fill="#6F4439"/>
<path d="M99.2517 232.283L109.925 213.068C109.925 213.068 102.393 204.306 96.0113 198.72C88.9762 192.566 82.3745 193.27 72.9163 195.295C72.9163 195.295 77.7911 217.701 87.2352 224.274C88.9904 225.496 99.2588 232.29 99.2588 232.29" fill="#E94675"/>
<path d="M39.5528 238.629C39.5528 238.629 39.4178 238.387 39.2899 237.911C39.162 237.435 39.0341 236.731 38.9133 235.857C38.6788 234.109 38.494 231.693 38.2666 229.028C38.0534 226.363 37.8189 223.955 37.62 222.214C37.421 220.473 37.2718 219.399 37.3286 219.385C37.357 219.385 37.421 219.648 37.5205 220.124C37.6271 220.608 37.7479 221.304 37.8829 222.171C38.1529 223.905 38.423 226.321 38.6433 228.993C38.8635 231.665 39.0128 234.081 39.1762 235.822C39.2615 236.696 39.3468 237.392 39.432 237.875C39.5173 238.352 39.5884 238.614 39.5599 238.629H39.5528Z" fill="#263238"/>
<path d="M83.7815 206.686C83.7815 206.686 84.1155 206.921 84.684 207.39C85.2454 207.866 86.0555 208.562 87.0219 209.457C88.9193 211.255 91.6054 213.863 93.3606 217.544C94.2418 219.378 94.7037 221.275 94.9453 223.009C95.194 224.743 95.2295 226.32 95.2295 227.635C95.2295 228.957 95.1727 230.016 95.13 230.755C95.0874 231.487 95.0448 231.892 95.0234 231.892C94.995 231.892 94.9879 231.487 94.9879 230.748C94.9879 230.016 95.0021 228.95 94.9666 227.635C94.9311 226.327 94.8671 224.764 94.6042 223.052C94.3484 221.346 93.8793 219.491 93.0195 217.694C91.2998 214.084 88.6776 211.476 86.83 209.635C85.9134 208.761 85.1601 208.036 84.5774 207.482C84.0444 206.977 83.7531 206.686 83.7744 206.672L83.7815 206.686Z" fill="#263238"/>
<path d="M111.993 222.903C111.95 222.924 111.694 222.448 111.368 221.645C111.041 220.842 110.664 219.705 110.38 218.411C110.096 217.118 109.953 215.931 109.904 215.064C109.854 214.198 109.89 213.665 109.939 213.665C110.053 213.665 110.167 215.782 110.742 218.333C111.304 220.884 112.1 222.86 111.993 222.903Z" fill="#263238"/>
<path d="M28.1684 118.126L28.7038 111.198C25.6002 106.958 23.7206 101.745 23.6113 96.0185C23.3709 82.5223 33.6324 70.8401 47.0522 69.3101C62.5484 67.5507 76.2413 79.4733 76.5145 95.188C76.744 108.531 66.7229 120.115 53.4998 121.831C46.932 122.683 40.6702 121.066 35.5995 117.733L28.1684 118.126Z" fill="white"/>
<path d="M28.1683 118.126C28.1683 118.126 28.3213 118.126 28.6382 118.126C28.977 118.116 29.4469 118.094 30.048 118.072C31.3375 118.017 33.2062 117.941 35.6104 117.842C35.665 117.842 35.7088 117.788 35.7088 117.733C35.7088 117.711 35.6978 117.689 35.6869 117.667C35.6869 117.667 35.6869 117.667 35.6869 117.657L35.5558 117.81C38.2987 119.624 42.364 121.591 47.6095 122.093C50.2214 122.356 53.0845 122.203 56.057 121.558C59.0185 120.88 62.0566 119.635 64.887 117.744C67.7064 115.842 70.3073 113.296 72.3509 110.182C74.3945 107.078 75.9353 103.428 76.4708 99.4612C77.05 95.5052 76.7222 91.2978 75.4326 87.2872C74.165 83.2547 71.7936 79.4954 68.6353 76.4355C67.0726 74.8509 65.2367 73.5942 63.3898 72.4467C62.4281 71.944 61.4664 71.4304 60.472 71.0042L58.9639 70.436L58.2098 70.1518L57.434 69.9442C53.325 68.7749 49.063 68.6547 45.096 69.3869C41.1182 70.0972 37.501 71.8238 34.4629 74.0204C31.4249 76.2388 28.9879 78.9818 27.2176 81.9105C25.4581 84.8502 24.3544 87.9757 23.8298 90.97C23.7315 91.724 23.6441 92.4671 23.5457 93.1993C23.4692 93.9315 23.4911 94.6637 23.4583 95.374C23.4146 96.7947 23.5566 98.1607 23.7424 99.4612C24.5183 104.685 26.693 108.63 28.6273 111.242L28.6055 111.176C28.4634 113.405 28.3432 115.143 28.2667 116.356C28.2339 116.924 28.212 117.361 28.1902 117.678C28.1792 117.973 28.1683 118.116 28.1793 118.116C28.1793 118.116 28.2011 117.952 28.2339 117.646C28.2667 117.318 28.3104 116.881 28.365 116.301C28.4743 115.11 28.6273 113.395 28.8131 111.198C28.8131 111.176 28.8131 111.154 28.7912 111.132C26.9116 108.51 24.8024 104.586 24.0593 99.4174C23.8845 98.1279 23.7643 96.7838 23.808 95.374C23.8408 94.6746 23.8298 93.9534 23.9063 93.2321C24.0047 92.5109 24.103 91.7787 24.2014 91.0355C24.7369 88.074 25.8406 85.0141 27.5782 82.1182C29.3267 79.2331 31.7418 76.5448 34.7252 74.381C37.7086 72.2282 41.2712 70.5343 45.1726 69.8458C49.063 69.1355 53.2485 69.2557 57.281 70.4141L58.0459 70.6108L58.789 70.884L60.2643 71.4414C61.2369 71.8566 62.1768 72.3593 63.1275 72.8511C64.9416 73.9767 66.7447 75.2006 68.2747 76.7634C71.3783 79.7577 73.706 83.4514 74.9518 87.4074C76.2195 91.3525 76.5364 95.4833 75.99 99.3628C75.4654 103.253 73.9573 106.849 71.9575 109.908C69.9467 112.968 67.4004 115.493 64.6356 117.372C61.8599 119.241 58.8655 120.487 55.9586 121.164C53.0408 121.82 50.2104 121.984 47.6314 121.744C42.4405 121.285 38.3971 119.372 35.6541 117.613C35.6104 117.58 35.5448 117.591 35.5121 117.646C35.4902 117.689 35.4902 117.733 35.5121 117.766V117.777L35.5776 117.602C33.2062 117.755 31.3593 117.864 30.0917 117.941C29.4797 117.984 28.9989 118.017 28.6601 118.039C28.3323 118.061 28.1574 118.083 28.1574 118.083L28.1683 118.126Z" fill="#92A0BF"/>
<path d="M57.718 95.5924C57.718 97.4502 59.2261 98.9583 61.0839 98.9583C62.9417 98.9583 64.4498 97.4502 64.4498 95.5924C64.4498 93.7346 62.9417 92.2266 61.0839 92.2266C59.2261 92.2266 57.718 93.7346 57.718 95.5924Z" fill="#92A0BF"/>
<path d="M46.3856 95.5924C46.3856 97.4502 47.8937 98.9583 49.7515 98.9583C51.6093 98.9583 53.1174 97.4502 53.1174 95.5924C53.1174 93.7346 51.6093 92.2266 49.7515 92.2266C47.8937 92.2266 46.3856 93.7346 46.3856 95.5924Z" fill="#92A0BF"/>
<path d="M35.0531 95.5924C35.0531 97.4502 36.5612 98.9583 38.419 98.9583C40.2768 98.9583 41.7849 97.4502 41.7849 95.5924C41.7849 93.7346 40.2768 92.2266 38.419 92.2266C36.5612 92.2266 35.0531 93.7346 35.0531 95.5924Z" fill="#92A0BF"/>
<path d="M144.756 68.8754L144.006 59.1756C148.351 53.2394 150.982 45.9416 151.135 37.9247C151.472 19.0299 137.106 2.6748 118.318 0.532885C96.6236 -1.93032 77.4534 14.7614 77.0709 36.7619C76.7496 55.4425 90.7792 71.6599 109.292 74.0619C118.486 75.2553 127.253 72.991 134.352 68.3247L144.756 68.8754Z" fill="white"/>
<path d="M144.756 68.8755C144.756 68.8755 144.542 68.8755 144.098 68.8755C143.624 68.8602 142.966 68.8296 142.124 68.799C140.319 68.7225 137.703 68.6154 134.337 68.4777C134.26 68.4777 134.199 68.4012 134.199 68.3247C134.199 68.2941 134.214 68.2635 134.23 68.2329C134.23 68.2329 134.23 68.2329 134.23 68.2176L134.413 68.4318C130.573 70.9715 124.882 73.7254 117.538 74.4292C113.882 74.7964 109.873 74.5822 105.712 73.6795C101.565 72.7309 97.3122 70.9868 93.3497 68.34C89.4024 65.6779 85.7612 62.1131 82.9002 57.7528C80.0392 53.4078 77.8819 48.2978 77.1323 42.7441C76.3214 37.2057 76.7804 31.3154 78.5857 25.7005C80.3604 20.055 83.6804 14.792 88.102 10.5082C90.2898 8.28975 92.8601 6.53032 95.4457 4.92388C96.792 4.2201 98.1384 3.50103 99.5306 2.90435L101.642 2.10878L102.698 1.711L103.784 1.42031C109.536 -0.216731 115.503 -0.385025 121.057 0.640037C126.626 1.6345 131.69 4.05181 135.943 7.12699C140.197 10.2328 143.608 14.0729 146.087 18.1732C148.55 22.2887 150.095 26.6644 150.83 30.8564C150.967 31.9121 151.09 32.9524 151.227 33.9775C151.335 35.0026 151.304 36.0276 151.35 37.0221C151.411 39.011 151.212 40.9234 150.952 42.7441C149.866 50.0572 146.821 55.5803 144.113 59.2369L144.144 59.1451C144.343 62.2661 144.511 64.6987 144.618 66.397C144.664 67.1926 144.695 67.8045 144.725 68.2482C144.74 68.6613 144.756 68.8602 144.74 68.8602C144.74 68.8602 144.71 68.6307 144.664 68.2023C144.618 67.7433 144.557 67.1314 144.48 66.3205C144.327 64.6528 144.113 62.2508 143.853 59.1757C143.853 59.1451 143.853 59.1145 143.884 59.0839C146.515 55.412 149.468 49.9195 150.508 42.6829C150.753 40.8775 150.921 38.9957 150.86 37.0221C150.814 36.0429 150.83 35.0332 150.723 34.0234C150.585 33.0136 150.447 31.9886 150.309 30.9482C149.56 26.8021 148.015 22.5182 145.582 18.4639C143.134 14.4248 139.753 10.6612 135.576 7.63188C131.399 4.61789 126.412 2.24648 120.95 1.28261C115.503 0.28815 109.644 0.456443 103.998 2.07818L102.927 2.35357L101.887 2.73606L99.8213 3.51633C98.4597 4.09771 97.1439 4.80148 95.8129 5.48996C93.2732 7.0658 90.7488 8.77933 88.6068 10.9672C84.2618 15.1592 81.003 20.3304 79.2589 25.8688C77.4842 31.3919 77.0405 37.1751 77.8055 42.6064C78.5398 48.053 80.6511 53.0865 83.4509 57.3703C86.266 61.6542 89.8308 65.1883 93.7016 67.8198C97.5876 70.436 101.78 72.1802 105.849 73.1287C109.934 74.0467 113.897 74.2762 117.507 73.9396C124.775 73.297 130.435 70.6196 134.276 68.1564C134.337 68.1105 134.429 68.1258 134.475 68.2023C134.505 68.2635 134.505 68.3247 134.475 68.3706V68.3859L134.383 68.1411C137.703 68.3553 140.288 68.5083 142.063 68.6154C142.92 68.6766 143.593 68.7225 144.067 68.7531C144.526 68.7837 144.771 68.8143 144.771 68.8143L144.756 68.8755Z" fill="#6B6DD5"/>
<path d="M103.386 37.3279C103.386 39.9288 101.275 42.0402 98.6739 42.0402C96.073 42.0402 93.9617 39.9288 93.9617 37.3279C93.9617 34.727 96.073 32.6157 98.6739 32.6157C101.275 32.6157 103.386 34.727 103.386 37.3279Z" fill="#6B6DD5"/>
<path d="M119.252 37.3279C119.252 39.9288 117.14 42.0402 114.539 42.0402C111.938 42.0402 109.827 39.9288 109.827 37.3279C109.827 34.727 111.938 32.6157 114.539 32.6157C117.14 32.6157 119.252 34.727 119.252 37.3279Z" fill="#6B6DD5"/>
<path d="M135.117 37.3279C135.117 39.9288 133.006 42.0402 130.405 42.0402C127.804 42.0402 125.693 39.9288 125.693 37.3279C125.693 34.727 127.804 32.6157 130.405 32.6157C133.006 32.6157 135.117 34.727 135.117 37.3279Z" fill="#6B6DD5"/>
</svg>
