<svg width="249" height="249" viewBox="0 0 249 249" fill="none" xmlns="http://www.w3.org/2000/svg">
<path d="M181.648 70.5254H156.673V106.726H181.648V70.5254Z" fill="#E0E0E0"/>
<path d="M180.396 70.5254H155.422V106.726H180.396V70.5254Z" fill="#F5F5F5"/>
<path d="M177.294 74.4463H158.525V102.805H177.294V74.4463Z" fill="white"/>
<path d="M177.294 102.805C177.294 102.805 177.292 102.757 177.291 102.666C177.29 102.573 177.289 102.439 177.287 102.264C177.285 101.907 177.283 101.386 177.28 100.709C177.276 99.3496 177.27 97.3691 177.263 94.8671C177.255 89.8667 177.245 82.7857 177.232 74.4467L177.294 74.5089C171.56 74.5104 165.206 74.5124 158.527 74.5144H158.525L158.593 74.4467C158.588 85.1447 158.583 95.0081 158.579 102.805L158.525 102.751C164.241 102.763 168.926 102.773 172.186 102.779C173.817 102.785 175.09 102.79 175.96 102.793C176.393 102.796 176.724 102.798 176.951 102.799C177.175 102.801 177.294 102.805 177.294 102.805C177.294 102.805 177.183 102.809 176.963 102.811C176.738 102.812 176.41 102.814 175.982 102.817C175.115 102.82 173.846 102.825 172.22 102.831C168.952 102.838 164.255 102.847 158.525 102.859H158.471V102.805C158.467 95.0081 158.462 85.1442 158.457 74.4462V74.3779H158.525H158.527C165.205 74.3799 171.56 74.3819 177.294 74.3834H177.356V74.4457C177.343 82.8011 177.333 89.8966 177.325 94.907C177.318 97.403 177.312 99.379 177.308 100.735C177.304 101.406 177.302 101.924 177.3 102.277C177.299 102.449 177.298 102.581 177.297 102.672C177.297 102.761 177.294 102.805 177.294 102.805Z" fill="#E0E0E0"/>
<path d="M180.467 70.5254C180.481 70.5368 180.312 70.7843 180.021 71.1723C179.731 71.5602 179.32 72.0881 178.85 72.6583C178.38 73.229 177.94 73.7345 177.615 74.0935C177.29 74.4526 177.079 74.6662 177.066 74.6543C177.051 74.6418 177.236 74.4058 177.542 74.0308C177.877 73.6244 178.289 73.1249 178.745 72.5721C179.2 72.0194 179.612 71.5189 179.946 71.1125C180.256 70.74 180.452 70.5134 180.467 70.5254Z" fill="#E0E0E0"/>
<path d="M177.389 102.713C178.322 104.195 179.422 105.571 180.663 106.807L177.389 102.713Z" fill="white"/>
<path d="M180.663 106.807C180.651 106.82 180.428 106.627 180.092 106.288C179.757 105.95 179.312 105.463 178.857 104.895C178.403 104.326 178.026 103.785 177.77 103.384C177.514 102.982 177.374 102.722 177.389 102.713C177.406 102.702 177.574 102.944 177.85 103.33C178.125 103.716 178.512 104.245 178.963 104.81C179.415 105.375 179.846 105.868 180.162 106.222C180.479 106.576 180.677 106.793 180.663 106.807Z" fill="#E0E0E0"/>
<path d="M155.418 106.696C156.509 105.351 157.599 104.006 158.689 102.66L155.418 106.696Z" fill="white"/>
<path d="M158.69 102.66C158.719 102.684 158.01 103.606 157.107 104.721C156.204 105.836 155.448 106.72 155.418 106.696C155.389 106.673 156.098 105.75 157.001 104.636C157.904 103.521 158.66 102.637 158.69 102.66Z" fill="#E0E0E0"/>
<path d="M155.422 70.5254C155.451 70.502 156.162 71.3521 157.009 72.4237C157.857 73.4954 158.52 74.3829 158.491 74.4063C158.461 74.4297 157.751 73.5796 156.903 72.5079C156.056 71.4362 155.392 70.5483 155.422 70.5254Z" fill="#E0E0E0"/>
<path d="M171.447 80.2041H165.162V98.0479H171.447V80.2041Z" fill="#E0E0E0"/>
<path d="M131.968 171.822C129.678 172.488 127.826 174.291 126.742 176.416C125.657 178.541 125.275 180.964 125.243 183.349C125.18 187.963 127.181 192.884 129.502 196.873C133.758 194.017 135.381 188.297 136.022 185.344C137.035 180.675 136.032 171.624 131.968 171.822Z" fill="#F5F5F5"/>
<path d="M124.094 203.815C125.034 201.322 124.323 198.366 122.573 196.356C120.823 194.347 118.16 193.252 115.499 193.118C114.269 193.056 112.907 193.245 112.081 194.159C111.31 195.014 111.216 196.332 111.617 197.412C112.017 198.493 112.837 199.366 113.728 200.096C116.783 202.601 120.198 204.465 124.094 203.815Z" fill="#F5F5F5"/>
<path d="M127.289 214.914C127.351 214.906 127.339 213.747 127.151 211.866C127.057 210.924 126.81 209.797 126.392 208.619C125.969 207.447 125.531 206.147 124.865 204.847C123.563 202.242 121.701 200.265 120.124 199.199C119.338 198.657 118.637 198.328 118.15 198.121C117.652 197.936 117.37 197.858 117.358 197.89C117.32 197.976 118.427 198.375 119.908 199.495C121.386 200.606 123.136 202.547 124.404 205.082C125.047 206.334 125.5 207.626 125.943 208.778C126.379 209.933 126.649 210.994 126.789 211.916C127.067 213.763 127.209 214.924 127.289 214.914Z" fill="#E0E0E0"/>
<path d="M132.123 178.783C132.088 178.777 131.967 179.313 131.777 180.287C131.588 181.261 131.332 182.675 131.032 184.423C130.433 187.92 129.658 192.762 128.934 198.128C128.211 203.497 127.693 208.375 127.392 211.912C127.242 213.68 127.137 215.112 127.085 216.104C127.03 217.095 127.017 217.644 127.052 217.647C127.088 217.65 127.169 217.106 127.285 216.121C127.406 215.044 127.565 213.639 127.756 211.948C128.149 208.424 128.724 203.56 129.446 198.197C130.2 192.886 130.882 188.08 131.393 184.48C131.629 182.794 131.826 181.394 131.976 180.32C132.105 179.336 132.159 178.789 132.123 178.783Z" fill="#E0E0E0"/>
<path d="M129.653 206.299C131.951 201.172 136.871 197.307 142.396 196.288C143.802 196.029 145.535 196.079 146.307 197.283C147.082 198.488 146.401 200.092 145.55 201.245C142.011 206.043 135.379 208.311 129.642 206.686" fill="#F5F5F5"/>
<path d="M140.446 199.997C140.436 199.963 140.153 200.026 139.652 200.168C139.148 200.304 138.435 200.547 137.561 200.873C135.842 201.56 133.416 202.616 131.278 204.577C130.216 205.555 129.375 206.669 128.777 207.767C128.172 208.867 127.852 209.957 127.635 210.87C127.451 211.791 127.356 212.545 127.357 213.069C127.341 213.592 127.349 213.88 127.385 213.882C127.489 213.89 127.53 212.732 127.991 210.957C128.246 210.08 128.59 209.04 129.194 207.997C129.792 206.954 130.606 205.9 131.628 204.957C133.685 203.068 136.034 201.975 137.701 201.21C139.393 200.472 140.473 200.076 140.446 199.997Z" fill="#E0E0E0"/>
<path d="M226.884 84.5418C226.884 84.5418 221.664 83.001 219.553 95.0063C217.442 107.011 217.271 113.614 217.271 113.614C217.271 113.614 216.539 116.218 214.609 115.254C212.678 114.29 209.396 110.883 207.078 112.387C204.674 113.947 204.707 117.153 206.533 121.32C208.359 125.486 212.024 134.762 212.353 135.602C212.675 136.426 212.572 137.818 211.152 137.372C209.732 136.926 200.68 131.476 198.351 135.927C196.023 140.377 203.017 151.149 203.759 152.341C204.501 153.533 204.417 154.165 203.899 154.675C203.381 155.185 200.51 153.067 197.872 151.622C195.234 150.178 191.922 148.966 190.794 151.646C189.665 154.326 191.809 163.359 204.647 175.165L210.954 180.246L218.589 177.436C234.56 170.427 239.515 162.576 239.316 159.675C239.117 156.773 235.59 156.847 232.627 157.359C229.663 157.87 226.261 158.945 225.936 158.294C225.611 157.644 225.736 157.019 226.825 156.131C227.913 155.244 238.02 147.32 237.259 142.355C236.498 137.391 226.168 139.612 224.68 139.574C223.192 139.536 223.546 138.186 224.118 137.511C224.701 136.822 231.174 129.235 234.252 125.885C237.329 122.535 238.4 119.512 236.631 117.257C234.925 115.083 230.716 117.243 228.577 117.529C226.439 117.816 226.59 115.115 226.59 115.115C226.59 115.115 228.568 108.813 230.461 96.7722C232.354 84.7306 226.778 84.5179 226.778 84.5179" fill="#563189"/>
<path d="M224.975 95.2896C224.975 95.2896 224.971 95.3767 224.949 95.544C224.925 95.7228 224.89 95.9693 224.846 96.2865C224.747 96.9509 224.605 97.9095 224.423 99.1376C224.052 101.614 223.489 105.192 222.776 109.611C221.353 118.449 219.283 130.641 216.954 144.099C214.622 157.56 212.523 169.748 211.051 178.577C210.321 182.983 209.73 186.553 209.318 189.035C209.114 190.259 208.954 191.215 208.844 191.877C208.788 192.192 208.745 192.437 208.714 192.615C208.683 192.781 208.66 192.865 208.66 192.865C208.66 192.865 208.664 192.779 208.686 192.611C208.711 192.432 208.745 192.185 208.789 191.868C208.888 191.204 209.03 190.246 209.213 189.017C209.584 186.542 210.146 182.963 210.86 178.545C212.282 169.706 214.352 157.513 216.683 144.051C219.013 130.594 221.113 118.408 222.584 109.579C223.315 105.172 223.906 101.602 224.318 99.1207C224.522 97.8956 224.681 96.9399 224.792 96.2776C224.848 95.9623 224.891 95.7168 224.923 95.539C224.952 95.3737 224.975 95.2896 224.975 95.2896Z" fill="#E0E0E0"/>
<path d="M211.478 117.338C211.494 117.327 211.622 117.493 211.838 117.801C212.056 118.108 212.358 118.561 212.725 119.126C213.457 120.255 214.426 121.842 215.464 123.613C216.476 125.359 217.392 126.937 218.099 128.157C218.414 128.697 218.683 129.155 218.903 129.53C219.094 129.854 219.193 130.038 219.177 130.048C219.161 130.059 219.032 129.894 218.813 129.588C218.596 129.28 218.294 128.827 217.933 128.259C217.212 127.122 216.264 125.522 215.227 123.752C214.202 122.014 213.276 120.442 212.56 119.228C212.241 118.69 211.97 118.233 211.748 117.859C211.559 117.533 211.462 117.348 211.478 117.338Z" fill="#E0E0E0"/>
<path d="M219.93 129.969C219.889 129.905 223.07 127.76 227.036 125.178C231.002 122.595 234.25 120.553 234.291 120.617C234.333 120.681 231.152 122.825 227.185 125.408C223.22 127.99 219.971 130.032 219.93 129.969Z" fill="#E0E0E0"/>
<path d="M215.419 150.476C215.414 150.458 215.614 150.386 215.981 150.271C216.404 150.142 216.924 149.983 217.536 149.797C218.848 149.395 220.658 148.835 222.632 148.146C224.609 147.46 226.377 146.779 227.654 146.276C228.249 146.043 228.755 145.845 229.167 145.683C229.526 145.546 229.727 145.477 229.735 145.495C229.743 145.512 229.556 145.613 229.209 145.781C228.863 145.949 228.358 146.182 227.728 146.456C226.468 147.005 224.705 147.717 222.722 148.405C220.741 149.097 218.917 149.63 217.589 149.984C216.924 150.158 216.385 150.293 216.009 150.374C215.633 150.457 215.424 150.495 215.419 150.476Z" fill="#E0E0E0"/>
<path d="M205.26 140.735C205.273 140.721 205.428 140.842 205.699 141.072C205.969 141.302 206.354 141.642 206.826 142.066C207.77 142.914 209.061 144.099 210.475 145.421C211.89 146.743 213.159 147.951 214.069 148.835C214.524 149.278 214.888 149.639 215.137 149.893C215.385 150.148 215.515 150.295 215.503 150.309C215.49 150.322 215.334 150.201 215.064 149.971C214.793 149.741 214.408 149.402 213.936 148.977C212.993 148.129 211.702 146.944 210.287 145.622C208.873 144.3 207.603 143.092 206.693 142.208C206.239 141.766 205.874 141.405 205.626 141.15C205.378 140.896 205.247 140.749 205.26 140.735Z" fill="#E0E0E0"/>
<path d="M198.977 158.334C198.99 158.32 199.187 158.476 199.534 158.772C199.916 159.107 200.402 159.533 200.982 160.041C202.197 161.121 203.863 162.628 205.692 164.304C207.521 165.981 209.166 167.511 210.348 168.628C210.904 169.161 211.37 169.609 211.737 169.961C212.061 170.28 212.234 170.463 212.221 170.477C212.208 170.491 212.011 170.335 211.665 170.039C211.282 169.704 210.796 169.278 210.216 168.77C209.001 167.69 207.335 166.183 205.506 164.506C203.677 162.83 202.032 161.3 200.85 160.183C200.293 159.65 199.828 159.202 199.46 158.85C199.138 158.531 198.964 158.348 198.977 158.334Z" fill="#E0E0E0"/>
<path d="M211.987 170.099C211.982 170.081 212.233 169.983 212.693 169.821C213.202 169.646 213.857 169.421 214.642 169.15C216.288 168.582 218.559 167.792 221.041 166.848C223.525 165.909 225.751 165.001 227.359 164.333C228.126 164.016 228.766 163.751 229.264 163.545C229.715 163.361 229.968 163.267 229.976 163.284C229.984 163.302 229.746 163.428 229.308 163.642C228.87 163.856 228.231 164.155 227.436 164.511C225.846 165.225 223.627 166.164 221.138 167.105C218.652 168.05 216.367 168.813 214.704 169.334C213.872 169.592 213.196 169.794 212.725 169.923C212.255 170.053 211.993 170.117 211.987 170.099Z" fill="#E0E0E0"/>
<path d="M51.7133 190.906C63.2101 184.346 66.9451 170.559 67.6717 157.924C67.7932 155.815 68.227 153.62 67.3963 151.684C66.5647 149.748 64.3471 148.273 62.3835 148.986C60.7545 149.578 59.9079 151.332 58.897 152.754C57.5519 154.646 55.6689 156.141 53.5345 157.012C52.1321 157.584 50.4364 157.857 49.182 157.007C47.4604 155.84 47.4758 153.315 47.6805 151.225C48.0625 147.33 48.4434 143.434 48.8249 139.54C49.0296 137.45 49.2313 135.315 48.7627 133.271C48.294 131.227 47.0261 129.252 45.0879 128.513C43.1492 127.774 40.5845 128.695 39.9769 130.703C39.724 131.538 39.8166 132.439 39.6791 133.301C39.5417 134.164 39.0492 135.087 38.2026 135.253C37.3455 135.422 36.5632 134.753 35.9939 134.083C34.0288 131.774 32.8137 128.92 31.6927 126.09C30.5717 123.26 29.497 120.369 27.7496 117.886C26.0021 115.404 23.4608 113.331 20.4817 112.887C17.5022 112.443 14.1422 113.999 13.1163 116.869C12.0875 119.748 13.5331 122.897 15.186 125.454C17.6382 129.249 20.6361 132.681 24.0554 135.609C24.6714 136.137 25.3397 136.708 25.521 137.505C25.8477 138.941 24.3995 140.205 22.9812 140.537C21.3752 140.913 19.6984 140.597 18.0505 140.639C16.4026 140.681 14.57 141.239 13.812 142.723C12.7598 144.782 14.3419 147.186 15.9664 148.814C19.2188 152.075 23.028 154.765 27.1744 156.729C28.6609 157.433 30.2346 158.075 31.376 159.27C32.5174 160.464 33.0936 162.412 32.2096 163.816C31.3247 165.222 29.3576 165.517 27.774 165.07C26.1908 164.624 24.8283 163.617 23.3457 162.897C20.5714 161.549 16.8424 161.407 14.7742 163.722C13.4151 165.244 13.0999 167.507 13.5336 169.509C13.9669 171.511 15.054 173.301 16.2303 174.968C20.3408 180.794 25.8382 185.684 32.2933 188.606C38.7469 191.53 44.8663 192.721 51.7133 190.906Z" fill="#563189"/>
<path d="M51.023 200.258C51.024 195.227 50.4697 189.234 49.1854 182.711C47.914 176.185 45.927 169.147 43.5959 161.857C43.0062 160.037 42.4236 158.238 41.8499 156.466C41.2727 154.698 40.7005 152.944 40.0347 151.264C38.7174 147.896 37.1951 144.759 35.6562 141.826C34.1184 138.892 32.5522 136.163 31.0692 133.623C29.5796 131.085 28.1474 128.744 26.7505 126.668C23.9692 122.502 21.3333 119.413 19.4374 117.367C18.4917 116.34 17.7317 115.568 17.2093 115.051C16.9578 114.806 16.7606 114.613 16.6117 114.468C16.4753 114.338 16.4036 114.274 16.3991 114.279C16.3941 114.284 16.4568 114.357 16.5838 114.496C16.7258 114.648 16.9145 114.849 17.154 115.106C17.6575 115.641 18.3995 116.429 19.3278 117.47C21.1869 119.545 23.7809 122.649 26.5249 126.822C27.9034 128.903 29.3192 131.245 30.7938 133.787C32.2639 136.333 33.8176 139.064 35.3435 141.995C36.8694 144.925 38.3788 148.054 39.6836 151.404C40.3429 153.077 40.9086 154.815 41.4858 156.588C42.059 158.36 42.6402 160.158 43.2293 161.977C45.558 169.261 47.5505 176.279 48.8378 182.782C50.1366 189.281 50.7168 195.246 50.7506 200.26" fill="#E0E0E0"/>
<path d="M39.9267 151.239C39.9521 151.245 40.0522 150.934 40.2125 150.365C40.3754 149.797 40.5835 148.969 40.8261 147.94C41.3126 145.886 41.8873 143.025 42.5093 139.868C43.1313 136.71 43.7453 133.866 44.2618 131.824C44.5172 130.803 44.7319 129.977 44.8878 129.409C45.0406 128.84 45.1133 128.521 45.0879 128.512C45.0626 128.504 44.942 128.808 44.7448 129.364C44.5441 129.92 44.2887 130.736 43.9993 131.752C43.4132 133.783 42.7543 136.63 42.1318 139.792C41.5263 142.908 40.9785 145.727 40.5601 147.881C40.3649 148.853 40.1996 149.672 40.0671 150.329C39.9521 150.908 39.9003 151.232 39.9267 151.239Z" fill="#E0E0E0"/>
<path d="M13.5022 143.751C13.4992 143.778 13.8777 143.857 14.563 143.978C15.2472 144.102 16.2382 144.278 17.4553 144.533C19.8935 145.025 23.2376 145.822 26.8885 146.862C30.5388 147.909 33.8017 148.997 36.1388 149.853C37.3111 150.272 38.2503 150.637 38.9012 150.886C39.5511 151.137 39.9156 151.264 39.9266 151.239C39.9371 151.214 39.5919 151.04 38.9585 150.745C38.324 150.453 37.3977 150.048 36.2344 149.593C33.9152 148.67 30.6543 147.536 26.9935 146.485C23.3317 145.442 19.9648 144.684 17.5061 144.261C16.2786 144.04 15.2776 143.906 14.5844 143.828C13.8907 143.753 13.5062 143.724 13.5022 143.751Z" fill="#E0E0E0"/>
<path d="M48.9001 182.187C48.9116 182.194 48.9853 182.087 49.1143 181.876C49.2627 181.625 49.444 181.318 49.6631 180.946C50.1362 180.136 50.7901 178.946 51.5784 177.465C53.1575 174.504 55.2103 170.345 57.4135 165.726C59.6181 161.104 61.629 156.932 63.1444 153.943C63.8855 152.489 64.496 151.295 64.9492 150.406C65.1434 150.02 65.3038 149.703 65.4352 149.441C65.5423 149.219 65.5931 149.099 65.5817 149.092C65.5697 149.086 65.4965 149.193 65.367 149.403C65.2186 149.655 65.0378 149.961 64.8182 150.333C64.3451 151.143 63.6912 152.333 62.9029 153.814C61.3237 156.775 59.271 160.934 57.0668 165.555C54.8632 170.175 52.8518 174.347 51.3369 177.338C50.5948 178.79 49.9853 179.985 49.5321 180.873C49.3374 181.259 49.1775 181.578 49.0461 181.838C48.9395 182.061 48.8887 182.18 48.9001 182.187Z" fill="#E0E0E0"/>
<path d="M14.2299 167.399C14.2254 167.412 14.3429 167.473 14.571 167.578C14.8419 167.697 15.1741 167.844 15.5769 168.021C16.5067 168.419 17.7622 168.957 19.289 169.611C22.423 170.955 26.7307 172.86 31.4871 174.971C36.2449 177.084 40.5746 178.952 43.7374 180.231C45.3185 180.871 46.6033 181.376 47.4978 181.706C47.9116 181.857 48.2532 181.98 48.5306 182.081C48.7682 182.163 48.8956 182.199 48.9006 182.187C48.9051 182.175 48.7876 182.113 48.5595 182.008C48.2896 181.889 47.9569 181.743 47.5535 181.565C46.6238 181.167 45.3693 180.63 43.8419 179.975C40.7075 178.632 36.3998 176.726 31.6419 174.614C26.885 172.501 22.5564 170.634 19.3936 169.355C17.8125 168.716 16.5276 168.211 15.6322 167.88C15.2184 167.73 14.8778 167.606 14.5999 167.505C14.3623 167.423 14.2353 167.387 14.2299 167.399Z" fill="#E0E0E0"/>
<path d="M87.0693 40.6885V81.7909H28.0354L25.9084 40.9763L87.0693 40.6885Z" fill="#E0E0E0"/>
<path d="M25.9082 40.9762L25.9082 81.7046H84.9421V40.9762L25.9082 40.9762Z" fill="white"/>
<path d="M85.2227 81.9845H25.6285V40.6958H85.2227V81.9845ZM26.1883 81.4242H84.6625V41.2561H26.1883V81.4242Z" fill="#E0E0E0"/>
<path d="M78.5485 46.0356H32.3022V76.6437H78.5485V46.0356Z" fill="white"/>
<path d="M78.5486 46.0358C78.5486 46.0358 78.4689 46.0413 78.3205 46.0438C78.1636 46.0458 77.9465 46.0483 77.6631 46.0518C77.077 46.0552 76.2264 46.0607 75.1233 46.0682C72.9022 46.0767 69.6722 46.0886 65.5931 46.104C57.4373 46.12 45.8937 46.1429 32.3023 46.1698L32.4363 46.0358C32.4397 55.3873 32.4437 65.7491 32.4482 76.6399V76.6434L32.3023 76.4975C49.7477 76.5084 65.8316 76.5189 78.5486 76.5269L78.4325 76.6429C78.4579 67.3283 78.4788 59.691 78.4938 54.3728C78.5067 51.7145 78.5167 49.6379 78.5232 48.2146C78.5286 47.5114 78.5331 46.9711 78.5361 46.5961C78.5406 46.231 78.5486 46.0358 78.5486 46.0358C78.5486 46.0358 78.557 46.2141 78.561 46.5732C78.564 46.9432 78.5685 47.4755 78.574 48.1697C78.5809 49.5871 78.5909 51.6553 78.6033 54.3016C78.6178 59.6372 78.6387 67.2989 78.6646 76.6439L78.6651 76.7599H78.5486C65.8316 76.7679 49.7477 76.7784 32.3023 76.7893H32.1564V76.6434V76.6399C32.1609 65.7491 32.1648 55.3873 32.1683 46.0358V45.9019L32.3023 45.9024C45.9296 45.9292 57.5036 45.9522 65.6807 45.9681C69.7469 45.9835 72.9665 45.9955 75.1806 46.0039C76.2722 46.0109 77.1138 46.0164 77.6935 46.0204C77.9704 46.0239 78.183 46.0264 78.3359 46.0284C78.4793 46.0308 78.5486 46.0358 78.5486 46.0358Z" fill="#E0E0E0"/>
<path d="M25.9084 40.8616C25.9333 40.8297 26.3192 41.0832 26.9233 41.5189C27.5274 41.9552 28.3496 42.5737 29.2375 43.2838C30.1254 43.995 30.9068 44.6673 31.4566 45.1708C32.0064 45.6742 32.3281 46.0064 32.3022 46.0358C32.2474 46.0975 30.8281 44.9272 29.0552 43.5114C27.2814 42.0976 25.8561 40.9283 25.9084 40.8616Z" fill="#E0E0E0"/>
<path d="M84.9424 40.9763C84.9922 41.0395 83.6012 42.2233 81.8363 43.6207C80.0704 45.018 78.5988 46.0997 78.5485 46.0365C78.4987 45.9732 79.8892 44.7895 81.6551 43.3921C83.4205 41.9947 84.8926 40.913 84.9424 40.9763Z" fill="#E0E0E0"/>
<path d="M84.8953 81.7096C82.7011 79.9312 80.5074 78.1529 78.3132 76.375L84.8953 81.7096Z" fill="white"/>
<path d="M78.3134 76.3755C78.3642 76.3128 79.8787 77.4567 81.6964 78.9292C83.5141 80.4028 84.9463 81.6473 84.8955 81.7101C84.8447 81.7728 83.3303 80.6294 81.5126 79.1558C79.6954 77.6828 78.2626 76.4378 78.3134 76.3755Z" fill="#E0E0E0"/>
<path d="M25.9084 81.7044C25.8586 81.6411 27.2346 80.4693 28.9821 79.0874C30.73 77.7049 32.1872 76.6357 32.237 76.699C32.2868 76.7622 30.9108 77.9335 29.1628 79.3159C27.4154 80.6984 25.9582 81.7676 25.9084 81.7044Z" fill="#E0E0E0"/>
<path d="M41.6918 55.5724V65.8213H70.7909V55.5724H41.6918Z" fill="#E0E0E0"/>
<path d="M223.386 31.1357H191.822V76.8865H223.386V31.1357Z" fill="#E0E0E0"/>
<path d="M221.805 31.1357H190.241V76.8865H221.805V31.1357Z" fill="#F5F5F5"/>
<path d="M217.883 36.0908H194.162V71.9314H217.883V36.0908Z" fill="white"/>
<path d="M217.883 71.9316C217.883 71.9316 217.88 71.8708 217.879 71.7563C217.878 71.6378 217.876 71.469 217.874 71.2483C217.872 70.7981 217.869 70.1383 217.865 69.2822C217.86 67.5646 217.853 65.0612 217.844 61.8994C217.834 55.5793 217.821 46.6302 217.805 36.091L217.884 36.1697C210.636 36.1717 202.606 36.1742 194.166 36.1767H194.163L194.248 36.091C194.242 49.6117 194.236 62.0777 194.231 71.9316L194.163 71.8634C201.387 71.8783 207.308 71.8908 211.428 71.8992C213.489 71.9067 215.099 71.9127 216.199 71.9167C216.745 71.9201 217.164 71.9226 217.451 71.9241C217.734 71.9266 217.883 71.9316 217.883 71.9316C217.883 71.9316 217.744 71.9366 217.465 71.9391C217.181 71.9406 216.766 71.9435 216.225 71.9465C215.129 71.9505 213.525 71.9565 211.471 71.964C207.34 71.9724 201.404 71.9849 194.163 71.9998H194.094V71.9311C194.089 62.0772 194.083 49.6112 194.077 36.0905V36.0049H194.163H194.166C202.607 36.0074 210.637 36.0099 217.884 36.0119H217.963V36.0905C217.947 46.6506 217.934 55.6181 217.924 61.9507C217.915 65.105 217.908 67.6025 217.903 69.3156C217.899 70.1647 217.895 70.8191 217.893 71.2658C217.891 71.4829 217.89 71.6487 217.889 71.7653C217.886 71.8773 217.883 71.9316 217.883 71.9316Z" fill="#E0E0E0"/>
<path d="M221.893 31.1358C221.912 31.1503 221.697 31.463 221.33 31.953C220.964 32.4436 220.444 33.1104 219.849 33.8315C219.255 34.5526 218.7 35.1915 218.289 35.6452C217.878 36.0989 217.612 36.3693 217.595 36.3539C217.577 36.3379 217.81 36.0396 218.198 35.566C218.621 35.0526 219.141 34.4211 219.717 33.7224C220.293 33.0237 220.813 32.3918 221.236 31.8778C221.626 31.4072 221.874 31.1209 221.893 31.1358Z" fill="#E0E0E0"/>
<path d="M218.004 71.8154C219.182 73.6889 220.573 75.4284 222.141 76.9896L218.004 71.8154Z" fill="white"/>
<path d="M222.141 76.9901C222.126 77.006 221.844 76.7615 221.42 76.3337C220.996 75.9064 220.434 75.2914 219.86 74.5733C219.285 73.8547 218.809 73.1709 218.486 72.6635C218.162 72.1555 217.986 71.8273 218.004 71.8154C218.025 71.8019 218.238 72.1072 218.586 72.5952C218.934 73.0838 219.423 73.7516 219.994 74.4662C220.565 75.1799 221.109 75.8039 221.508 76.2506C221.908 76.6978 222.159 76.9722 222.141 76.9901Z" fill="#E0E0E0"/>
<path d="M190.236 76.85C191.614 75.1499 192.992 73.4492 194.37 71.749L190.236 76.85Z" fill="white"/>
<path d="M194.37 71.7491C194.407 71.779 193.511 72.9453 192.37 74.3537C191.228 75.7625 190.273 76.88 190.236 76.8501C190.199 76.8203 191.095 75.6544 192.236 74.2456C193.378 72.8373 194.334 71.7192 194.37 71.7491Z" fill="#E0E0E0"/>
<path d="M190.241 31.1358C190.278 31.1065 191.177 32.1806 192.248 33.5347C193.319 34.8893 194.157 36.0108 194.12 36.0401C194.082 36.0695 193.184 34.9958 192.113 33.6408C191.042 32.2872 190.203 31.1652 190.241 31.1358Z" fill="#E0E0E0"/>
<path d="M210.493 43.3682H202.55V65.9196H210.493V43.3682Z" fill="#E0E0E0"/>
<path d="M230.039 217.647C230.039 217.719 181.528 217.777 121.701 217.777C61.8526 217.777 13.3524 217.718 13.3524 217.647C13.3524 217.575 61.8526 217.518 121.701 217.518C181.528 217.518 230.039 217.575 230.039 217.647Z" fill="#263238"/>
<path d="M169.172 131.473C169.946 134.46 168.914 137.842 166.604 139.887C165.087 141.23 163.107 142.009 161.723 143.489C159.943 145.394 159.43 148.31 160.209 150.799C160.988 153.287 162.949 155.321 165.302 156.446C168.51 157.981 172.462 157.846 175.558 156.096C179.409 153.92 181.651 149.556 182.219 145.168C182.787 140.781 181.894 136.338 180.737 132.068" fill="#263238"/>
<path d="M217.721 208.834C221.707 208.182 225.442 209.399 229.385 210.273C230.448 210.508 231.56 210.713 232.615 210.444C234.325 210.009 235.54 208.345 235.804 206.601C236.033 205.091 235.639 203.51 234.797 202.236C234.44 201.696 233.995 201.2 233.433 200.881C232.856 200.553 232.187 200.427 231.527 200.363C229.126 200.131 226.686 200.665 224.502 201.687C222.318 202.71 220.38 204.207 218.675 205.913C217.84 206.748 218.091 207.713 217.721 208.834Z" fill="#263238"/>
<path d="M136.93 144.536C136.294 140.755 136.373 136.855 137.161 133.102C137.545 131.276 138.107 129.458 139.13 127.897C139.502 127.328 139.961 126.777 140.591 126.525C141.462 126.178 142.499 126.499 143.186 127.137C144.084 127.97 144.455 129.257 144.417 130.481C144.379 131.705 143.977 132.888 143.53 134.028C141.988 137.963 139.561 141.229 136.93 144.536Z" fill="#263238"/>
<path d="M214.132 158.93C215.039 159.573 235.075 202.698 235.075 202.698C233.467 202.007 231.684 201.831 229.972 202.194L228.887 202.484C226.942 203.004 225.098 203.844 223.431 204.972L217.722 208.835C217.261 208.573 216.957 208.104 216.908 207.577L216.893 207.411L201.37 180.77L214.132 158.93Z" fill="#E94675"/>
<path d="M138.987 90.2974L144.323 120.641C146.042 124.724 166.08 149.467 166.08 149.467L159.453 170.752L133.141 134.771C130.698 132.158 129.368 128.695 129.435 125.118L130.463 92.6987L138.987 90.2974Z" fill="#FFBE9D"/>
<path d="M167.395 144.71L181.136 145.749L193.118 147.608C193.118 147.608 214.131 153.131 214.131 155.432C214.131 156.198 208.391 174.47 205.192 185.417C203.811 190.142 203.258 193.502 203.258 193.502L214.131 217.648H162.432V195.508C162.432 195.508 158.962 166.462 159.56 162.495C160.158 158.528 167.395 144.71 167.395 144.71Z" fill="#E94675"/>
<path d="M132.485 78.0372C132.564 74.9471 132.879 71.863 133.428 68.8212C133.506 68.3899 133.682 67.8655 134.116 67.8082C134.654 67.7375 134.928 68.4287 134.997 68.9661C135.474 72.6259 135.32 76.3674 134.546 79.9759" fill="#EB996E"/>
<path d="M138.595 142.288C144.49 137.018 144.69 127.89 144.186 120.627C144.149 120.091 144.109 119.507 144.417 119.066C144.978 118.263 146.349 118.561 146.897 119.373C147.446 120.185 147.415 121.243 147.364 122.221C147.666 121.391 148.962 121.396 149.57 122.037C150.177 122.678 150.28 123.632 150.351 124.513C150.417 125.324 150.482 126.135 150.547 126.946L167.769 143.36C167.769 143.36 168.243 141.886 169.508 142.728C170.773 143.57 171.59 145.404 171.59 145.404L159.453 171.896L136.928 144.491C136.928 144.491 137.635 143.146 138.595 142.288Z" fill="#E94675"/>
<path d="M161.967 160.619C160.223 162.944 158.769 165.525 158.015 168.332C157.26 171.139 157.237 174.19 158.271 176.907C159.728 180.736 163.345 183.657 167.396 184.275" fill="#E94675"/>
<path d="M217.721 208.834L217.067 217.647H229.832L232.826 202.083C228.937 201.866 225.102 203.068 222.034 205.465L217.721 208.834Z" fill="#FFBE9D"/>
<path d="M144.594 140.339C144.578 140.331 144.678 140.082 144.874 139.639C145.074 139.2 145.341 138.553 145.646 137.747C145.954 136.941 146.272 135.964 146.575 134.866C146.866 133.764 147.134 132.539 147.328 131.239C147.513 129.937 147.606 128.686 147.642 127.547C147.665 126.409 147.639 125.381 147.573 124.521C147.512 123.661 147.44 122.965 147.374 122.487C147.313 122.008 147.288 121.74 147.305 121.737C147.323 121.734 147.382 121.995 147.474 122.471C147.571 122.946 147.67 123.642 147.756 124.506C147.846 125.369 147.891 126.404 147.881 127.552C147.857 128.701 147.771 129.963 147.584 131.277C147.388 132.588 147.11 133.822 146.805 134.929C146.487 136.033 146.148 137.011 145.815 137.813C145.487 138.617 145.193 139.255 144.964 139.683C144.741 140.113 144.61 140.347 144.594 140.339Z" fill="#263238"/>
<path d="M148.346 135.717C148.31 135.697 148.55 135.23 148.879 134.453C149.208 133.678 149.606 132.581 149.896 131.33C150.184 130.077 150.307 128.918 150.352 128.076C150.397 127.234 150.387 126.709 150.428 126.707C150.459 126.705 150.534 127.228 150.535 128.081C150.538 128.933 150.442 130.116 150.149 131.388C149.854 132.659 149.422 133.764 149.046 134.529C148.67 135.296 148.373 135.732 148.346 135.717Z" fill="#263238"/>
<path d="M168.575 149.487C168.536 149.464 168.743 149.14 168.863 148.554C168.991 147.972 168.983 147.129 168.734 146.248C168.483 145.365 168.11 144.606 167.868 144.045C167.62 143.485 167.491 143.126 167.524 143.111C167.557 143.097 167.743 143.426 168.033 143.965C168.317 144.506 168.722 145.261 168.983 146.178C169.244 147.097 169.223 147.995 169.041 148.597C168.866 149.206 168.594 149.504 168.575 149.487Z" fill="#263238"/>
<path d="M165.579 184.567C165.574 184.575 165.499 184.533 165.362 184.446C165.203 184.341 165.008 184.212 164.772 184.057C164.265 183.711 163.533 183.206 162.668 182.526C161.807 181.845 160.805 180.983 159.873 179.853C158.947 178.727 158.114 177.294 157.71 175.644C157.293 173.999 157.261 172.364 157.424 170.914C157.587 169.46 157.931 168.185 158.276 167.141C158.625 166.096 158.975 165.277 159.226 164.717C159.353 164.438 159.455 164.222 159.529 164.078C159.602 163.934 159.644 163.86 159.653 163.863C159.67 163.871 159.543 164.186 159.319 164.756C159.097 165.327 158.775 166.153 158.451 167.197C158.131 168.24 157.81 169.507 157.662 170.939C157.514 172.368 157.554 173.973 157.962 175.579C158.357 177.191 159.159 178.586 160.059 179.702C160.964 180.82 161.942 181.688 162.784 182.384C163.628 183.078 164.342 183.605 164.832 183.975C165.056 184.145 165.241 184.287 165.393 184.403C165.519 184.504 165.584 184.56 165.579 184.567Z" fill="#263238"/>
<path d="M193.791 189.494C193.794 189.503 193.718 189.53 193.572 189.574C193.424 189.612 193.21 189.687 192.925 189.742C192.36 189.873 191.525 190.004 190.484 190.035C188.42 190.111 185.449 189.634 182.735 187.92C180.022 186.202 178.318 183.721 177.502 181.823C177.084 180.869 176.844 180.059 176.721 179.492C176.649 179.211 176.624 178.986 176.596 178.836C176.572 178.685 176.564 178.605 176.573 178.604C176.595 178.599 176.665 178.912 176.818 179.467C176.971 180.022 177.235 180.816 177.669 181.747C178.517 183.601 180.214 186.016 182.873 187.701C185.533 189.381 188.443 189.88 190.482 189.851C191.509 189.844 192.339 189.743 192.906 189.643C193.473 189.544 193.786 189.472 193.791 189.494Z" fill="#263238"/>
<path d="M201.715 199.172C201.646 199.154 202.305 196.402 203.187 193.025C204.069 189.647 204.84 186.924 204.91 186.942C204.979 186.96 204.32 189.712 203.438 193.09C202.556 196.467 201.785 199.191 201.715 199.172Z" fill="#263238"/>
<path d="M208.684 193.327C208.622 193.363 206.62 190.09 204.213 186.018C201.805 181.943 199.904 178.612 199.965 178.575C200.027 178.539 202.029 181.811 204.436 185.886C206.844 189.958 208.746 193.29 208.684 193.327Z" fill="#263238"/>
<path d="M227.779 201.391C227.784 201.44 227.055 201.501 225.919 201.788C225.35 201.927 224.687 202.145 223.97 202.434C223.258 202.734 222.496 203.113 221.74 203.586C220.989 204.067 220.319 204.593 219.742 205.106C219.174 205.63 218.692 206.136 218.323 206.59C217.576 207.493 217.208 208.126 217.166 208.1C217.151 208.091 217.233 207.928 217.396 207.64C217.554 207.348 217.82 206.948 218.18 206.475C218.536 206 219.011 205.473 219.581 204.931C220.159 204.398 220.837 203.856 221.602 203.367C222.372 202.886 223.152 202.506 223.881 202.212C224.615 201.931 225.296 201.728 225.877 201.609C226.458 201.487 226.934 201.419 227.265 201.401C227.595 201.377 227.778 201.373 227.779 201.391Z" fill="#263238"/>
<path d="M230.218 198.392C230.215 198.445 229.417 198.35 228.14 198.459C227.501 198.507 226.748 198.637 225.93 198.847C225.115 199.072 224.238 199.386 223.364 199.818C222.494 200.26 221.717 200.775 221.049 201.292C220.392 201.823 219.837 202.348 219.416 202.831C218.564 203.788 218.163 204.484 218.119 204.456C218.103 204.447 218.197 204.271 218.382 203.958C218.471 203.8 218.588 203.611 218.744 203.405C218.896 203.198 219.059 202.951 219.277 202.711C219.687 202.206 220.239 201.657 220.9 201.105C221.572 200.568 222.361 200.036 223.248 199.585C224.14 199.145 225.038 198.831 225.87 198.614C226.708 198.415 227.477 198.301 228.127 198.275C228.451 198.244 228.746 198.262 229.003 198.263C229.261 198.261 229.482 198.281 229.663 198.304C230.023 198.345 230.22 198.374 230.218 198.392Z" fill="#263238"/>
<g opacity="0.3">
<path d="M177.106 179.664C175.932 181.886 176.911 184.595 177.983 186.869C178.813 188.631 179.739 190.423 181.251 191.651C182.737 192.858 184.735 193.413 186.631 193.146C188.527 192.879 190.293 191.792 191.387 190.221C185.059 190.247 178.945 185.921 176.864 179.946" fill="black"/>
</g>
<g opacity="0.3">
<path d="M199.965 178.576C199.073 180.714 199.746 183.638 200.685 185.756C201.624 187.874 202.614 190.241 201.862 192.432C201.721 192.842 201.518 193.256 201.571 193.686C201.623 194.116 202.088 194.526 202.473 194.327C202.696 194.211 202.794 193.95 202.874 193.712C203.583 191.581 204.292 189.451 205.001 187.321" fill="black"/>
</g>
<path d="M152.858 150.444C152.787 150.433 153.015 148.659 153.368 146.481C153.72 144.304 154.062 142.548 154.133 142.559C154.204 142.571 153.976 144.345 153.623 146.523C153.271 148.7 152.929 150.456 152.858 150.444Z" fill="#FAFAFA"/>
<path d="M147.61 149.343C147.546 149.386 146.688 148.188 145.506 146.816C144.328 145.439 143.275 144.409 143.326 144.353C143.37 144.302 144.513 145.255 145.703 146.646C146.898 148.033 147.666 149.307 147.61 149.343Z" fill="#FAFAFA"/>
<path d="M152.112 136.517C152.14 136.538 151.929 136.882 151.55 137.413C151.171 137.943 150.622 138.658 149.978 139.416C149.334 140.174 148.718 140.831 148.256 141.291C147.793 141.751 147.488 142.015 147.463 141.991C147.41 141.938 148.5 140.758 149.781 139.248C151.064 137.741 152.052 136.473 152.112 136.517Z" fill="#FAFAFA"/>
<path d="M150.354 130.249C150.282 130.278 150 129.644 149.448 129.013C148.903 128.376 148.316 128.005 148.355 127.939C148.381 127.877 149.062 128.166 149.644 128.844C150.231 129.517 150.418 130.233 150.354 130.249Z" fill="#FAFAFA"/>
<path d="M145.814 134.11C145.826 134.181 145.246 134.331 144.52 134.447C143.794 134.562 143.196 134.598 143.185 134.527C143.174 134.456 143.753 134.306 144.48 134.19C145.205 134.075 145.803 134.039 145.814 134.11Z" fill="#FAFAFA"/>
<path d="M157.272 139.644C157.192 139.633 157.387 138.582 157.107 137.327C156.843 136.069 156.229 135.193 156.297 135.149C156.34 135.101 157.08 135.95 157.36 137.272C157.653 138.591 157.33 139.671 157.272 139.644Z" fill="#FAFAFA"/>
<path d="M163.394 146.227C163.323 146.265 162.801 145.21 161.792 144.204C160.793 143.187 159.742 142.657 159.781 142.587C159.798 142.526 160.938 142.967 161.975 144.022C163.022 145.067 163.455 146.21 163.394 146.227Z" fill="#FAFAFA"/>
<path d="M153.568 157.653C153.593 157.713 152.579 158.081 151.269 158.031C149.96 157.991 148.973 157.554 149.002 157.496C149.026 157.421 150.017 157.734 151.278 157.771C152.54 157.821 153.55 157.576 153.568 157.653Z" fill="#FAFAFA"/>
<path d="M158.181 160.016C158.109 159.989 158.498 158.84 158.822 157.387C159.151 155.935 159.291 154.731 159.367 154.737C159.434 154.74 159.409 155.97 159.075 157.444C158.746 158.919 158.242 160.042 158.181 160.016Z" fill="#FAFAFA"/>
<path d="M168.252 160.402C168.199 160.451 167.226 159.468 166.078 158.208C164.93 156.947 164.042 155.886 164.095 155.838C164.149 155.79 165.122 156.772 166.27 158.033C167.417 159.293 168.305 160.354 168.252 160.402Z" fill="#FAFAFA"/>
<path d="M172.948 172.039C172.896 172.089 172.17 171.42 171.324 170.545C170.479 169.669 169.836 168.92 169.887 168.87C169.939 168.82 170.666 169.489 171.511 170.364C172.356 171.24 172.999 171.989 172.948 172.039Z" fill="#FAFAFA"/>
<path d="M164.225 173.148C164.269 173.199 163.438 173.967 162.235 174.663C161.035 175.363 159.956 175.703 159.934 175.64C159.906 175.569 160.926 175.126 162.105 174.438C163.287 173.756 164.177 173.089 164.225 173.148Z" fill="#FAFAFA"/>
<path d="M168.239 184.223C168.164 184.204 168.462 182.895 168.611 181.256C168.767 179.616 168.715 178.275 168.793 178.271C168.858 178.263 169.027 179.615 168.869 181.279C168.718 182.945 168.302 184.242 168.239 184.223Z" fill="#FAFAFA"/>
<path d="M183.332 175.218C183.294 175.272 182.226 174.527 181.178 173.323C180.124 172.123 179.529 170.966 179.587 170.936C179.653 170.895 180.338 171.975 181.374 173.153C182.402 174.336 183.381 175.158 183.332 175.218Z" fill="#FAFAFA"/>
<path d="M188.848 179.918C188.789 179.872 189.543 178.837 190.388 177.508C191.237 176.181 191.858 175.06 191.925 175.095C191.986 175.124 191.465 176.307 190.607 177.647C189.753 178.989 188.9 179.961 188.848 179.918Z" fill="#FAFAFA"/>
<path d="M188.039 168.422C188.021 168.491 186.887 168.247 185.509 167.876C184.129 167.506 183.026 167.15 183.044 167.081C183.063 167.011 184.196 167.255 185.576 167.626C186.955 167.996 188.058 168.352 188.039 168.422Z" fill="#FAFAFA"/>
<path d="M184.019 188.651C183.948 188.647 183.952 187.59 184.028 186.291C184.105 184.991 184.225 183.941 184.296 183.945C184.368 183.949 184.364 185.007 184.287 186.306C184.211 187.606 184.091 188.656 184.019 188.651Z" fill="#FAFAFA"/>
<path d="M187.495 195.581C187.422 195.546 187.946 194.514 188.124 193.126C188.319 191.739 188.087 190.605 188.167 190.591C188.225 190.567 188.582 191.718 188.381 193.16C188.194 194.604 187.545 195.62 187.495 195.581Z" fill="#FAFAFA"/>
<path d="M178.487 194.05C178.423 194.06 178.267 192.889 178.543 191.476C178.81 190.06 179.389 189.03 179.444 189.063C179.516 189.095 179.056 190.147 178.797 191.524C178.529 192.899 178.565 194.047 178.487 194.05Z" fill="#FAFAFA"/>
<path d="M170.271 197.56C170.22 197.615 169.212 196.755 167.932 195.745C166.654 194.731 165.586 193.948 165.627 193.886C165.665 193.828 166.805 194.521 168.093 195.542C169.382 196.559 170.318 197.51 170.271 197.56Z" fill="#FAFAFA"/>
<path d="M175.836 187.791C175.87 187.854 174.562 188.614 172.916 189.488C171.269 190.362 169.908 191.018 169.874 190.955C169.84 190.892 171.148 190.132 172.795 189.258C174.44 188.385 175.802 187.728 175.836 187.791Z" fill="#FAFAFA"/>
<path d="M193.119 209.715C193.121 209.724 193.01 209.752 192.797 209.798C192.583 209.837 192.27 209.918 191.859 209.971C191.042 210.105 189.843 210.221 188.359 210.196C186.876 210.173 185.107 209.97 183.207 209.467C181.308 208.968 179.287 208.141 177.356 206.947C175.435 205.735 173.805 204.283 172.523 202.796C171.236 201.309 170.278 199.808 169.607 198.486C168.933 197.163 168.511 196.035 168.272 195.242C168.139 194.85 168.075 194.533 168.017 194.324C167.964 194.113 167.94 194.001 167.949 193.998C167.957 193.996 167.998 194.103 168.067 194.309C168.141 194.514 168.221 194.825 168.368 195.21C168.635 195.99 169.08 197.1 169.769 198.4C170.455 199.701 171.42 201.177 172.702 202.639C173.981 204.102 175.596 205.531 177.493 206.727C179.4 207.906 181.393 208.73 183.268 209.237C185.145 209.747 186.894 209.967 188.364 210.013C189.835 210.061 191.028 209.974 191.846 209.872C192.257 209.834 192.571 209.77 192.788 209.747C193.003 209.717 193.117 209.707 193.119 209.715Z" fill="#263238"/>
<path d="M178.241 207.139C178.18 207.159 177.994 206.046 178.475 204.785C178.942 203.518 179.813 202.802 179.846 202.857C179.907 202.91 179.159 203.673 178.718 204.876C178.26 206.072 178.322 207.139 178.241 207.139Z" fill="#FAFAFA"/>
<path d="M174.141 205.426C174.177 205.495 173.43 205.86 172.845 206.657C172.246 207.444 172.107 208.264 172.03 208.248C171.964 208.256 171.993 207.354 172.637 206.502C173.272 205.643 174.129 205.36 174.141 205.426Z" fill="#FAFAFA"/>
<path d="M189.901 214.806C189.903 214.87 188.767 214.781 187.608 214.05C186.441 213.33 185.861 212.349 185.919 212.324C185.982 212.273 186.63 213.145 187.744 213.83C188.851 214.529 189.919 214.728 189.901 214.806Z" fill="#FAFAFA"/>
<path d="M192.353 201.011C192.419 201.01 192.275 202.049 191.461 202.996C190.658 203.953 189.655 204.263 189.646 204.198C189.61 204.127 190.51 203.73 191.263 202.828C192.031 201.939 192.277 200.987 192.353 201.011Z" fill="#FAFAFA"/>
<path d="M199.319 211.298C199.26 211.249 199.918 210.416 200.523 209.269C201.135 208.126 201.456 207.116 201.531 207.137C201.595 207.15 201.38 208.217 200.752 209.391C200.13 210.568 199.366 211.344 199.319 211.298Z" fill="#FAFAFA"/>
<path d="M208.527 212.656C208.556 212.729 207.649 213.089 206.738 213.84C205.818 214.581 205.283 215.398 205.217 215.354C205.158 215.328 205.613 214.415 206.574 213.639C207.528 212.855 208.514 212.593 208.527 212.656Z" fill="#FAFAFA"/>
<path d="M201.505 200.86C201.428 200.884 200.994 199.428 200.078 197.814C199.172 196.193 198.152 195.068 198.213 195.015C198.236 194.993 198.523 195.246 198.926 195.712C199.33 196.178 199.84 196.866 200.304 197.687C200.766 198.509 201.089 199.301 201.278 199.888C201.468 200.475 201.536 200.851 201.505 200.86Z" fill="#FAFAFA"/>
<path d="M202.883 186.03C202.899 186.1 201.841 186.403 200.521 186.708C199.201 187.013 198.117 187.203 198.101 187.134C198.085 187.064 199.142 186.76 200.463 186.455C201.783 186.151 202.866 185.96 202.883 186.03Z" fill="#FAFAFA"/>
<path d="M198.644 181.599C198.587 181.642 197.905 180.859 197.12 179.849C196.335 178.838 195.743 177.983 195.8 177.939C195.857 177.895 196.539 178.679 197.325 179.689C198.11 180.7 198.701 181.555 198.644 181.599Z" fill="#FAFAFA"/>
<path d="M209.14 178.939C209.133 179.007 208.051 178.94 206.753 178.631C205.454 178.325 204.457 177.899 204.481 177.835C204.506 177.765 205.531 178.076 206.813 178.378C208.094 178.684 209.15 178.865 209.14 178.939Z" fill="#FAFAFA"/>
<path d="M216.605 178.809C216.538 178.775 216.951 177.875 217.367 176.733C217.788 175.593 218.055 174.64 218.128 174.656C218.195 174.67 218.038 175.663 217.61 176.822C217.187 177.983 216.665 178.842 216.605 178.809Z" fill="#FAFAFA"/>
<path d="M214.926 188.926C214.909 188.99 213.874 188.73 212.755 188.059C211.632 187.395 210.909 186.61 210.957 186.565C211.01 186.508 211.793 187.19 212.888 187.837C213.977 188.49 214.951 188.853 214.926 188.926Z" fill="#FAFAFA"/>
<path d="M219.78 188.619C219.71 188.603 219.955 187.279 220.327 185.661C220.699 184.043 221.057 182.745 221.127 182.761C221.196 182.777 220.951 184.101 220.579 185.719C220.208 187.337 219.85 188.635 219.78 188.619Z" fill="#FAFAFA"/>
<path d="M215.726 199.93C215.668 199.973 214.88 198.991 213.965 197.739C213.05 196.486 212.356 195.437 212.414 195.395C212.471 195.353 213.26 196.334 214.174 197.586C215.089 198.839 215.784 199.888 215.726 199.93Z" fill="#FAFAFA"/>
<path d="M222.643 195.606C222.573 195.638 222.119 194.739 221.402 193.733C220.691 192.724 219.993 191.996 220.046 191.941C220.09 191.891 220.885 192.549 221.614 193.584C222.347 194.613 222.705 195.582 222.643 195.606Z" fill="#FAFAFA"/>
<path d="M229.125 194.633C229.061 194.672 228.41 193.694 227.531 192.549C226.656 191.4 225.883 190.515 225.938 190.464C225.986 190.416 226.851 191.229 227.737 192.391C228.626 193.551 229.184 194.598 229.125 194.633Z" fill="#FAFAFA"/>
<path d="M227.602 198.929C227.525 198.932 227.576 198.066 227.009 197.23C226.463 196.38 225.647 196.086 225.68 196.016C225.689 195.987 225.907 196.013 226.221 196.172C226.534 196.327 226.927 196.637 227.225 197.087C227.522 197.539 227.652 198.023 227.672 198.371C227.694 198.722 227.632 198.932 227.602 198.929Z" fill="#FAFAFA"/>
<path d="M222.545 204.82C222.508 204.81 222.519 204.687 222.48 204.511C222.444 204.337 222.342 204.101 222.138 203.941C221.934 203.783 221.68 203.741 221.502 203.748C221.321 203.753 221.205 203.794 221.186 203.76C221.168 203.734 221.261 203.626 221.474 203.567C221.679 203.507 222.017 203.52 222.298 203.737C222.576 203.956 222.671 204.281 222.663 204.495C222.657 204.716 222.575 204.831 222.545 204.82Z" fill="#FAFAFA"/>
<path d="M170.735 214.238C170.72 214.299 169.426 213.809 168.248 212.621C167.06 211.443 166.571 210.149 166.631 210.134C166.703 210.094 167.281 211.3 168.432 212.438C169.569 213.588 170.775 214.166 170.735 214.238Z" fill="#FAFAFA"/>
<path d="M139.035 90.6355C138.236 83.0629 136.787 75.9375 136.394 68.5084C136.374 68.1359 136.332 67.7166 136.04 67.4835C135.644 67.1663 135.009 67.4212 134.75 67.8575C134.49 68.2942 134.496 68.8321 134.498 69.3395C134.514 73.2787 133.843 77.2199 132.525 80.932C131.669 83.3428 130.541 85.6625 129.894 88.1385C129.247 90.6141 130.455 91.4542 131.569 93.7575" fill="#FFBE9D"/>
<path d="M113.605 60.638C113.559 60.6928 110.758 58.4145 107.35 55.549C103.941 52.683 101.215 50.316 101.261 50.2612C101.307 50.2064 104.107 52.4848 107.517 55.3508C110.925 58.2158 113.651 60.5833 113.605 60.638Z" fill="#263238"/>
<path d="M127.806 57.2269C127.735 57.2304 127.453 52.8042 127.177 47.3412C126.901 41.8766 126.736 37.4449 126.808 37.4414C126.879 37.4379 127.161 41.8637 127.437 47.3282C127.713 52.7908 127.878 57.2235 127.806 57.2269Z" fill="#263238"/>
<path d="M118.762 54.0632C118.693 54.0851 117.82 51.5592 116.811 48.4223C115.802 45.2844 115.04 42.7232 115.108 42.7013C115.176 42.6794 116.049 45.2048 117.058 48.3427C118.067 51.4796 118.83 54.0413 118.762 54.0632Z" fill="#263238"/>
<path d="M110.701 65.3072C110.671 65.3725 108.95 64.6474 106.859 63.6882C104.766 62.7286 103.094 61.8984 103.124 61.8332C103.154 61.7679 104.874 62.493 106.967 63.4527C109.058 64.4113 110.731 65.242 110.701 65.3072Z" fill="#263238"/>
<path d="M97.597 59.5864C97.5881 59.6576 97.1737 59.6641 96.6718 59.6013C96.1693 59.5386 95.7694 59.43 95.7783 59.3588C95.7873 59.2876 96.2016 59.2811 96.7036 59.3439C97.2056 59.4066 97.606 59.5152 97.597 59.5864Z" fill="#263238"/>
<path d="M115.43 39.4881C115.358 39.4881 115.3 39.0808 115.3 38.5788C115.3 38.0763 115.359 37.6694 115.43 37.6694C115.502 37.6694 115.559 38.0763 115.559 38.5788C115.56 39.0813 115.502 39.4881 115.43 39.4881Z" fill="#263238"/>
<path d="M145.421 46.5192C145.474 46.567 143.177 49.2029 140.291 52.4051C137.404 55.6087 135.021 58.1659 134.968 58.1176C134.915 58.0698 137.211 55.4349 140.098 52.2313C142.984 49.0291 145.368 46.4714 145.421 46.5192Z" fill="#263238"/>
<path d="M149.076 42.8983C149.127 42.9491 148.863 43.2952 148.486 43.6722C148.11 44.0492 147.763 44.3132 147.712 44.2624C147.662 44.2116 147.926 43.8655 148.302 43.4885C148.679 43.112 149.026 42.8475 149.076 42.8983Z" fill="#263238"/>
<path d="M157.952 55.6474C157.96 55.6633 157.719 55.8058 157.275 56.0498C156.832 56.2953 156.183 56.6349 155.374 57.0423C153.758 57.8575 151.493 58.9228 148.941 59.982C146.388 61.0402 144.034 61.8908 142.315 62.459C141.456 62.7439 140.757 62.963 140.27 63.103C139.784 63.2444 139.513 63.3146 139.508 63.2977C139.502 63.2807 139.763 63.1782 140.239 63.0073C140.759 62.8216 141.437 62.5786 142.255 62.2862C143.956 61.6742 146.294 60.7987 148.842 59.743C151.388 58.6857 153.66 57.6494 155.294 56.878C156.079 56.5055 156.73 56.1967 157.229 55.9606C157.687 55.744 157.944 55.632 157.952 55.6474Z" fill="#263238"/>
<path d="M150.667 67.9056C150.676 67.938 150.175 68.1153 149.347 68.3429C148.519 68.5705 147.361 68.8404 146.069 69.062C144.776 69.2821 143.594 69.4116 142.738 69.4714C141.881 69.5316 141.349 69.5311 141.347 69.4973C141.344 69.4594 141.871 69.3957 142.72 69.2891C143.569 69.1825 144.74 69.0257 146.026 68.8065C147.311 68.5864 148.467 68.3464 149.303 68.1651C150.139 67.9838 150.657 67.8693 150.667 67.9056Z" fill="#263238"/>
<path d="M157.286 66.6807C157.286 66.7525 156.644 66.8102 155.852 66.8102C155.06 66.8102 154.418 66.752 154.418 66.6807C154.418 66.609 155.06 66.5513 155.852 66.5513C156.644 66.5508 157.286 66.609 157.286 66.6807Z" fill="#263238"/>
<path d="M131.57 93.7575C129.585 92.2764 128.528 89.644 128.94 87.2018C129.191 85.7083 129.931 84.3507 130.521 82.9558C131.111 81.561 131.563 80.0157 131.203 78.5446C131.065 77.9818 130.81 77.4375 130.807 76.8578C130.804 76.2782 131.177 75.6308 131.756 75.6044C132.193 75.5844 132.563 75.9171 132.838 76.2577C133.806 77.4579 134.587 80.9678 134.097 83.5823" fill="#FFBE9D"/>
<path d="M134.097 83.5816C134.072 83.5772 134.148 83.1793 134.177 82.4532C134.202 81.7281 134.17 80.6698 133.921 79.3954C133.795 78.7605 133.614 78.0693 133.326 77.3691C133.181 77.0215 133.011 76.6644 132.769 76.3567C132.53 76.0534 132.211 75.7481 131.835 75.7237C131.456 75.6943 131.127 76.027 131.004 76.4204C130.864 76.8153 130.954 77.262 131.086 77.7023C131.223 78.1405 131.385 78.6151 131.432 79.1136C131.481 79.6096 131.462 80.118 131.377 80.618C131.03 82.6374 129.952 84.2734 129.407 85.8884C129.126 86.6941 128.957 87.4924 128.963 88.2494C128.959 89.0049 129.08 89.7075 129.269 90.3231C129.653 91.5596 130.284 92.4301 130.765 92.9645C131.254 93.5008 131.587 93.7354 131.57 93.7573C131.564 93.7642 131.48 93.708 131.325 93.5934C131.168 93.4814 130.949 93.2961 130.692 93.0332C130.181 92.5118 129.511 91.6403 129.095 90.3783C128.889 89.7504 128.752 89.0293 128.747 88.2484C128.732 87.4665 128.9 86.6339 129.181 85.8102C129.729 84.1558 130.791 82.5219 131.121 80.5762C131.203 80.0946 131.221 79.6106 131.175 79.141C131.132 78.6694 130.983 78.2316 130.842 77.7745C130.71 77.3263 130.601 76.8153 130.769 76.3417C130.848 76.1116 130.974 75.8945 131.161 75.7307C131.343 75.5628 131.601 75.4692 131.848 75.4852C132.358 75.532 132.694 75.896 132.948 76.2157C133.21 76.5564 133.379 76.9269 133.525 77.2869C133.813 78.011 133.984 78.7142 134.101 79.3606C134.331 80.6564 134.334 81.7276 134.278 82.4581C134.245 82.8237 134.209 83.1065 134.167 83.2953C134.13 83.485 134.106 83.5836 134.097 83.5816Z" fill="#EB996E"/>
<path d="M199.204 124.029C199.466 125.461 200.828 126.566 202.28 126.686C203.732 126.807 205.182 126.029 206.03 124.844C206.878 123.66 207.157 122.124 206.96 120.681C206.674 118.584 205.281 116.569 203.259 115.943C201.238 115.317 198.722 116.431 198.163 118.472L195.833 121.726L199.204 124.029Z" fill="#263238"/>
<path d="M196.448 117.638C197.394 110.084 191.93 103.181 184.261 102.451C177.032 101.762 170.607 107.145 169.523 114.325C168.573 120.62 167.757 126.974 167.786 129.281C167.875 136.24 171.946 138.949 173.597 139.763C173.974 139.949 175.013 140.16 175.428 140.219C175.454 140.222 175.472 140.247 175.467 140.273L173.922 148.262C173.221 153.496 176.143 158.164 181.369 158.925C186.612 159.69 190.71 155.669 191.51 150.431L196.448 117.638Z" fill="#FFBE9D"/>
<path d="M170.723 118.394C170.838 118.557 171.757 118.064 172.935 118.239C174.113 118.397 174.89 119.129 175.038 119.003C175.11 118.948 175.01 118.671 174.673 118.342C174.342 118.015 173.749 117.657 173.015 117.553C172.28 117.45 171.624 117.63 171.228 117.855C170.826 118.081 170.666 118.321 170.723 118.394Z" fill="#263238"/>
<path d="M181.204 120.665C181.319 120.827 182.239 120.335 183.415 120.51C184.594 120.668 185.37 121.399 185.519 121.274C185.591 121.219 185.492 120.942 185.154 120.612C184.823 120.286 184.23 119.928 183.496 119.824C182.761 119.721 182.105 119.901 181.71 120.126C181.307 120.351 181.146 120.591 181.204 120.665Z" fill="#263238"/>
<path d="M177.128 126.233C177.143 126.167 176.429 125.934 175.265 125.609C174.968 125.534 174.692 125.433 174.672 125.22C174.632 124.992 174.806 124.686 175.002 124.357C175.391 123.671 175.798 122.951 176.226 122.197C177.936 119.115 179.222 116.564 179.097 116.496C178.972 116.429 177.484 118.871 175.774 121.952C175.359 122.713 174.963 123.438 174.586 124.132C174.423 124.458 174.17 124.817 174.258 125.29C174.306 125.527 174.503 125.722 174.689 125.802C174.873 125.889 175.042 125.917 175.189 125.948C176.373 126.186 177.113 126.3 177.128 126.233Z" fill="#263238"/>
<path d="M175.476 140.225C175.476 140.225 179.97 141.261 186.158 138.671C186.158 138.671 183.487 144.422 175.06 142.378L175.476 140.225Z" fill="#EB996E"/>
<path d="M177.212 129.145C177.717 128.646 178.504 128.447 179.23 128.634C179.733 128.763 180.214 129.085 180.463 129.547C180.713 130.008 180.692 130.609 180.352 130.965C179.969 131.366 179.29 131.371 178.751 131.13C178.212 130.888 177.782 130.448 177.376 130.012C177.264 129.891 177.15 129.766 177.09 129.615C177.032 129.463 177.041 129.278 177.156 129.176" fill="#EB996E"/>
<path d="M180.476 127.553C180.286 127.514 180.097 128.793 178.87 129.541C177.645 130.292 176.303 129.949 176.267 130.127C176.238 130.204 176.535 130.42 177.107 130.519C177.669 130.621 178.52 130.56 179.27 130.102C180.019 129.643 180.414 128.942 180.534 128.424C180.66 127.896 180.564 127.559 180.476 127.553Z" fill="#263238"/>
<path d="M182.015 116.832C182.084 117.17 183.283 117.189 184.64 117.558C186.005 117.898 187.061 118.465 187.286 118.205C187.388 118.079 187.238 117.75 186.833 117.374C186.431 116.999 185.761 116.601 184.945 116.388C184.129 116.176 183.35 116.197 182.817 116.328C182.279 116.458 181.987 116.673 182.015 116.832Z" fill="#263238"/>
<path d="M171.913 114.763C172.081 115.061 172.933 114.902 173.911 115.031C174.893 115.125 175.687 115.473 175.918 115.221C176.021 115.097 175.93 114.81 175.606 114.504C175.287 114.2 174.722 113.907 174.048 113.829C173.375 113.753 172.758 113.911 172.379 114.136C171.994 114.36 171.84 114.619 171.913 114.763Z" fill="#263238"/>
<path d="M168.157 112.765C169.597 114.963 174.168 113.605 176.928 112.095C179.836 114.023 183.876 113.186 185.889 110.24C187.469 112.251 190.676 111.586 191.846 109.32C193.016 107.052 192.357 103.933 190.751 101.95C189.144 99.9671 186.794 98.9657 184.474 98.5374C178.972 97.521 172.978 99.6539 169.686 104.629C168.168 106.925 167.257 110.016 168.157 112.765Z" fill="#263238"/>
<path d="M183.367 99.3228C183.361 99.4189 182.066 99.1704 180.029 99.51C178.028 99.8452 175.21 100.889 173.113 103.231C171.063 105.606 170.131 108.421 169.791 110.429C169.448 112.47 169.709 113.758 169.62 113.766C169.594 113.771 169.509 113.457 169.433 112.872C169.365 112.288 169.341 111.43 169.473 110.382C169.743 108.309 170.638 105.405 172.773 102.929C174.97 100.479 177.914 99.4548 179.98 99.1923C181.029 99.0549 181.888 99.0848 182.471 99.151C183.055 99.2137 183.371 99.2979 183.367 99.3228Z" fill="#455A64"/>
<path d="M175.927 109.551C175.901 109.553 175.842 109.277 175.817 108.768C175.79 108.259 175.832 107.513 176.041 106.62C176.432 104.855 177.711 102.417 180.175 100.952C182.652 99.5068 185.405 99.5701 187.138 100.084C188.021 100.334 188.693 100.659 189.125 100.929C189.559 101.198 189.772 101.384 189.757 101.405C189.713 101.487 188.792 100.803 187.059 100.395C185.364 99.9774 182.746 99.9779 180.407 101.344C178.078 102.727 176.809 105.017 176.352 106.701C175.868 108.415 176.021 109.552 175.927 109.551Z" fill="#455A64"/>
<path d="M189.13 107.167C188.668 109.128 188.203 111.111 188.202 113.125C188.201 115.14 188.706 117.221 189.992 118.772C191.915 121.091 195.121 121.794 198.08 122.357C199.665 118.431 200.147 114.067 199.459 109.89C199.123 107.85 198.466 105.774 197.028 104.289C194.952 102.146 191.336 101.715 188.814 103.309" fill="#263238"/>
<path d="M190.775 116.81C189.994 118.492 190.053 120.441 190.323 122.276C190.593 124.111 191.058 125.932 191.04 127.787C191.022 129.642 190.433 131.605 188.978 132.757C188.564 133.084 188.088 133.341 187.742 133.739C187.395 134.137 187.208 134.745 187.485 135.194C187.762 135.642 188.601 135.633 188.723 135.12L188.647 135.25C188.33 135.794 188.716 136.503 189.346 136.492C190.332 136.474 191.343 135.952 192.003 135.187C192.955 134.086 193.332 132.609 193.582 131.175C194.349 126.778 194.2 122.221 195.414 117.925" fill="#263238"/>
<path d="M173.888 145.688C174.57 148.673 176.6 151.323 179.304 152.76C182.008 154.198 185.34 154.396 188.196 153.291C190.773 152.293 192.854 150.352 194.864 148.455C195.579 152.759 194.386 157.345 191.666 160.757C188.945 164.169 184.739 166.352 180.383 166.613C177.084 166.81 173.536 165.802 171.462 163.23C170.014 161.435 169.427 159.059 169.451 156.753C169.474 154.447 170.062 152.184 170.753 149.984C171.344 148.102 172.272 145.99 174.177 145.475" fill="#E94675"/>
<path d="M197.513 122.517C199.485 123.589 200.569 125.828 200.952 128.039C201.335 130.251 201.143 132.517 201.236 134.76C201.33 137.002 201.76 139.344 203.177 141.085C204.682 142.935 207.037 143.81 209.136 144.942C213.778 147.446 217.596 151.683 218.994 156.769C220.393 161.855 219.124 167.737 215.314 171.385C211.847 174.704 206.8 175.872 202 175.859C198.576 175.849 194.817 175.122 192.681 172.445C190.572 169.801 190.667 166.021 191.438 162.728C192.209 159.435 193.554 156.227 193.606 152.845C193.099 154.933 192.203 156.925 190.978 158.69C190.627 159.194 190.024 159.739 189.483 159.449C188.881 159.128 189.11 158.228 189.389 157.607C193.515 148.427 192.079 129.928 194.523 119.794" fill="#263238"/>
<path d="M194.116 121.469C194.24 121.429 199.053 120.517 198.435 125.277C197.817 130.038 193.166 128.436 193.175 128.298C193.185 128.16 194.116 121.469 194.116 121.469Z" fill="#FFBE9D"/>
<path d="M194.863 126.683C194.886 126.671 194.939 126.752 195.07 126.835C195.199 126.915 195.429 126.989 195.688 126.928C196.215 126.808 196.743 126.065 196.877 125.21C196.945 124.778 196.908 124.354 196.799 123.993C196.698 123.626 196.505 123.353 196.258 123.275C196.013 123.184 195.814 123.312 195.739 123.439C195.658 123.564 195.676 123.662 195.65 123.667C195.635 123.678 195.558 123.575 195.622 123.383C195.654 123.291 195.724 123.186 195.848 123.109C195.974 123.031 196.148 123.005 196.322 123.047C196.686 123.121 196.973 123.501 197.093 123.898C197.233 124.299 197.285 124.777 197.208 125.262C197.053 126.217 196.445 127.051 195.731 127.161C195.385 127.205 195.119 127.067 194.989 126.936C194.857 126.8 194.845 126.69 194.863 126.683Z" fill="#EB996E"/>
<path d="M168.965 155.95C168.932 155.93 169.256 155.375 169.774 154.479C170.284 153.582 170.998 152.336 171.492 150.848C171.985 149.361 172.069 147.918 171.921 146.907C171.784 145.89 171.493 145.306 171.54 145.288C171.554 145.282 171.639 145.42 171.756 145.688C171.874 145.956 172.008 146.362 172.103 146.879C172.302 147.911 172.245 149.405 171.738 150.929C171.232 152.451 170.483 153.698 169.931 154.574C169.652 155.013 169.416 155.36 169.248 155.597C169.08 155.834 168.979 155.96 168.965 155.95Z" fill="#263238"/>
<path d="M171.393 150.454C171.321 150.471 171.186 150.048 170.76 149.762C170.344 149.461 169.9 149.481 169.892 149.407C169.886 149.375 169.997 149.32 170.193 149.316C170.387 149.311 170.662 149.377 170.909 149.549C171.155 149.722 171.312 149.957 171.375 150.14C171.439 150.325 171.425 150.448 171.393 150.454Z" fill="#FAFAFA"/>
<path d="M174.467 150.448C174.4 150.487 174.022 149.801 173.242 149.298C172.471 148.779 171.691 148.703 171.701 148.625C171.688 148.56 172.544 148.52 173.385 149.081C174.231 149.632 174.533 150.434 174.467 150.448Z" fill="#FAFAFA"/>
<path d="M176.403 160.551C176.333 160.537 176.462 159.626 176.691 158.518C176.92 157.409 177.163 156.522 177.233 156.537C177.303 156.551 177.174 157.462 176.945 158.57C176.716 159.679 176.473 160.566 176.403 160.551Z" fill="#FAFAFA"/>
<path d="M184.172 162.075C184.101 162.073 184.073 161.111 184.11 159.926C184.146 158.741 184.235 157.782 184.306 157.784C184.378 157.786 184.406 158.749 184.369 159.934C184.332 161.118 184.244 162.077 184.172 162.075Z" fill="#FAFAFA"/>
<path d="M25.5509 184.204L17.8722 217.647L34.1125 217.697L41.6148 188.288L25.5509 184.204Z" fill="#DAA894"/>
<path d="M105.304 143.122C103.761 141.052 101.987 139.065 101.173 136.614C100.78 135.431 100.626 134.176 100.208 133.001C99.7892 131.826 99.0283 130.68 97.8625 130.237C96.6966 129.794 95.8117 130.243 95.0527 131.072L89.4796 147.371L92.6932 159.892C95.8978 159.169 99.9157 158.314 102.911 156.964C105.906 155.614 107.912 153.453 108.099 150.173C108.246 147.595 106.847 145.192 105.304 143.122Z" fill="#263238"/>
<path d="M54.5902 140.24C54.5902 140.24 35.217 148.673 32.7957 152.478C30.375 156.282 22.4209 183.408 22.4209 183.408L42.8165 189.409L42.4803 217.647H92.5303L92.1175 167.861L85.8387 140.34C85.8387 140.34 74.7881 139.629 73.7652 139.125C72.7418 138.62 54.5902 140.24 54.5902 140.24Z" fill="#6785B4"/>
<path d="M123.433 71.2096C123.593 70.0672 122.793 68.8127 123.367 67.8122C123.684 67.2595 124.324 66.9925 124.919 66.763C125.226 66.6444 125.543 66.5244 125.872 66.5354C126.201 66.5463 126.547 66.7226 126.655 67.0329C126.782 67.3974 126.547 67.7878 126.274 68.0607C126.001 68.3331 125.668 68.5712 125.522 68.9283C125.327 69.4058 125.506 70.9038 125.705 71.3804C126.045 72.1981 127.246 75.83 127.352 76.7095" fill="#DAA894"/>
<path d="M119.345 71.6042C119.416 69.8756 120.817 63.0655 120.889 61.3364C122.057 61.697 122.735 62.942 122.955 64.1451C123.175 65.3483 123.062 66.5923 123.27 67.798C123.549 69.4165 124.39 70.8756 125.239 72.282C126.087 73.6883 126.97 75.1121 127.351 76.7097C127.732 78.3073 129.179 82.4452 128.053 83.6413" fill="#DAA894"/>
<path d="M119.02 83.2573L112.096 116.166C111.852 117.653 85.8383 140.341 85.8383 140.341L90.9761 160.864L124.866 127.731C127.309 125.118 128.639 121.655 128.572 118.078L127.997 87.2L119.02 83.2573Z" fill="#DAA894"/>
<path d="M117.838 71.8122L119.02 83.2573L127.997 87.1999C127.997 87.1999 128.108 86.3872 128.493 82.4216C128.919 78.0457 124.215 76.1682 122.121 72.9397C121.224 71.5573 121.459 69.017 120.766 65.8696C120.686 65.5071 120.186 63.3079 119.917 62.1261C119.768 61.4723 119.398 60.8826 118.841 60.5086C118.437 60.2372 117.977 60.1018 117.641 60.5066C117.297 60.9195 117.838 71.8122 117.838 71.8122Z" fill="#DAA894"/>
<path d="M123.433 85.1777C124.453 84.3156 124.671 82.7718 124.294 81.491C123.916 80.2101 123.053 79.1349 122.178 78.126C121.303 77.117 120.381 76.1136 119.842 74.8915C119.463 74.0309 119.287 73.0887 118.869 72.2461C118.451 71.404 117.69 70.6321 116.75 70.5952C117.501 75.3307 117.483 78.0558 119.02 83.2574" fill="#DAA894"/>
<path d="M117.664 75.9865C117.667 76.0044 117.629 75.8565 117.572 75.607C117.505 75.3042 117.425 74.9447 117.332 74.5224C117.122 73.5323 116.851 72.253 116.542 70.7963L116.513 70.6569L116.657 70.6454C117.249 70.5991 117.864 70.8606 118.331 71.2714C119.115 71.9382 119.473 72.876 119.733 73.6693C119.994 74.4765 120.217 75.1947 120.521 75.7474C120.797 76.3167 121.179 76.6618 121.397 76.9551C121.614 77.2429 121.708 77.4187 121.695 77.4277C121.679 77.4396 121.556 77.2833 121.319 77.0198C121.091 76.7609 120.669 76.4153 120.36 75.8361C120.026 75.2773 119.776 74.5403 119.507 73.7465C119.234 72.9586 118.886 72.0837 118.161 71.4681C117.728 71.0886 117.187 70.8611 116.672 70.8964L116.787 70.746C117.383 73.7455 117.773 75.9905 117.664 75.9865Z" fill="#7C5142"/>
<path d="M121.69 73.0743C121.62 73.0847 121.25 70.9926 120.864 68.4016C120.478 65.81 120.223 63.7009 120.293 63.6905C120.364 63.68 120.734 65.7716 121.12 68.3637C121.506 70.9543 121.761 73.0638 121.69 73.0743Z" fill="#7C5142"/>
<path d="M124.546 73.4581C124.559 73.4561 124.581 73.5124 124.612 73.6339L124.534 73.6504C124.367 73.2385 123.975 71.9477 123.63 70.3949C123.416 69.4343 123.259 68.5563 123.166 67.9184C123.073 67.2799 123.041 66.8815 123.076 66.8756C123.149 66.8636 123.455 68.4248 123.883 70.3387C124.226 71.8849 124.543 73.1897 124.61 73.6294L124.533 73.6459C124.527 73.5199 124.532 73.4601 124.546 73.4581Z" fill="#7C5142"/>
<path d="M126.311 79.7685C126.274 79.7904 126.094 79.5106 125.733 79.1266C125.374 78.7416 124.811 78.2715 124.09 77.9214C123.367 77.5748 122.647 77.4264 122.123 77.3851C121.598 77.3418 121.266 77.3746 121.26 77.3323C121.255 77.3044 121.582 77.2053 122.13 77.2018C122.676 77.1964 123.443 77.3233 124.202 77.6879C124.959 78.0554 125.535 78.5758 125.871 79.0066C126.211 79.4374 126.336 79.7556 126.311 79.7685Z" fill="#7C5142"/>
<path d="M119.832 84.16C119.801 84.172 119.561 83.661 119.243 82.8055C118.924 81.9509 118.538 80.7482 118.213 79.3932C117.889 78.0376 117.689 76.7901 117.587 75.8838C117.484 74.9769 117.467 74.4127 117.5 74.4092C117.538 74.4052 117.62 74.9625 117.768 75.8579C117.916 76.7533 118.143 77.9863 118.464 79.3324C118.787 80.678 119.142 81.8797 119.415 82.7457C119.689 83.6122 119.868 84.1461 119.832 84.16Z" fill="#7C5142"/>
<path d="M79.7611 140.924C80.5953 139.536 82.64 139.058 84.0031 139.932C87.6589 136.959 91.3969 134.045 95.0527 131.072C93.86 137.031 93.0737 145.383 95.7345 150.847C95.7345 150.847 99.1049 157.115 104.473 156.156L99.6871 160.864L92.1175 167.861" fill="#6785B4"/>
<path d="M78.5734 143.722C78.5097 143.726 78.5774 142.615 79.2781 141.475C79.9678 140.328 80.923 139.756 80.9494 139.815C81.0002 139.877 80.1551 140.515 79.4997 141.609C78.8299 142.695 78.6521 143.739 78.5734 143.722Z" fill="#263238"/>
<path d="M82.5216 147.384C82.4977 147.395 82.28 146.999 82.1057 146.295C81.9294 145.594 81.8378 144.575 82.0295 143.48C82.2258 142.385 82.662 141.46 83.0689 140.862C83.4747 140.261 83.8154 139.964 83.8338 139.983C83.8677 140.012 83.5798 140.35 83.2247 140.959C82.8682 141.566 82.4753 142.467 82.2855 143.525C82.1003 144.583 82.1595 145.565 82.286 146.257C82.409 146.952 82.5634 147.368 82.5216 147.384Z" fill="#263238"/>
<path d="M100.822 160.199C100.822 160.199 100.437 160.467 99.6294 160.678C98.8311 160.894 97.5816 160.993 96.1409 160.573C94.7002 160.169 93.1479 159.132 91.9462 157.565C90.7256 156.007 89.898 153.946 89.4453 151.733C88.5887 147.285 88.6226 143.164 88.8482 140.223C88.9637 138.75 89.1296 137.565 89.2645 136.75C89.3293 136.342 89.3915 136.028 89.4353 135.815C89.4792 135.602 89.506 135.491 89.515 135.493C89.524 135.494 89.514 135.608 89.4871 135.824C89.4557 136.066 89.4149 136.378 89.3646 136.765C89.2605 137.582 89.1236 138.767 89.0314 140.237C88.8527 143.166 88.8502 147.274 89.6993 151.681C90.148 153.869 90.9532 155.889 92.136 157.42C93.3013 158.96 94.7978 159.982 96.1942 160.398C97.5926 160.829 98.8147 160.762 99.6065 160.58C100.407 160.403 100.81 160.17 100.822 160.199Z" fill="#FAFAFA"/>
<path d="M42.9235 197.79C42.8518 197.79 42.7941 190.711 42.7941 181.98C42.7941 173.247 42.8523 166.169 42.9235 166.169C42.9953 166.169 43.053 173.247 43.053 181.98C43.0535 190.711 42.9953 197.79 42.9235 197.79Z" fill="#263238"/>
<path d="M42.5217 160.707C42.4684 160.708 42.4834 159.999 42.2394 158.898C42.1233 158.346 41.9122 157.707 41.6178 157.026C41.3071 156.351 40.9032 155.638 40.3873 154.952C39.8614 154.274 39.2802 153.696 38.711 153.218C38.1309 152.755 37.5701 152.383 37.0691 152.126C36.0716 151.6 35.3829 151.428 35.3983 151.377C35.4028 151.359 35.5751 151.396 35.8849 151.479C36.0407 151.517 36.2295 151.572 36.4396 151.659C36.6508 151.744 36.8993 151.825 37.1518 151.962C37.6737 152.204 38.2583 152.568 38.8604 153.033C39.4515 153.511 40.0536 154.099 40.593 154.795C41.1218 155.498 41.5307 156.234 41.8365 156.93C42.1263 157.634 42.323 158.294 42.4186 158.86C42.4844 159.14 42.4973 159.401 42.5232 159.627C42.5526 159.853 42.5556 160.049 42.5511 160.21C42.5496 160.532 42.5396 160.707 42.5217 160.707Z" fill="#263238"/>
<path d="M76.6341 140.025C76.6431 140.024 76.671 140.168 76.7163 140.445C76.7721 140.721 76.8129 141.132 76.8453 141.665C76.901 142.727 76.8044 144.295 76.2238 146.122C75.6272 147.929 74.5072 150.005 72.6148 151.71C70.7458 153.431 68.0571 154.607 65.1368 154.835C62.214 155.046 59.3794 154.283 57.2749 152.86C55.1489 151.455 53.7326 149.57 52.873 147.872C52.0264 146.152 51.6973 144.615 51.5942 143.557C51.5469 143.025 51.526 142.613 51.5399 142.331C51.5434 142.051 51.5499 141.904 51.5588 141.904C51.5678 141.904 51.5792 142.052 51.5922 142.33C51.5952 142.61 51.632 143.019 51.6943 143.544C51.8272 144.591 52.1808 146.102 53.0364 147.788C53.9049 149.452 55.3147 151.294 57.4058 152.66C59.4745 154.043 62.2509 154.782 65.1179 154.576C67.9824 154.352 70.6168 153.207 72.4559 151.532C74.3199 149.87 75.4394 147.839 76.05 146.064C76.6446 144.269 76.7691 142.722 76.7447 141.667C76.7277 141.138 76.7033 140.728 76.6645 140.451C76.6361 140.174 76.6252 140.027 76.6341 140.025Z" fill="#263238"/>
<path d="M42.4938 183.229C42.4714 183.298 38.3584 182 33.3082 180.331C28.2565 178.662 24.1803 177.254 24.2027 177.186C24.2251 177.118 28.3376 178.416 33.3893 180.085C38.4396 181.753 42.5162 183.161 42.4938 183.229Z" fill="#FAFAFA"/>
<path d="M91.633 176.319C91.6335 176.39 80.6501 176.494 67.1045 176.551C53.5544 176.608 42.573 176.596 42.5725 176.524C42.572 176.453 53.5529 176.348 67.1035 176.292C80.6491 176.235 91.633 176.247 91.633 176.319Z" fill="#FAFAFA"/>
<path d="M91.8815 180.653C91.8815 180.725 80.8428 180.783 67.2285 180.783C53.6097 180.783 42.5735 180.725 42.5735 180.653C42.5735 180.582 53.6102 180.524 67.2285 180.524C80.8423 180.523 91.8815 180.582 91.8815 180.653Z" fill="#FAFAFA"/>
<path d="M85.119 185.924C85.1275 185.927 85.0792 186.066 84.9801 186.326C84.8695 186.608 84.7206 186.986 84.5334 187.462C84.4338 187.711 84.3237 187.984 84.2047 188.281C84.0767 188.578 83.9209 188.891 83.762 189.233C83.4343 189.911 83.0942 190.701 82.6216 191.524C82.394 191.941 82.1559 192.377 81.9084 192.831C81.6574 193.284 81.3586 193.733 81.0693 194.21C80.5036 195.173 79.8039 196.139 79.0868 197.169C77.5943 199.186 75.8169 201.306 73.7577 203.344C71.678 205.364 69.5237 207.1 67.4779 208.553C66.4341 209.25 65.454 209.931 64.4799 210.477C63.9974 210.757 63.5427 211.047 63.0845 211.289C62.6254 211.528 62.1846 211.757 61.7633 211.976C60.9312 212.433 60.1349 212.757 59.4506 213.072C59.106 213.224 58.7888 213.374 58.4905 213.496C58.1907 213.609 57.9153 213.714 57.6653 213.808C57.1857 213.986 56.8043 214.128 56.5209 214.233C56.2584 214.327 56.119 214.372 56.116 214.364C56.113 214.355 56.2465 214.293 56.5025 214.183C56.7808 214.067 57.1558 213.911 57.6274 213.714C57.8745 213.613 58.1464 213.502 58.4422 213.382C58.737 213.253 59.0502 213.097 59.3909 212.939C60.0676 212.613 60.8555 212.279 61.6792 211.813C62.0965 211.59 62.5327 211.357 62.9869 211.114C63.4406 210.869 63.8908 210.575 64.3689 210.293C65.334 209.741 66.3046 209.056 67.3399 208.358C69.3683 206.901 71.5067 205.169 73.5759 203.159C75.6247 201.13 77.3975 199.027 78.894 197.028C79.6127 196.006 80.3163 195.05 80.887 194.096C81.1789 193.623 81.4806 193.179 81.7351 192.73C81.9871 192.28 82.2286 191.849 82.4602 191.436C82.9418 190.622 83.2919 189.84 83.631 189.17C83.7954 188.832 83.9577 188.522 84.0917 188.23C84.2182 187.936 84.3347 187.666 84.4403 187.421C84.6459 186.954 84.8098 186.582 84.9313 186.306C85.0463 186.053 85.1106 185.921 85.119 185.924Z" fill="#263238"/>
<g opacity="0.3">
<path d="M83.0957 190.256C79.7487 194.328 76.2437 197.285 71.327 199.184C68.9734 200.094 66.5063 200.714 64.226 201.793C61.9452 202.872 59.7978 204.503 58.7744 206.809C57.9831 208.591 58.3675 211.275 60.2759 211.678C61.0005 211.831 61.7455 211.597 62.4417 211.345C72.1761 207.816 78.5729 198.915 83.0957 190.256Z" fill="black"/>
</g>
<path d="M48.2726 101.631C46.1711 103.281 46.0296 106.363 46.1342 109.033C46.2388 111.703 46.2702 114.739 44.3354 116.582C42.7413 118.101 39.9525 118.665 39.4939 120.819C39.2797 121.824 39.7588 122.939 40.6343 123.476C41.5103 124.012 42.7214 123.933 43.5197 123.286C42.8439 124.972 43.1507 127.136 44.5879 128.246C46.0251 129.356 48.545 128.838 49.0908 127.106C48.7542 128.253 49.542 129.602 50.7068 129.872C51.8717 130.143 53.1729 129.279 53.3761 128.101" fill="#263238"/>
<path d="M78.7706 120.961C79.2089 122.309 80.8632 123.118 82.1969 122.635C83.5305 122.151 84.283 120.471 83.7551 119.155C83.3413 118.122 82.2835 117.339 82.2322 116.228C82.1705 114.882 83.5818 113.993 84.8228 113.468C86.0638 112.942 87.5185 112.252 87.7142 110.919C87.9034 109.632 86.7954 108.57 85.8681 107.658C84.9408 106.746 84.0514 105.363 84.7043 104.238C85.0384 103.663 85.6908 103.354 86.1271 102.852C87.0927 101.739 86.7058 99.875 85.5907 98.9118C84.4762 97.9487 82.8761 97.7445 81.4155 97.9352C79.9549 98.1255 78.5639 98.6598 77.1337 99.0114C72.4161 100.17 67.224 99.2335 63.2086 96.4995" fill="#263238"/>
<path d="M49.6979 111.9L54.8248 141.602C55.7267 146.826 60.7072 150.318 65.9257 149.385C70.8016 148.513 74.204 144.059 73.7647 139.125C73.5302 136.492 73.329 134.31 73.329 134.31C73.329 134.31 80.7691 132.399 80.1262 124.837C79.8154 121.183 78.5625 113.707 77.3508 106.958C76.0496 99.7094 69.3913 94.6801 62.0617 95.3947L61.3332 95.4659C53.519 96.691 48.2572 104.123 49.6979 111.9Z" fill="#DAA894"/>
<path d="M75.7628 111.857C75.8385 112.425 75.4202 112.957 74.8285 113.047C74.2384 113.136 73.6976 112.75 73.6219 112.183C73.5462 111.615 73.9645 111.082 74.5546 110.993C75.1463 110.902 75.6871 111.289 75.7628 111.857Z" fill="#263238"/>
<path d="M76.0895 110.823C75.9694 110.976 75.0935 110.451 73.9326 110.568C72.7718 110.667 71.9785 111.347 71.8385 111.218C71.7703 111.161 71.8819 110.894 72.2265 110.587C72.5656 110.282 73.1627 109.96 73.8863 109.893C74.6099 109.826 75.2439 110.033 75.6198 110.272C76.0033 110.511 76.1492 110.754 76.0895 110.823Z" fill="#263238"/>
<path d="M64.4063 113.183C64.482 113.75 64.0637 114.282 63.4726 114.372C62.8825 114.462 62.3416 114.076 62.2659 113.508C62.1902 112.941 62.6086 112.408 63.1987 112.318C63.7898 112.228 64.3306 112.615 64.4063 113.183Z" fill="#263238"/>
<path d="M64.7012 112.151C64.5807 112.305 63.7037 111.78 62.5443 111.896C61.3835 111.996 60.5897 112.676 60.4498 112.546C60.382 112.489 60.4921 112.222 60.8382 111.916C61.1773 111.611 61.7744 111.289 62.4975 111.222C63.2211 111.155 63.8551 111.362 64.2316 111.6C64.614 111.84 64.7604 112.082 64.7012 112.151Z" fill="#263238"/>
<path d="M69.7524 120.349C69.7404 120.283 70.4501 120.089 71.6044 119.825C71.8978 119.766 72.1726 119.68 72.203 119.472C72.2518 119.251 72.097 118.944 71.9197 118.613C71.5711 117.923 71.206 117.2 70.8231 116.442C69.2927 113.347 68.1538 110.79 68.2788 110.73C68.4038 110.67 69.7464 113.129 71.2768 116.224C71.6468 116.988 72.0008 117.716 72.3375 118.413C72.4824 118.738 72.7125 119.102 72.6044 119.561C72.5462 119.79 72.3445 119.972 72.1592 120.042C71.9749 120.119 71.8081 120.138 71.6627 120.161C70.4929 120.338 69.7633 120.415 69.7524 120.349Z" fill="#263238"/>
<path d="M64.5573 107.574C64.4736 107.901 63.2999 107.864 61.9543 108.161C60.6022 108.431 59.543 108.937 59.3348 108.671C59.2412 108.544 59.4035 108.228 59.8178 107.879C60.2282 107.531 60.902 107.173 61.7107 107.002C62.5195 106.833 63.2809 106.89 63.7964 107.044C64.3163 107.196 64.5917 107.419 64.5573 107.574Z" fill="#263238"/>
<path d="M75.335 107.505C75.1568 107.789 74.3306 107.593 73.3674 107.674C72.4018 107.721 71.609 108.024 71.3949 107.767C71.2997 107.641 71.4023 107.364 71.7335 107.08C72.0597 106.797 72.6264 106.537 73.2888 106.492C73.9516 106.449 74.5472 106.632 74.9083 106.869C75.2748 107.107 75.4127 107.368 75.335 107.505Z" fill="#263238"/>
<path d="M57.0917 102.818C57.0788 102.831 57.0663 102.843 57.0534 102.855C55.9434 103.922 55.282 105.374 55.2193 106.912C55.2173 106.967 55.2153 107.018 55.2133 107.067C55.1276 109.25 55.3951 111.437 55.2885 113.618C55.1819 115.801 54.65 118.062 53.2034 119.7C52.6082 120.373 51.4922 120.906 50.8847 120.243C50.6496 119.987 50.5799 119.625 50.5196 119.282C49.6098 114.119 47.7393 109.643 47.2189 104.202C47.077 102.722 47.6387 101.264 48.7577 100.284C49.8175 99.3572 51.1252 98.3751 52.4489 98.8512C53.7766 99.3283 55.6436 101.537 56.7227 102.445" fill="#263238"/>
<path d="M52.5779 115.07C52.4434 115.026 47.2383 114.041 47.9066 119.188C48.575 124.336 53.6053 122.603 53.5953 122.455C53.5848 122.306 52.5779 115.07 52.5779 115.07Z" fill="#DAA894"/>
<path d="M51.7691 120.709C51.7442 120.695 51.6874 120.783 51.545 120.873C51.4061 120.959 51.1581 121.039 50.8767 120.973C50.307 120.844 49.7368 120.04 49.5913 119.116C49.5171 118.649 49.5575 118.19 49.6755 117.799C49.7836 117.402 49.9932 117.108 50.2607 117.023C50.5251 116.925 50.7402 117.064 50.8219 117.2C50.9096 117.335 50.8901 117.442 50.9185 117.447C50.935 117.458 51.0181 117.347 50.9489 117.139C50.9145 117.04 50.8383 116.926 50.7044 116.843C50.5679 116.759 50.3797 116.731 50.1914 116.776C49.798 116.856 49.4883 117.267 49.3583 117.696C49.2069 118.13 49.1506 118.647 49.2338 119.171C49.4016 120.204 50.0585 121.106 50.8304 121.225C51.2049 121.272 51.4927 121.123 51.6331 120.982C51.7761 120.834 51.7885 120.716 51.7691 120.709Z" fill="#7C5142"/>
<path d="M52.3522 99.6678C50.8797 97.7261 54.0738 94.4199 56.5444 93.3681C59.015 92.3164 62.493 93.2312 65.1115 93.8253C66.7634 94.2003 68.4307 94.7849 70.1084 94.5514C71.2334 94.3945 72.2713 93.8791 73.3006 93.398C74.33 92.9174 75.4052 92.4568 76.5406 92.4239C77.676 92.3911 78.8961 92.8776 79.426 93.8826C79.9559 94.8875 79.4823 96.381 78.3777 96.646C79.7303 95.7212 81.8986 96.5518 82.288 98.1435C82.6775 99.7351 81.1391 101.473 79.5122 101.28C80.1924 100.652 81.4076 101.462 81.4066 102.387C81.4056 103.313 80.6391 104.061 79.8314 104.514C77.7702 105.669 75.2299 105.612 72.9276 105.08C70.6254 104.547 68.4446 103.58 66.1563 102.989C63.868 102.399 60.0259 101.315 57.884 102.313C56.3069 103.048 55.3622 105.126 54.398 104.782C53.4658 104.449 52.8099 103.571 52.5375 102.619C52.2646 101.666 52.3074 100.656 52.3522 99.6678Z" fill="#263238"/>
<path d="M52.6411 115.952C52.7895 118.68 52.9409 121.427 53.5774 124.085C54.2138 126.743 55.3702 129.335 57.286 131.283C59.7969 133.836 63.0438 136.284 66.5771 136.866C70.4366 137.501 75.1577 136.698 78.2991 134.367C79.7891 133.262 80.8737 130.875 80.4121 129.079C81.6805 128.498 82.5779 127.181 82.6546 125.788C82.7313 124.395 81.8827 122.653 80.7791 122.466C81.6093 122.33 81.8433 121.016 81.5331 120.272C81.2094 119.495 80.1277 119.306 79.3015 119.465C78.4754 119.624 77.7548 120.112 77.0765 120.609C76.3982 121.107 75.7184 121.635 74.9186 121.894C72.2499 122.763 69.5442 120.408 66.74 120.517C64.2047 120.616 61.9482 122.72 59.4358 122.367C58.0315 122.169 56.8233 121.198 56.0489 120.011C55.2745 118.822 55.6117 114.424 55.3069 113.04" fill="#263238"/>
<g opacity="0.6">
<path d="M72.9858 127.804C72.9669 127.837 72.7453 127.722 72.3678 127.619C71.9933 127.514 71.4495 127.438 70.8683 127.543C70.2872 127.648 69.8046 127.91 69.4904 128.139C69.1731 128.369 69.0058 128.553 68.9764 128.53C68.953 128.513 69.0755 128.284 69.3823 128.006C69.6846 127.728 70.1935 127.418 70.8245 127.304C71.4555 127.19 72.0406 127.302 72.4211 127.456C72.8075 127.609 73.0018 127.78 72.9858 127.804Z" fill="#455A64"/>
</g>
<path d="M67.5348 122.083C67.7226 122.053 67.8476 123.313 69.0134 124.102C70.1772 124.894 71.5069 124.622 71.5338 124.797C71.5592 124.874 71.2584 125.071 70.6931 125.142C70.1389 125.215 69.3097 125.115 68.5966 124.633C67.8854 124.149 67.5308 123.444 67.4377 122.932C67.3376 122.41 67.4477 122.084 67.5348 122.083Z" fill="white"/>
<path d="M63.7888 136.022C63.7928 136.014 63.9053 136.056 64.114 136.142C64.3261 136.221 64.6399 136.333 65.0542 136.446C65.8794 136.679 67.1055 136.927 68.6378 137.009C69.4028 137.053 70.2454 137.049 71.1408 136.959C72.0377 136.884 72.9869 136.702 73.9525 136.41C74.9226 136.129 75.8957 135.687 76.822 135.102C77.7487 134.52 78.6347 133.782 79.306 132.841C80.0993 131.729 80.5037 130.338 80.29 129.109L80.2716 129.003L80.3642 128.963C81.0002 128.69 81.5201 128.206 81.9205 127.68C82.1192 127.414 82.2925 127.134 82.4215 126.845C82.549 126.558 82.6142 126.248 82.6456 125.944C82.7621 124.714 82.2138 123.574 81.4469 122.93L81.3757 122.87L81.4339 122.797C81.9409 122.169 81.9733 121.336 81.7397 120.749C81.5086 120.142 81.0131 119.789 80.5938 119.627C80.1655 119.458 79.7955 119.458 79.556 119.482C79.314 119.51 79.1905 119.554 79.1865 119.542C79.1865 119.542 79.302 119.475 79.548 119.428C79.792 119.386 80.176 119.367 80.6302 119.529C81.0734 119.682 81.6142 120.043 81.8787 120.693C82.1416 121.321 82.1287 122.213 81.5804 122.917L81.5674 122.785C82.3906 123.458 82.9837 124.652 82.8717 125.966C82.8408 126.291 82.7746 126.622 82.6366 126.939C82.5002 127.252 82.3204 127.545 82.1132 127.826C81.6959 128.379 81.1561 128.894 80.4604 129.196L80.5346 129.05C80.7731 130.395 80.3413 131.824 79.5176 132.991C78.8199 133.97 77.9051 134.727 76.9569 135.317C76.0082 135.913 75.0107 136.359 74.0212 136.639C73.0357 136.931 72.0696 137.107 71.1597 137.174C70.2509 137.256 69.3988 137.249 68.6264 137.193C67.0796 137.087 65.8485 136.808 65.0248 136.544C64.6115 136.415 64.2998 136.286 64.0931 136.191C63.8894 136.087 63.7848 136.03 63.7888 136.022Z" fill="#455A64"/>
<path d="M41.213 122.882C41.213 122.882 41.1104 122.862 40.9505 122.753C40.7917 122.646 40.5751 122.437 40.4281 122.095C40.2867 121.755 40.208 121.287 40.3246 120.768C40.4351 120.244 40.8021 119.723 41.3151 119.312C41.831 118.897 42.4909 118.589 43.206 118.329C43.9176 118.064 44.696 117.829 45.4076 117.394C46.1188 116.964 46.6985 116.271 47.0675 115.442C47.445 114.616 47.6262 113.671 47.6536 112.703C47.6955 110.754 47.2448 108.91 47.195 107.189C47.1168 105.478 47.4465 103.869 48.2278 102.792C48.9987 101.712 50.0261 101.214 50.7387 101.086C51.0988 101.011 51.3861 101.031 51.5759 101.044C51.7656 101.073 51.8632 101.093 51.8622 101.102C51.8612 101.136 51.4574 101.024 50.7602 101.185C50.0764 101.338 49.1008 101.846 48.3787 102.897C47.6496 103.942 47.3449 105.497 47.4345 107.18C47.4943 108.869 47.9539 110.712 47.9136 112.711C47.8857 113.706 47.6974 114.686 47.2995 115.549C46.9121 116.413 46.2901 117.15 45.5336 117.599C44.7812 118.05 43.9883 118.278 43.2802 118.533C42.57 118.781 41.9286 119.07 41.4296 119.457C40.9336 119.842 40.582 120.32 40.4665 120.803C40.3445 121.287 40.4032 121.732 40.5228 122.059C40.7882 122.727 41.2459 122.854 41.213 122.882Z" fill="#455A64"/>
<path d="M78.5471 96.5438C78.5446 96.5373 78.6218 96.5015 78.7747 96.4377C78.8504 96.4029 78.9465 96.367 79.066 96.3391C79.183 96.3028 79.3215 96.2709 79.4818 96.2545C80.1043 96.1593 81.1422 96.3097 82.0187 97.1663L82.0192 97.1668L82.0221 97.1703C82.6083 97.9058 82.9584 99.0353 82.792 100.257C82.6526 101.48 81.9191 102.752 80.7497 103.629C79.5914 104.524 78.0466 105.042 76.4206 105.133C74.7892 105.232 73.0895 104.985 71.3918 104.58C68.6215 103.912 66.1354 102.718 64.0956 101.349C63.0663 100.683 62.0917 100.048 61.1041 99.6075C60.1226 99.1563 59.1306 98.9317 58.2157 98.8705C56.3736 98.7494 54.9045 99.227 53.9793 99.6578C53.0455 100.099 52.6018 100.476 52.5839 100.448C52.5839 100.448 53.0037 100.042 53.9354 99.5667C54.8587 99.103 56.3433 98.5876 58.2272 98.6872C59.1609 98.737 60.1858 98.9586 61.1918 99.4108C62.2032 99.852 63.1933 100.489 64.2246 101.148C66.2609 102.498 68.7126 103.666 71.4536 104.328C73.1323 104.729 74.8126 104.974 76.4052 104.882C77.9948 104.798 79.4873 104.303 80.6113 103.448C81.7447 102.606 82.4519 101.403 82.5998 100.231C82.7726 99.0597 82.4524 97.9755 81.9051 97.2619L81.9086 97.2659C81.0944 96.4422 80.0964 96.2629 79.4903 96.3336C78.8658 96.4009 78.5561 96.5727 78.5471 96.5438Z" fill="#455A64"/>
<path d="M75.9086 92.1568C75.9086 92.1568 75.943 92.5851 75.6736 93.2967C75.4022 93.9954 74.7319 94.9446 73.5456 95.6199C72.9605 95.9605 72.2588 96.2379 71.468 96.3654C70.6806 96.4964 69.8216 96.4914 68.9381 96.3754C67.1603 96.1552 65.3221 95.4546 63.3884 94.8525C61.4616 94.2504 59.511 93.8928 57.7994 94.2623C56.0887 94.6134 54.7471 95.5796 53.8711 96.5512C52.9827 97.5317 52.5136 98.5227 52.2795 99.2219C52.0494 99.9276 52.0066 100.342 51.9757 100.336C51.9668 100.335 51.9767 100.232 52.0036 100.037C52.0216 99.8389 52.0878 99.5556 52.1834 99.1911C52.3911 98.4724 52.8428 97.448 53.7347 96.4281C54.6141 95.4182 55.9802 94.4058 57.7501 94.0278C59.5224 93.6324 61.5244 93.9979 63.4641 94.6035C65.4133 95.2115 67.2295 95.9097 68.9695 96.1378C69.8335 96.2578 70.6707 96.2698 71.4341 96.1523C72.197 96.0382 72.8813 95.7798 73.4545 95.4595C74.6168 94.8241 75.2866 93.9252 75.5799 93.2564C75.8713 92.5771 75.8753 92.1508 75.9086 92.1568Z" fill="#455A64"/>
<path d="M119.861 190.25C121.27 190.435 122.523 191.33 123.354 192.483C124.184 193.635 124.628 195.027 124.863 196.429C125.317 199.14 124.584 202.218 123.579 204.777C120.815 203.48 119.342 200.259 118.697 198.578C117.678 195.921 117.45 190.501 119.861 190.25Z" fill="#E8505B"/>
<path d="M127.653 208.592C126.776 207.269 126.797 205.458 127.546 204.059C128.296 202.659 129.697 201.67 131.224 201.239C131.931 201.04 132.747 200.969 133.347 201.39C133.909 201.785 134.138 202.538 134.049 203.218C133.959 203.898 133.599 204.514 133.179 205.057C131.738 206.917 130.001 208.452 127.653 208.592Z" fill="#E8505B"/>
<path d="M126.955 217.179C126.933 217.18 126.901 216.977 126.862 216.609C126.823 216.24 126.777 215.706 126.74 215.043C126.674 213.724 126.619 211.865 127.056 209.862C127.495 207.858 128.467 206.2 129.411 205.248C129.878 204.766 130.314 204.436 130.634 204.243C130.953 204.049 131.144 203.968 131.152 203.983C131.188 204.035 130.442 204.416 129.571 205.396C128.694 206.359 127.785 207.976 127.356 209.929C126.929 211.884 126.947 213.72 126.958 215.036C126.979 216.357 127 217.177 126.955 217.179Z" fill="#263238"/>
<path d="M120.504 194.362C120.524 194.356 120.647 194.672 120.853 195.249C121.059 195.826 121.343 196.665 121.682 197.706C122.363 199.789 123.255 202.68 124.161 205.897C125.067 209.115 125.816 212.048 126.322 214.179C126.576 215.244 126.772 216.109 126.897 216.708C127.023 217.308 127.083 217.641 127.062 217.646C127.041 217.651 126.942 217.327 126.78 216.737C126.608 216.093 126.383 215.25 126.11 214.232C125.55 212.116 124.769 209.196 123.864 205.981C122.959 202.767 122.101 199.869 121.474 197.771C121.175 196.761 120.927 195.924 120.738 195.285C120.568 194.698 120.484 194.369 120.504 194.362Z" fill="#263238"/>
<path d="M123.972 211.17C122.624 208.107 119.709 205.785 116.422 205.155C115.585 204.995 114.553 205.018 114.088 205.732C113.622 206.447 114.021 207.405 114.523 208.095C116.611 210.967 120.553 212.345 123.976 211.401" fill="#E8505B"/>
<path d="M117.341 207.564C117.344 207.543 117.539 207.564 117.891 207.62C118.068 207.645 118.283 207.685 118.526 207.755C118.77 207.823 119.054 207.884 119.351 208.003C119.958 208.204 120.652 208.525 121.384 208.951C122.106 209.391 122.86 209.945 123.567 210.621C124.265 211.307 124.844 212.042 125.307 212.749C125.756 213.467 126.1 214.151 126.32 214.75C126.448 215.043 126.518 215.325 126.594 215.566C126.673 215.807 126.719 216.021 126.749 216.196C126.817 216.547 126.844 216.74 126.823 216.745C126.764 216.758 126.613 215.985 126.118 214.832C125.876 214.254 125.52 213.596 125.07 212.904C124.604 212.222 124.033 211.511 123.352 210.842C122.662 210.183 121.933 209.636 121.236 209.193C120.529 208.764 119.861 208.43 119.275 208.207C118.107 207.749 117.329 207.623 117.341 207.564Z" fill="#263238"/>
</svg>
