<svg width="115" height="99" viewBox="0 0 115 99" fill="none" xmlns="http://www.w3.org/2000/svg">
<path d="M33.4433 2.56569C25.3002 7.38041 18.9003 14.8469 14.5992 23.2715C10.298 31.696 8.03634 41.0538 7.11784 50.466C6.11539 60.7374 6.91539 71.8187 13.0091 80.1444C17.7448 86.6233 25.1373 90.6529 32.668 93.4331C50.2578 99.9218 69.9561 100.544 87.9212 95.1762C95.4174 92.9392 102.849 89.5121 107.955 83.5863C112.266 78.5889 114.642 71.9619 114.494 65.3645C114.345 58.7671 111.669 52.2536 107.136 47.4537C101.768 41.7699 94.2421 38.6983 87.9607 34.0416C81.9065 29.5528 77.0819 23.6468 72.0499 18.037C67.0179 12.4322 61.5711 6.95079 54.7811 3.68172C47.9911 0.412644 39.2604 -0.871283 33.4433 2.56569Z" fill="#6785B4"/>
<path d="M23.9867 70.3026C30.9903 70.3026 36.6679 69.2613 36.6679 67.9768C36.6679 66.6922 30.9903 65.6509 23.9867 65.6509C16.983 65.6509 11.3054 66.6922 11.3054 67.9768C11.3054 69.2613 16.983 70.3026 23.9867 70.3026Z" fill="#CCCFD4"/>
<path d="M34.1642 54.1846V61.1672C34.1642 63.1079 33.4729 64.8807 32.3075 66.2535V66.2584C30.8606 67.9868 28.6828 69.0781 26.2533 69.0781H21.483C17.1127 69.0781 13.572 65.5374 13.572 61.1672V54.1846H34.1642Z" fill="#FAA540"/>
<path d="M23.8681 55.809C29.5545 55.809 34.1642 55.0794 34.1642 54.1794C34.1642 53.2794 29.5545 52.5498 23.8681 52.5498C18.1817 52.5498 13.572 53.2794 13.572 54.1794C13.572 55.0794 18.1817 55.809 23.8681 55.809Z" fill="#FFCB7A"/>
<path d="M23.868 55.394C29.009 55.394 33.1765 54.8103 33.1765 54.0903C33.1765 53.3703 29.009 52.7866 23.868 52.7866C18.7271 52.7866 14.5596 53.3703 14.5596 54.0903C14.5596 54.8103 18.7271 55.394 23.868 55.394Z" fill="#4D0746"/>
<path d="M13.572 57.2215C16.4164 57.9227 25.8236 59.8387 34.1692 56.8906V59.4634C31.6754 60.2831 24.2385 62.1448 13.572 59.6264" fill="#4D0746"/>
<mask id="mask0_918_15650" style="mask-type:luminance" maskUnits="userSpaceOnUse" x="6" y="15" width="36" height="41">
<path d="M14.535 52.6784C14.535 52.0808 6.03145 46.313 6.48083 38.6095C7.05859 28.7035 14.693 17.2766 34.8111 15.4001C38.0407 15.0988 42.4752 28.348 40.9789 39.8045C40.016 47.1871 33.7889 52.145 33.7889 52.6784C33.7889 54.0413 29.4779 55.1474 24.1644 55.1474C18.851 55.1474 14.535 54.0413 14.535 52.6784Z" fill="white"/>
</mask>
<g mask="url(#mask0_918_15650)">
<path d="M38.8555 31.8539C37.4728 32.9403 36.184 34.3724 35.0186 36.1106C31.1618 41.8044 28.6582 50.5992 28.5397 59.6954C25.8681 59.4139 23.0139 59.1917 20.1547 58.9793C19.5473 50.5301 18.1498 42.234 15.9621 34.7773V34.7675C14.9943 31.4737 13.8782 28.3429 12.6091 25.4146C15.4387 26.1997 17.9868 28.5799 19.9917 31.9428C19.9917 31.9428 19.9966 31.9428 19.9966 31.9527C22.2534 35.7353 23.8237 40.7822 24.3274 46.2635C24.9941 40.8019 27.1422 36.2143 29.873 33.5971C30.2384 33.2465 30.6137 32.9255 30.9989 32.6539C33.4779 30.8465 36.2827 30.5404 38.8555 31.8539Z" fill="#2D6A7A"/>
<path d="M37.0678 32.3727C35.053 31.9036 32.9938 32.0122 30.9988 32.6641C33.4777 30.8468 36.2826 30.5406 38.8554 31.8542C37.4727 32.9406 36.1839 34.3727 35.0184 36.1109C35.611 34.7085 36.3024 33.4591 37.0678 32.3727Z" fill="#3E828C"/>
<path d="M14.8461 27.6767C15.3449 29.968 15.7202 32.3482 15.9621 34.7728C14.9943 31.4791 13.8782 28.3483 12.6091 25.4199C15.4387 26.2051 17.9868 28.5853 19.9917 31.9482C18.3473 30.1063 16.5992 28.6544 14.8461 27.6767Z" fill="#3E828C"/>
<path d="M35.9124 32.6343C33.068 34.0417 30.4408 36.9157 28.4211 40.8366C26.3965 44.7575 24.9792 49.7204 24.3718 54.9993" stroke="#254970" stroke-width="0.5" stroke-miterlimit="10" stroke-linecap="round"/>
<path d="M15.325 28.5703C18.7076 35.4541 21.2755 43.6762 22.8112 52.5007" stroke="#254970" stroke-width="0.5" stroke-miterlimit="10" stroke-linecap="round"/>
<path d="M40.2383 41.7255C39.0531 42.2193 37.9173 43.0045 36.8458 44.0365H36.8408C32.8261 47.8982 29.7891 55.2314 29.0583 63.4584C27.1867 63.2016 25.3744 63.0288 23.6016 62.8411C23.4979 62.8312 23.3942 62.8214 23.2954 62.8065C22.851 62.7621 22.4115 62.7177 21.972 62.6732C20.9596 62.5596 19.9572 62.4362 18.9547 62.293C17.7844 55.5672 15.5721 49.7352 12.7178 45.2908C12.7178 45.281 12.7178 45.281 12.7129 45.281C11.0932 42.7427 9.25617 40.6638 7.29077 39.1379C10.2487 38.249 13.345 39.2268 16.0215 41.6958C17.8091 43.3353 19.4041 45.6464 20.6584 48.4908C20.5152 46.1797 20.5794 43.8538 20.8313 41.5921C21.3547 36.6737 22.7078 32.0121 24.5448 28.2739C27.2311 22.8024 30.8607 19.1185 34.6334 16.605C33.5717 19.1333 32.6137 21.8148 31.7693 24.5999C29.6261 31.6072 28.199 39.3255 27.5817 47.2661C28.0558 46.4118 28.5694 45.6464 29.1027 44.955H29.1076C32.357 40.7428 36.5544 39.5823 40.2383 41.7255Z" fill="#3B8A94"/>
<path d="M29.7988 24.106C27.3544 29.8639 25.8335 36.7872 24.8853 43.8685C23.9372 50.9499 23.5372 58.2337 23.1372 65.4879" stroke="#254970" stroke-width="0.5" stroke-miterlimit="10" stroke-linecap="round"/>
<path d="M35.1912 42.5747C29.6703 47.5178 25.147 56.0905 22.6433 66.357" stroke="#254970" stroke-width="0.5" stroke-miterlimit="10" stroke-linecap="round"/>
<path d="M12.7029 41.5278C17.5324 46.2438 21.1274 55.0041 22.2582 64.8064" stroke="#254970" stroke-width="0.5" stroke-miterlimit="10" stroke-linecap="round"/>
<path d="M31.7642 24.5999C32.0506 22.9851 32.337 21.3555 32.6135 19.716C27.3889 23.9974 23.1174 31.9923 20.8311 41.5921C21.3545 36.6737 22.7076 32.0121 24.5446 28.2739C27.2309 22.8024 30.8605 19.1185 34.6332 16.605C33.5617 19.1333 32.6037 21.8148 31.7642 24.5999Z" fill="#4AA5A8"/>
<path d="M36.8456 44.0317C37.2357 43.2219 37.6209 42.4268 37.9962 41.6614C34.9691 41.9972 31.9667 43.1132 29.1025 44.9552C32.3568 40.7429 36.5542 39.5775 40.2381 41.7207C39.053 42.2145 37.9172 42.9997 36.8456 44.0317Z" fill="#4AA5A8"/>
<path d="M12.7078 45.2861C11.088 42.7479 9.25104 40.6689 7.28564 39.143C10.2436 38.2542 13.3398 39.2319 16.0163 41.701C14.1003 40.5307 12.046 40.1652 10.0609 40.7134C11.0979 41.8985 12.0016 43.4689 12.7078 45.2861Z" fill="#4AA5A8"/>
</g>
<mask id="mask1_918_15650" style="mask-type:luminance" maskUnits="userSpaceOnUse" x="6" y="0" width="109" height="99">
<path d="M33.4433 2.56569C25.3002 7.38041 18.9003 14.8469 14.5992 23.2715C10.298 31.696 8.03634 41.0538 7.11784 50.466C6.11539 60.7374 6.91539 71.8187 13.0091 80.1444C17.7448 86.6233 25.1373 90.6529 32.668 93.4331C50.2578 99.9218 69.9561 100.544 87.9212 95.1762C95.4174 92.9392 102.849 89.5121 107.955 83.5863C112.266 78.5889 114.642 71.9619 114.494 65.3645C114.345 58.7671 111.669 52.2536 107.136 47.4537C101.768 41.7699 94.2421 38.6983 87.9607 34.0416C81.9065 29.5528 77.0819 23.6468 72.0499 18.037C67.0179 12.4322 61.5711 6.95079 54.7811 3.68172C47.9911 0.412644 39.2604 -0.871283 33.4433 2.56569Z" fill="white"/>
</mask>
<g mask="url(#mask1_918_15650)">
<path d="M41.0332 66.9795V-7.27588H97.3531V70.9152L41.0332 66.9795Z" fill="#FAC98F"/>
<path d="M95.3728 68.377L77.9115 67.2461L57.1366 65.898L51.1416 65.5079L43.127 64.9894V-7.27588H95.2593L95.2642 -3.92286L95.3185 31.316L95.3284 37.3504V37.3553L95.3482 53.2415L95.3728 68.377Z" fill="#FFFAF0"/>
<path d="M82.9731 -7.27588L43.127 23.9433V-7.27588H82.9731Z" fill="#F5EADA"/>
<path d="M43.127 37.3553L95.2642 -3.92286L95.2593 -7.27588H92.9285L43.127 31.5283V37.3553Z" fill="#F5EADA"/>
<path d="M95.3284 37.3504V37.3553L57.1365 65.898L51.1416 65.5078L95.3185 31.3159L95.3284 37.3504Z" fill="#F5EADA"/>
<path d="M95.3728 68.3767L77.9114 67.2459L95.3481 53.2412L95.3728 68.3767Z" fill="#F5EADA"/>
<path d="M70.3559 -8.71777H68.03V67.1474H70.3559V-8.71777Z" fill="#FAC98F"/>
<path d="M41.8485 45.6365L41.7754 47.729L96.6653 49.6458L96.7384 47.5533L41.8485 45.6365Z" fill="#FAC98F"/>
<path d="M41.7473 13.3309L41.7107 15.4243L96.6196 16.3854L96.6563 14.292L41.7473 13.3309Z" fill="#FAC98F"/>
<path d="M53.0034 -8.66805C52.8059 4.14651 52.5936 17.1092 49.3591 29.504C48.3714 33.2867 47.2357 37.2224 45.1863 40.3878C43.9913 42.2346 42.4752 43.8247 40.5 44.9605C40.5 44.9605 38.6037 45.1284 37.9124 45.0593C38.0655 27.5238 37.5963 12.9216 36.0161 -6.73723C40.5494 -7.77918 46.3863 -8.70262 50.6677 -8.70756C51.4627 -8.7125 52.238 -8.69768 53.0034 -8.66805Z" fill="#9747FF"/>
<path d="M38.8208 47.7558C38.9541 38.4276 39.0825 29.1043 39.2158 19.7761C39.2208 19.2526 39.2652 18.6551 39.685 18.344C40.164 17.9835 40.8998 18.2354 41.2553 18.7144C41.6109 19.1934 41.6899 19.8205 41.7491 20.4131C42.6676 29.7364 41.6207 39.2424 38.8208 47.7558Z" fill="#563189"/>
<path d="M38.248 47.8788C41.211 41.7407 42.5838 34.9507 43.2554 28.1706C43.927 21.3905 43.927 14.5659 44.2874 7.7611C44.322 7.06976 44.3714 6.34878 44.7319 5.7562C45.0874 5.16362 45.8578 4.75869 46.4899 5.04017C47.0528 5.29201 47.2898 5.94879 47.4331 6.55125C48.0256 9.04009 47.9763 11.6326 47.8627 14.1857C47.6059 20.1658 47.0479 26.1558 45.6454 31.973C44.243 37.7901 41.9813 43.4444 38.248 47.8788Z" fill="#563189"/>
<path d="M53.0034 -8.66796C52.8059 4.14661 52.5935 17.1093 49.359 29.5041C48.3714 33.2868 47.2356 37.2225 45.1863 40.3879C50.5886 24.6944 52.4849 7.79592 50.6676 -8.7124C51.4627 -8.7124 52.238 -8.69759 53.0034 -8.66796Z" fill="#020336"/>
<path d="M44.8554 61.5329C44.2332 61.123 43.5024 61.1082 42.8258 61.286C42.016 61.4934 41.2802 61.9773 40.8654 62.3921C40.1148 63.1427 37.7445 63.0884 36.5297 62.1403C35.8877 61.6366 34.7766 61.6317 34.0359 62.3032C35.1914 57.6268 36.6531 52.3578 37.9815 46.9801C38.8704 46.9406 39.9321 47.148 40.9197 47.1628C40.9938 47.4146 41.0679 47.6714 41.137 47.9332C42.3172 52.0714 43.7098 57.5824 44.8554 61.5329Z" fill="#9747FF"/>
<path d="M39.1518 46.6543C39.1321 49.79 38.6383 52.9208 37.6852 55.9035C37.5766 56.2393 37.463 56.585 37.4827 56.9405C37.5025 57.2961 37.6951 57.6615 38.0309 57.78C38.4012 57.9133 38.8259 57.6862 39.0432 57.3553C39.2605 57.0245 39.3247 56.6195 39.3691 56.2294C39.7642 53.0443 39.7148 49.8246 39.1518 46.6543Z" fill="#563189"/>
<path d="M39.7295 46.7036C40.0949 50.5653 40.4653 54.4269 40.8307 58.2935C40.885 58.8565 41.127 59.5922 41.6899 59.5478C42.2578 59.5034 42.3813 58.733 42.3368 58.1651C42.0257 54.2689 41.3986 50.3974 39.7295 46.7036Z" fill="#563189"/>
<path d="M44.8554 61.5328C44.2332 61.123 43.5024 61.1082 42.8258 61.2859C43.4628 58.0169 42.016 52.5849 41.137 47.9331C42.3172 52.0713 43.7098 57.5823 44.8554 61.5328Z" fill="#020336"/>
<path d="M37.9173 44.5356C39.0828 44.7381 40.2926 44.664 41.463 44.3184C41.5963 45.4245 41.4284 46.5652 40.979 47.5776C39.9568 47.8837 38.8605 47.9479 37.8235 47.8146C37.5124 46.7331 37.5815 45.548 37.9173 44.5356Z" fill="#422447"/>
</g>
<path d="M0.500638 81.6905C0.624092 78.135 23.9026 78.1498 51.7095 79.1325C79.5164 80.1152 99.9209 83.562 99.7975 87.1175C99.674 90.673 75.3189 92.4063 47.3639 90.115C19.6311 87.8434 0.372246 85.241 0.500638 81.6905Z" fill="#CCCFD4"/>
<path d="M15.5324 81.2755C10.0609 79.6361 9.20655 79.5225 3.36963 81.2805C3.02396 81.3842 2.33261 81.6459 1.99188 81.5274C1.12276 81.236 1.17214 79.6015 1.77459 78.9793C2.78692 77.9324 5.15725 77.2559 5.5523 76.7275C6.34735 75.6658 7.02881 73.9868 7.84361 73.1819C8.5152 72.5202 10.125 72.7226 10.051 75.4979C11.9769 75.6658 13.0929 75.5571 14.9151 75.883C15.0978 77.5225 15.1175 79.1324 15.5324 81.2755Z" fill="#F18576"/>
<path d="M40.8654 71.814C33.6606 73.2658 23.1028 74.1053 15.7498 73.6312C14.6585 74.4016 13.8486 75.725 13.5524 77.2015C13.2561 78.683 13.4783 80.3027 14.1449 81.7792C21.5423 82.8607 29.0385 83.0187 36.4655 82.2483C37.0136 79.078 40.7864 75.5917 40.8654 71.814Z" fill="#9C2245"/>
<path d="M14.5201 81.8333C14.1152 81.5716 13.9177 81.0087 13.809 80.4704C13.5473 79.1815 13.6313 77.7988 14.0411 76.5692C14.451 75.3396 15.1868 74.273 16.1448 73.5668C15.33 73.4285 14.5103 73.2903 13.6856 73.1816C12.4412 73.8434 11.4585 75.1767 11.0585 76.7421C10.6585 78.3075 10.8511 80.0753 11.5622 81.4531C12.5695 81.7049 13.5967 81.8284 14.5201 81.8333Z" fill="#FCCCCC"/>
<path d="M32.5396 62.5153C32.1149 62.8708 31.8976 63.0634 31.2557 63.4239C30.9594 64.0066 30.7026 64.5251 30.4656 65.0189C30.4557 65.0337 30.4507 65.0436 30.4507 65.0584C30.4112 65.1325 30.3816 65.2016 30.347 65.2708C29.868 66.2535 29.4483 67.1571 28.9002 68.2682C27.2557 68.2682 25.5126 68.2337 23.7743 68.204C24.4607 66.8065 25.3694 65.414 26.2632 64.0609C26.2977 64.0066 26.3373 63.9523 26.3718 63.9029C26.4014 63.8535 26.436 63.8041 26.4656 63.7597C26.8409 63.1819 27.2162 62.6091 27.5619 62.0461C25.9076 59.9178 23.9126 58.5697 23.6657 58.2931C23.4879 58.1005 23.1472 58.0956 22.9546 57.4141C22.8114 56.9351 23.4533 54.9845 23.7842 54.6092C24.1595 54.1747 25.6163 54.9055 26.7076 55.5475C28.6088 56.6734 30.3668 58.4906 30.9347 58.7622C31.4483 59.0141 32.347 59.3795 33.2161 60.0857C33.8581 60.6141 33.6062 61.6214 32.5396 62.5153Z" fill="#FDAD91"/>
<path d="M30.446 65.0584C30.4064 65.1324 30.3768 65.2016 30.3423 65.2707C29.8633 66.2534 29.4435 67.1571 28.8954 68.2682C27.2509 68.2682 25.5078 68.2336 23.7695 68.204C24.4559 66.8065 25.3646 65.4139 26.2584 64.0608C26.2929 64.0065 26.3324 63.9522 26.367 63.9028C27.7843 64.0213 29.1768 64.4164 30.446 65.0584Z" fill="#F18576"/>
<path d="M46.4899 84.8063C42.2875 84.8063 38.0703 84.7174 33.8828 84.4013C29.5915 84.0902 25.3249 83.547 21.1176 82.6483C20.1793 82.4458 19.1571 82.1791 18.609 81.389C18.0115 80.5347 18.1744 79.3841 18.4016 78.3718C19.4188 73.8978 21.3447 69.6312 24.0212 65.9079C26.0903 65.6313 28.7174 65.8782 30.8507 66.3078C29.8828 68.6782 28.9742 70.5695 28.0705 73.6608C32.9248 74.204 37.6506 72.2534 42.4209 71.5226C43.8134 71.3053 45.2109 71.1966 46.6084 71.2806C46.7023 75.6904 46.6529 80.1002 46.4899 84.8063Z" fill="#BA2F4A"/>
<path d="M46.49 84.806C42.2876 84.806 38.0704 84.7171 33.8828 84.4011C35.6013 83.9813 37.2358 83.0924 38.1691 81.6061C39.0728 80.169 39.1963 78.3962 39.5815 76.742C39.9518 75.142 40.6037 73.5815 41.6555 72.3124C41.8925 72.0309 42.1444 71.7643 42.416 71.5223C43.8085 71.305 45.2061 71.1964 46.6036 71.2803C46.7023 75.6901 46.6529 80.0999 46.49 84.806Z" fill="#9C2245"/>
<path d="M22.5693 67.8188C24.9841 67.8484 27.626 67.9719 29.9865 68.4114C30.5494 67.2707 30.8655 66.6435 31.0284 65.4337C28.668 64.7818 26.7619 64.8065 24.3175 64.688C23.5619 65.6411 22.6879 66.7719 22.5693 67.8188Z" fill="#FCCCCC"/>
<path d="M76.8251 85.0234C69.9215 87.7394 67.1462 85.532 66.2623 84.1839C66.2277 84.1345 66.1932 84.0753 66.1635 84.0259C64.3858 81.2506 63.2303 77.3594 63.65 74.1199C64.0401 71.0879 64.371 69.0089 66.6425 66.525C66.8401 66.3077 67.0475 66.0855 67.2796 65.8633C70.0153 69.8928 70.0351 77.3297 70.5931 78.4853C70.8992 79.1025 75.2794 79.063 76.8547 80.1346C78.1435 81.0037 78.4695 84.3814 76.8251 85.0234Z" fill="#2B618A"/>
<path d="M68.3018 84.2332C67.5907 84.1641 66.8746 84.0949 66.1635 84.0258C64.3858 81.2505 63.2303 77.3593 63.65 74.1198C64.0401 71.0878 64.371 69.0088 66.6425 66.5249C67.0969 69.3051 66.9833 72.1742 66.2969 74.905C65.8673 76.6235 65.2154 78.3716 65.5265 80.1098C65.8278 81.774 66.9882 83.1666 68.3018 84.2332Z" fill="#1A4B78"/>
<path d="M75.9461 85.2947C75.3881 84.2182 75.2597 82.9244 75.5906 81.759C75.7091 81.3343 76.0301 80.559 76.4301 80.3714C76.7856 80.2084 78.5732 81.1516 78.9238 81.3244C79.3782 81.5516 78.4893 85.2256 78.1683 85.3293C77.7239 85.4725 76.672 85.4429 75.9461 85.2947Z" fill="#448AAB"/>
<path d="M83.1952 82.2922C81.7927 82.0305 80.3903 81.7688 78.9878 81.507C78.8199 81.4774 78.6372 81.4428 78.4792 81.512C78.2718 81.6009 78.173 81.833 78.1039 82.0502C77.8076 82.9687 77.9557 84.9094 77.9557 84.9094C77.9557 84.9094 80.2569 85.1761 81.4026 85.3094C81.6495 85.3391 81.9162 85.3638 82.1334 85.2502C82.3557 85.1366 82.4841 84.8996 82.5927 84.6773C82.9927 83.8774 83.2989 83.0329 83.1952 82.2922Z" fill="#F18576"/>
<path d="M46.0158 70.9891C45.359 70.3669 44.2479 70.4706 43.5121 70.999C42.7763 71.5274 42.3516 72.3767 42.0109 73.2162C41.2257 75.1569 40.7813 77.2557 40.8801 79.3445C40.9788 81.4383 41.6751 83.8135 42.3467 84.8061C42.7319 85.374 45.7936 85.6308 46.6627 85.3691C44.6677 80.9988 44.3319 75.8927 46.0158 70.9891Z" fill="#448AAB"/>
<path d="M66.919 69.6313C66.7165 71.2263 66.356 72.8065 65.8375 74.3373C65.2795 75.9818 64.5536 77.5718 63.6598 79.0632C60.9783 83.068 56.3661 85.7198 51.5662 85.9865C49.9069 86.1346 48.3169 86.1643 46.791 85.7791C45.2651 85.389 43.7984 84.5199 43.033 83.147C42.796 82.7224 42.6182 82.194 42.4849 81.6212C42.2034 80.4113 42.1343 79.0187 42.2182 78.0015C42.396 75.9966 42.7861 73.5571 43.9564 71.9176C46.1836 68.7819 48.786 71.3991 49.423 71.0288C51.0427 70.0856 56.1488 64.7622 60.5734 63.3894C62.5882 62.7623 64.6326 63.4487 65.8622 64.6931C67.0918 65.9375 67.1362 67.9029 66.919 69.6313Z" fill="#326E94"/>
<path d="M65.8326 74.3372C65.2746 75.9816 64.5487 77.5717 63.6549 79.063C60.9734 83.0679 56.3612 85.7197 51.5613 85.9863C49.9021 86.1345 48.312 86.1641 46.7861 85.7789C45.2602 85.3888 43.7935 84.5197 43.0281 83.1469C42.7911 82.7222 42.6133 82.1938 42.48 81.621C43.117 82.4506 44.0306 83.0876 45.0133 83.4728C46.3663 84.0061 47.8478 84.1049 49.2996 84.0456C49.3045 84.0456 49.3045 84.0456 49.3095 84.0456C50.1095 84.016 50.7959 83.4679 51.0329 82.7074C51.1465 82.3419 51.2205 81.9568 51.2601 81.5765C51.3489 80.6926 51.2847 79.8037 51.2847 78.9148C51.2897 76.1989 51.9168 73.4829 53.1119 71.0483C53.3094 75.7396 53.823 79.5321 54.6625 83.0876C56.3464 82.5543 57.9562 81.8037 59.4377 80.8506C62.0352 79.2013 64.2326 76.9495 65.8326 74.3372Z" fill="#2B618A"/>
<path d="M59.0822 64.2192C58.7365 66.5896 59.3982 69.0932 60.8649 70.9845C61.2797 71.5228 61.8179 72.0413 62.4895 72.1203C63.2303 72.2092 63.9265 71.75 64.4648 71.2314C65.7833 69.9673 66.6425 68.234 66.85 66.4217C64.4648 65.2217 61.8624 64.4661 59.0822 64.2192Z" fill="#448AAB"/>
<path d="M66.2622 66.9155C66.0597 67.6464 65.6844 68.4513 65.2202 69.1575C64.7511 69.8883 64.1882 70.5155 63.6499 70.8364C62.8302 71.3303 62.0796 71.3204 61.4771 70.5599C60.4253 69.2217 59.7932 67.4735 59.7142 65.6909C59.6994 65.3748 59.6994 65.0538 59.7191 64.7378C61.7487 65.6563 64.2079 66.4365 66.2622 66.9155Z" fill="#F18576"/>
<path d="M66.2622 66.9155C66.0597 67.6464 65.6844 68.4513 65.2202 69.1575C63.0178 68.8167 60.9586 67.5328 59.7142 65.6909C59.6994 65.3748 59.6994 65.0538 59.7191 64.7378C61.7487 65.6563 64.2079 66.4365 66.2622 66.9155Z" fill="#C75554"/>
<path d="M68.4944 59.8685C68.7364 59.3154 69.1363 58.8117 69.6795 58.5451C70.2227 58.2784 70.9141 58.2784 71.403 58.629C71.9511 59.0191 72.1585 59.7846 71.9857 60.4315C71.8128 61.0784 71.3042 61.6067 70.7067 61.9129C70.1092 62.2191 69.4277 62.3277 68.7561 62.3722C68.7462 62.3722 68.7364 62.3722 68.7314 62.3722" fill="#F18576"/>
<path d="M56.8649 61.5968C55.7933 57.2956 57.897 53.0636 61.571 52.15C65.245 51.2365 69.3585 52.7377 69.8425 59.5524C70.1832 64.377 68.2375 67.6362 65.6746 68.1596C62.0253 68.9053 57.9415 65.9029 56.8649 61.5968Z" fill="#FDAD91"/>
<path d="M58.0305 60.9102C59.1466 59.8188 59.9268 58.3966 60.2379 56.9053C60.9737 57.409 61.8231 57.7497 62.702 57.8929C63.0625 57.9522 63.4329 57.9818 63.7835 57.9028C64.1341 57.8238 64.4798 57.6263 64.6674 57.3152C64.86 57.0041 64.8699 56.5794 64.5045 56.2337C65.7785 56.5053 67.0476 56.7818 68.4649 57.0485C68.9834 57.3004 69.418 57.725 69.6747 58.2386C69.7587 57.2411 69.7982 56.1004 69.092 55.3843C68.7513 55.0387 68.2871 54.851 67.8328 54.6782C65.6254 53.8436 63.2551 53.177 60.9292 53.5622C59.7688 53.7547 58.5885 54.2683 57.9614 55.2609C57.512 55.972 57.3984 56.846 57.3984 57.6855C57.4083 58.53 57.512 59.3695 58.0305 60.9102Z" fill="#F18576"/>
<path d="M66.5439 62.5303C66.7464 63.1871 66.8057 63.5673 66.7168 64.2488" stroke="#AD4044" stroke-miterlimit="10" stroke-linecap="round"/>
<path d="M66.465 65.2167C65.4279 65.1575 64.4008 64.9402 63.4428 64.5698C63.1169 65.0785 63.1712 65.7649 63.5712 66.2241C63.9712 66.6834 64.6921 66.8858 65.3045 66.713C65.9168 66.5402 66.3859 65.997 66.465 65.2167Z" fill="#AD4044"/>
<path d="M63.1759 63.2959C63.3259 63.2959 63.4475 63.0903 63.4475 62.8367C63.4475 62.5831 63.3259 62.3774 63.1759 62.3774C63.0259 62.3774 62.9043 62.5831 62.9043 62.8367C62.9043 63.0903 63.0259 63.2959 63.1759 63.2959Z" fill="#3C4659"/>
<path d="M68.2228 62.3775C68.3728 62.3775 68.4944 62.1719 68.4944 61.9182C68.4944 61.6646 68.3728 61.459 68.2228 61.459C68.0728 61.459 67.9512 61.6646 67.9512 61.9182C67.9512 62.1719 68.0728 62.3775 68.2228 62.3775Z" fill="#3C4659"/>
<path d="M63.4476 59.6612C62.5341 59.4439 61.5119 59.8192 60.9539 60.5748" stroke="#0C1A3B" stroke-miterlimit="10" stroke-linecap="round"/>
<path d="M67.092 59.1725C67.7587 58.7429 68.6969 58.7824 69.3241 59.2713" stroke="#0C1A3B" stroke-miterlimit="10" stroke-linecap="round"/>
<path d="M73.7783 53.3057C73.6993 53.9032 73.1561 54.323 72.6326 54.6094C72.6277 54.6094 72.6277 54.6143 72.6228 54.6143C71.9265 54.9946 71.166 55.276 70.3315 55.4094C70.3166 56.6488 70.124 57.9871 69.8327 59.1871C69.5808 58.3821 69.25 57.2365 68.8056 56.5649C67.2649 56.2933 65.1118 55.9476 63.6254 55.3946C63.7736 55.6612 63.9266 55.9279 63.976 56.2192C64.0254 56.5056 63.9662 56.8365 63.7489 57.039C63.4575 57.3056 63.0032 57.2562 62.618 57.1772C61.5909 56.96 60.5983 56.5896 59.6699 56.0859C59.1712 58.876 58.6724 60.2191 57.2799 63.3055C55.5219 60.5796 55.0527 57.0538 56.1342 53.7106C56.7218 52.1798 57.6206 50.7724 58.7564 49.5873C59.5564 48.7428 60.4749 48.012 61.4773 47.4194C62.1785 47.0046 63.1365 46.6836 63.7538 47.212C64.3266 47.7058 64.2229 48.6095 64.1242 49.5527C65.6896 48.6342 67.3982 47.8737 69.2105 47.8046C69.7142 47.7898 70.2673 47.8391 70.6475 48.1749C71.171 48.6342 71.1808 49.4786 70.8549 50.0959C70.529 50.7132 69.9562 51.1477 69.4673 51.523C70.6376 51.365 71.9117 51.2267 72.924 51.8341C73.4376 52.1452 73.8573 52.7082 73.7783 53.3057Z" fill="#0C1A3B"/>
<path d="M73.7781 53.3056C73.6991 53.9032 73.1559 54.3229 72.6325 54.6093C72.7164 54.4957 72.7954 54.3772 72.8646 54.2488C73.0917 53.8143 73.1362 53.2464 72.8547 52.8464C72.6127 52.5007 72.193 52.3378 71.7831 52.2291C70.5091 51.8835 69.1511 51.8637 67.8671 52.1797C68.6869 51.4637 69.3585 50.8563 69.9017 50.1452C70.0893 49.8983 70.272 49.5971 70.2078 49.2909C70.1486 48.9996 69.877 48.7922 69.5856 48.728C69.2992 48.6588 68.998 48.7033 68.7066 48.7526C66.8104 49.0934 64.9684 49.7403 63.2746 50.6687C63.4129 50.0316 63.5759 49.5625 63.5611 49.0786C63.5462 48.5996 63.3043 48.0909 62.8648 47.9033C62.4154 47.7107 61.9068 47.8835 61.4574 48.0761C60.5043 48.481 59.5957 48.9897 58.7463 49.5921C59.5463 48.7477 60.4648 48.0169 61.4673 47.4243C62.1685 47.0095 63.1265 46.6885 63.7438 47.2169C64.3166 47.7107 64.2129 48.6144 64.1141 49.5576C65.6795 48.6391 67.3881 47.8786 69.2004 47.8095C69.7041 47.7946 70.2572 47.844 70.6375 48.1798C71.1609 48.6391 71.1708 49.4835 70.8449 50.1008C70.5189 50.718 69.9461 51.1526 69.4572 51.5279C70.6276 51.3699 71.9016 51.2316 72.914 51.839C73.4374 52.1452 73.8572 52.7081 73.7781 53.3056Z" fill="#23426E"/>
<path d="M58.623 61.5425C58.0453 61.2215 56.4601 60.9449 55.7984 60.94C55.1416 60.9351 54.4404 61.2758 54.1984 61.8931C53.9664 62.4856 54.2281 63.2017 54.7169 63.6115C55.2058 64.0214 55.8774 64.1597 56.5145 64.1251C57.1515 64.0905 57.7687 63.893 58.4255 63.7646" fill="#FDAD91"/>
<path d="M62.4253 87.5671V88.614C62.4253 88.7375 62.5191 88.8412 62.6475 88.851L79.6447 90.1053C79.9311 90.1251 80.2175 90.1053 80.499 90.051L96.5185 86.9153C96.8147 86.856 97.0468 86.6338 97.116 86.3375L97.3925 85.1523L62.4253 87.5671Z" fill="#1F3A59"/>
<path d="M80.1879 88.7077L62.4253 87.5719L86.5236 83.7251L93.2543 85.2312L80.1879 88.7077Z" fill="#E1F4F7"/>
<path d="M83.8916 84.9399L71.9561 87.2016L81.7682 87.8436L83.8916 84.9399Z" fill="#0C1A3B"/>
<path d="M73.4622 87.4534L82.2175 85.73" stroke="#E1F4F7" stroke-width="0.5" stroke-miterlimit="10"/>
<path d="M72.1636 86.7324L81.0622 87.4188" stroke="#E1F4F7" stroke-width="0.5" stroke-miterlimit="10"/>
<path d="M77.7683 86.6138L86.6669 87.3002" stroke="#E1F4F7" stroke-width="0.5" stroke-miterlimit="10"/>
<path d="M77.7683 86.0015L88.8051 86.9348" stroke="#E1F4F7" stroke-width="0.5" stroke-miterlimit="10"/>
<path d="M74.5781 87.8186L83.3384 86.0952" stroke="#E1F4F7" stroke-width="0.5" stroke-miterlimit="10"/>
<path d="M76.6128 87.9373L85.3731 86.2139" stroke="#E1F4F7" stroke-width="0.5" stroke-miterlimit="10"/>
<path d="M80.9338 89.0928L80.0005 88.8755C79.7931 88.8261 79.6647 88.6138 79.724 88.4113L84.351 71.3894C84.435 71.0882 84.7066 70.8759 85.0177 70.8709L100.716 70.5796C100.869 70.5746 101.022 70.6092 101.161 70.6833L101.896 71.0586L80.9338 89.0928Z" fill="#1F3A59"/>
<path d="M86.1434 71.4291L101.649 70.9846C101.931 70.9748 102.143 71.2414 102.069 71.518L98.4889 85.0486C98.3605 85.5276 97.9704 85.893 97.4864 85.9819L81.0028 89.0929C80.8151 89.1275 80.6522 88.9547 80.7016 88.767L85.1163 72.2488C85.2348 71.7747 85.6546 71.4439 86.1434 71.4291Z" fill="#0C1A3B"/>
<path d="M91.9528 77.8574C93.3074 77.7261 94.4703 78.2885 94.5503 79.1137C94.6303 79.9389 93.5972 80.7146 92.2427 80.846C90.8882 80.9774 89.7252 80.4149 89.6452 79.5897C89.5652 78.7646 90.5983 77.9888 91.9528 77.8574Z" fill="#1F3A59"/>
<path d="M57.0972 88.2188C55.7787 88.1744 54.4355 87.8781 53.6602 86.8114C52.88 85.7448 52.5936 84.4016 52.3862 83.0979C51.9862 80.614 51.8084 78.0906 51.8479 75.5721C51.8825 73.4339 52.0948 71.2315 53.1121 69.35C54.1293 67.4686 56.7268 65.8637 58.4947 67.7748C60.2971 69.7253 60.0058 76.6733 59.8626 80.777C60.6231 81.1029 61.4774 81.1226 62.307 81.1226C63.1366 81.1226 63.9859 81.1128 64.7662 81.3893C65.5464 81.6658 66.1489 82.3029 66.2476 83.1621C66.4057 84.5942 65.7736 86.4509 64.6921 87.404C63.66 88.3027 59.9169 88.3176 57.0972 88.2188Z" fill="#448AAB"/>
<path d="M59.8031 80.7227C58.6377 81.1967 57.6747 82.1547 57.2007 83.3201C57.2945 82.6584 57.6106 82.0313 58.0846 81.5621C58.5587 81.093 59.1957 80.7819 59.8031 80.7227Z" fill="#326E94"/>
<path d="M56.144 82.4954C56.8946 81.3053 58.3465 80.5991 59.744 80.7374C59.7489 80.7423 57.8527 81.0584 56.144 82.4954Z" fill="#326E94"/>
<path d="M70.2771 86.0903C70.0796 85.3002 69.8573 83.8583 70.0055 82.9348C68.3314 82.7323 66.6574 82.5249 65.0476 82.3472C64.2476 82.7965 63.7044 83.6607 63.6501 84.5693C63.5957 85.478 64.0303 86.3965 64.8056 86.91C66.9833 86.7224 68.1932 86.6829 70.2771 86.0903Z" fill="#FDAD91"/>
<path d="M69.2944 83.1869C70.4648 82.303 71.0277 81.74 71.9759 81.1277C72.924 80.5203 74.1141 80.0808 75.1412 80.5351C75.5906 80.7326 75.9906 81.0586 76.2918 81.4536C77.0819 82.4956 77.3338 82.9153 77.7634 84.0807C77.8721 84.3721 77.9412 84.7671 77.6943 84.9498C77.5412 85.0634 77.319 85.0387 77.156 84.935C76.9931 84.8313 76.8795 84.6684 76.7659 84.5054C76.3264 83.8684 76.3116 83.7696 75.9659 83.1721C76.2375 83.9968 76.356 84.8758 76.3116 85.7449C76.2968 85.9918 76.2671 86.2486 76.1289 86.4461C75.9857 86.6436 75.7042 86.7523 75.4721 86.6634C75.398 86.8609 75.2153 87.0091 75.0128 87.0436C74.8104 87.0733 74.5931 86.9844 74.4054 86.7918C74.3067 86.93 74.203 87.0683 74.0548 87.1523C73.9067 87.2362 73.7092 87.2362 73.5956 87.1128C73.4474 86.9498 73.4771 86.7078 73.3437 86.2585C73.2499 85.9424 73.1018 85.7498 72.8351 85.4387C72.0253 86.2486 70.8895 86.5943 70.0105 86.0659C69.6747 84.9696 69.5364 84.2042 69.2944 83.1869Z" fill="#FDAD91"/>
<path d="M66.5192 82.456C66.5636 82.4659 65.6895 83.2313 65.7537 84.609C65.8081 85.7498 66.2327 86.3424 66.9093 86.9102C65.9661 87.2263 65.0574 87.2263 64.2476 87.2559C63.8871 87.2707 62.8945 86.4658 62.8945 84.6288C62.8945 82.8066 63.7686 81.8684 64.2229 81.8931C64.8352 81.9227 65.171 82.1251 66.5192 82.456Z" fill="#65B2C9"/>
<path d="M111.985 31.0986H77.0474V60.4808H111.985V31.0986Z" fill="#E94675"/>
<mask id="mask2_918_15650" style="mask-type:luminance" maskUnits="userSpaceOnUse" x="77" y="31" width="35" height="30">
<path d="M111.985 31.0986H77.0474V60.4808H111.985V31.0986Z" fill="white"/>
</mask>
<g mask="url(#mask2_918_15650)">
<path d="M102.602 50.1502C101.807 51.1724 100.178 52.802 98.9678 53.2662C97.7579 53.7304 96.3357 53.7354 95.2098 53.0934C94.4246 52.644 93.6987 51.4342 93.4173 50.3132C93.2938 49.8293 93.2494 49.3601 93.3185 48.975C93.4568 48.9848 93.5852 48.9947 93.7135 48.9947C93.8617 48.9996 94 48.9997 94.1333 48.9898C94.553 48.975 94.8987 48.9108 95.116 48.8021C95.2148 48.7527 95.2839 48.6935 95.3185 48.6293C95.5999 48.1207 95.9308 46.6787 95.9456 45.8046C97.3875 45.3405 98.6962 45.0491 100.005 44.7627C99.8566 45.7158 99.748 46.6639 99.7085 47.4244C99.6739 48.0219 99.6838 48.5058 99.748 48.7922C99.8566 49.2614 100.484 49.449 101.348 49.7206C101.728 49.8391 102.153 49.9725 102.602 50.1502Z" fill="#F18576"/>
<path d="M91.2247 42.3332C91.3086 43.1332 91.1062 43.9331 90.8889 44.7084C90.6716 45.4837 90.4296 46.2689 90.4395 47.0738C90.4494 47.8787 90.7457 48.7281 91.4025 49.1923C91.4666 49.2417 91.5456 49.2861 91.6247 49.2861C91.8419 49.2861 91.9308 49.0145 91.9852 48.8071C92.1975 47.9973 92.8345 47.3109 93.6345 47.0442C94.1826 46.8615 94.8888 46.7923 95.116 46.259C95.2592 45.9232 95.1357 45.538 95.0073 45.1973C94.7258 44.427 94.4394 43.6467 93.9555 42.9801C93.4715 42.3184 92.7604 41.7752 91.2247 42.3332Z" fill="#0C1A3B"/>
<path d="M92.8395 41.8143C92.4346 41.4982 92.0197 41.1773 91.5309 41.0291C91.042 40.881 90.4543 40.9304 90.0939 41.2958C89.7334 41.6612 89.6889 42.2637 89.9111 42.7229C90.1334 43.1822 90.5827 43.5031 91.0667 43.676C91.5506 43.8439 92.0741 43.8784 92.5827 43.8784" fill="#F18576"/>
<path d="M103.027 41.5081C103.442 37.5033 101.185 33.8737 97.99 33.5478C94.795 33.2219 92.1728 36.2045 91.7629 40.2094C91.3481 44.2143 92.9382 47.8043 96.0542 47.6265C99.2591 47.4488 102.612 45.5179 103.027 41.5081Z" fill="#FDAD91"/>
<path d="M100.795 45.8293C101.259 44.9206 101.116 43.8046 100.701 42.8762C100.281 41.9479 99.6197 41.1528 99.0172 40.3281C98.4148 39.5084 97.8469 38.6146 97.7234 37.6368C96.2371 38.5751 94.4494 39.0442 92.7013 38.9553C92.0692 39.7306 91.6495 40.6738 91.5013 41.6615C91.3038 40.4516 91.126 39.1282 91.7532 38.0763C92.3112 37.143 93.3779 36.6492 94.3655 36.185C95.1358 35.8196 95.9013 35.4344 96.721 35.1974C97.5407 34.9603 98.4296 34.8764 99.2444 35.1233C100.291 35.4394 101.111 36.264 101.743 37.1578C102.499 38.2294 103.062 39.464 103.17 40.7676C103.279 42.0713 102.904 43.4441 101.995 44.3923" fill="#F18576"/>
<path d="M97.605 42.5895C97.7986 42.5895 97.9556 42.3817 97.9556 42.1253C97.9556 41.869 97.7986 41.6611 97.605 41.6611C97.4114 41.6611 97.2544 41.869 97.2544 42.1253C97.2544 42.3817 97.4114 42.5895 97.605 42.5895Z" fill="#1A202B"/>
<path d="M93.4519 42.2985C93.6456 42.2985 93.8025 42.0907 93.8025 41.8343C93.8025 41.5779 93.6456 41.3701 93.4519 41.3701C93.2583 41.3701 93.1013 41.5779 93.1013 41.8343C93.1013 42.0907 93.2583 42.2985 93.4519 42.2985Z" fill="#1A202B"/>
<path d="M99.1506 40.6982C98.6815 40.1748 97.9161 39.9377 97.2346 40.1106" stroke="#0C1B3C" stroke-miterlimit="10" stroke-linecap="round"/>
<path d="M94.3999 40.0563C93.8468 39.686 93.0716 39.6712 92.5037 40.0267" stroke="#0C1B3C" stroke-miterlimit="10" stroke-linecap="round"/>
<path d="M94.6815 42.4121C94.4889 43.1084 94.5087 43.6121 94.5679 43.8738" stroke="#C2383A" stroke-width="0.5" stroke-miterlimit="10" stroke-linecap="round"/>
<path d="M94.7949 44.6586C95.6196 44.6093 96.4393 44.4117 97.1554 44.1401C97.4171 44.5599 97.3628 45.1426 97.0319 45.5228C96.7011 45.9031 96.1134 46.0512 95.6344 45.8784C95.1505 45.7055 94.8147 45.2265 94.7949 44.6586Z" fill="#C2383A"/>
<path d="M98.1926 34.3777C98.2865 36.2839 98.7803 38.1604 99.6148 39.8196C100.01 40.5998 101.091 43.0393 100.469 45.8195C100.059 47.6516 99.4469 48.812 99.0074 49.3058C98.4494 49.9379 99.8963 50.3478 102.365 47.8886C103.516 46.7429 104.918 46.8417 105.18 45.9528C105.847 43.7109 104.084 42.4961 104.084 39.5282C104.084 36.5061 103.867 34.0074 101.995 33.2963C100.864 32.8666 99.0766 33.2123 98.1926 34.3777Z" fill="#0C1A3B"/>
<path d="M99.9309 35.3504C97.9754 37.1331 95.1211 38.5454 92.3952 38.4713C91.7286 40.2244 91.6397 41.1132 91.6397 42.2836C91.0669 41.6416 90.5533 40.9206 90.2521 40.17C90.2224 40.0861 90.1879 40.0021 90.1582 39.9182C89.9064 39.217 89.7681 38.3972 89.8768 37.6812C89.9953 36.8565 90.4693 35.5973 91.0274 34.98C92.6816 33.143 94.7606 32.3924 97.2346 32.5257C97.6198 32.5504 98.1482 32.664 98.6321 32.8517C99.047 33.0047 99.4321 33.2072 99.6741 33.4294C100.207 33.9084 100.4 34.8072 99.9309 35.3504Z" fill="#0C1A3B"/>
<path d="M98.6321 32.8468C96.3063 32.8517 93.9853 33.6764 92.3409 35.3011C91.1064 36.5208 90.3261 38.1998 90.1582 39.9133C89.9064 39.2121 89.7681 38.3923 89.8768 37.6763C89.9953 36.8516 90.4693 35.5924 91.0274 34.9751C92.6816 33.1381 94.7606 32.3875 97.2347 32.5209C97.6198 32.5406 98.1482 32.6591 98.6321 32.8468Z" fill="#23426E"/>
<path d="M79.2498 55.7845C80.2769 55.2117 81.3633 54.7524 82.4892 54.4166C83.0472 54.2487 83.5805 54.1598 84.183 54.3277C83.5559 55.3647 82.5534 56.0709 81.3682 56.303C80.6226 56.4413 79.7732 56.3573 79.2498 55.7845Z" fill="#ED8424"/>
<path d="M86.5286 49.5624C85.5607 50.6933 84.5928 51.8241 83.6348 52.9254C83.5904 53.4488 83.5459 53.9673 83.5015 54.4908C83.4472 55.0735 83.3978 55.6611 83.3484 56.2438C82.346 56.7969 81.0768 57.0043 79.8028 56.9944C79.9904 56.3426 80.2423 55.6315 80.43 54.9204C80.5732 54.3772 80.6769 53.829 80.6867 53.3006C80.104 52.7179 79.5855 51.113 79.467 49.9279C78.9584 48.9649 78.5633 47.9131 78.3411 46.8218C78.3164 46.6884 78.3016 46.5156 78.4152 46.4514C78.5189 46.3872 78.6423 46.4712 78.7362 46.56C79.4621 47.2464 80.0349 48.1205 80.3954 49.0933C80.1435 47.9822 79.8966 46.9057 79.7189 45.8243C79.6991 45.7057 79.6843 45.5823 79.704 45.4687C79.7238 45.3502 79.7979 45.2366 79.9016 45.207C80.104 45.1428 80.2621 45.3897 80.3509 45.5971C80.7657 46.56 81.1806 47.523 81.5904 48.4859C81.467 47.3255 81.3188 46.1798 81.1707 45.0391C81.1509 44.8909 81.1361 44.7379 81.1707 44.5996C81.2052 44.4564 81.3089 44.323 81.4423 44.3033C81.6546 44.2786 81.7978 44.5304 81.8818 44.7428C82.3361 45.8638 82.7459 47.0094 83.1064 48.1748C83.299 46.8761 83.3731 46.1996 83.5953 44.9156C83.6299 44.7082 83.6694 44.4909 83.7978 44.3329C83.9212 44.1749 84.1632 44.1008 84.3113 44.2342C84.4447 44.3527 84.4447 44.57 84.4397 44.7576C84.3657 46.6835 84.3953 47.9921 84.3212 49.918C84.8694 49.5328 85.4175 49.1427 86.015 48.8612C86.1385 48.802 86.2718 48.7477 86.4051 48.7477C86.5434 48.7477 86.6866 48.8217 86.7409 48.9551C86.8249 49.1674 86.6718 49.3945 86.5286 49.5624Z" fill="#FDAD91"/>
<path d="M83.5014 54.4907C83.4471 55.0734 83.3977 55.6611 83.3484 56.2438C82.3459 56.7969 81.0768 57.0042 79.8027 56.9944C79.9904 56.3425 80.2422 55.6314 80.4299 54.9203C80.6966 55.0043 80.9928 55.0339 81.2694 55.024C82.0397 55.0092 82.8101 54.8216 83.5014 54.4907Z" fill="#F18576"/>
<path d="M84.2323 61.4535C83.852 59.0832 83.7681 56.6684 84.1829 54.3228C82.3212 55.3104 81.1756 56.0067 79.2299 55.8042C78.6472 58.056 78.346 60.377 78.3213 62.7028L84.2323 61.4535Z" fill="#FEAC40"/>
<path d="M108.726 61.0438L83.3286 62.0117C84.5335 60.2488 85.136 58.1599 85.8718 56.16C86.6125 54.1551 87.5656 52.1304 89.2396 50.8119C90.3951 49.8984 91.7926 49.3996 93.2198 49.0194C93.5408 48.9305 93.8617 48.8515 94.1827 48.7725C94.0988 50.1403 94.6272 51.3848 95.5407 52.244C95.8222 52.5107 96.158 52.7477 96.5382 52.8069C96.9777 52.8761 97.4123 52.7131 97.8123 52.5255C99.2443 51.8539 100.528 50.8712 101.467 49.5922C101.768 49.6613 102.064 49.7453 102.36 49.844C103.175 50.1058 103.985 50.4663 104.849 50.9502C107.496 53.5576 108.943 57.3353 108.726 61.0438Z" fill="#FEAC40"/>
<path d="M103.067 61.7749C102.706 58.5206 102.834 55.212 103.546 51.9775C102.281 54.3726 101.728 57.133 101.97 59.8292C100.8 58.7675 99.9209 57.3848 99.4518 55.8738C99.2889 56.9799 99.753 58.0811 100.281 59.0638C100.81 60.0465 101.422 61.0342 103.067 61.7749Z" fill="#ED8424"/>
<path d="M89.2695 62.2585C88.825 58.8116 88.9287 55.2956 89.5756 51.8784C88.5781 54.4413 88.1633 57.2314 88.3016 59.9276C87.5954 59.1425 87.0473 58.224 86.6868 57.2314C87.0818 58.3474 87.4769 59.6116 86.9485 60.6733C86.5139 61.5523 85.5658 62.0362 84.6819 62.4609C86.0498 62.8362 87.4917 62.9449 89.2695 62.2585Z" fill="#ED8424"/>
<path d="M102.361 49.844C101.363 51.123 100.104 52.2094 98.6865 53.0045C98.1384 53.3106 97.289 53.4588 96.6569 53.4341C95.8915 53.4045 95.2002 52.9353 94.6767 52.3773C93.8274 51.4687 93.3187 50.2589 93.22 49.0194C93.541 48.9305 93.8619 48.8515 94.1829 48.7725C94.099 50.1403 94.6274 51.3848 95.5409 52.244C95.8224 52.5107 96.1582 52.7477 96.5384 52.8069C96.9779 52.8761 97.4125 52.7131 97.8125 52.5255C99.2445 51.8539 100.528 50.8712 101.467 49.5922C101.768 49.6613 102.064 49.7453 102.361 49.844Z" fill="#FFD991"/>
</g>
</svg>
