<svg width="119" height="113" viewBox="0 0 119 113" fill="none" xmlns="http://www.w3.org/2000/svg">
<path d="M105.696 56.2463C114.118 62.9707 117.635 75.2212 114.057 85.391C111.593 92.3928 106.189 98.1019 99.8867 102.019C89.556 108.438 77.1114 110.341 65.0052 111.551C55.2126 112.533 45.2814 113.143 35.572 111.556C25.8627 109.97 16.292 106.008 9.43446 98.9452C2.58243 91.8824 -1.1626 81.4462 1.21758 71.8978C4.086 60.3964 14.6941 52.5013 19.6487 41.7322C24.3092 31.6012 23.9042 19.0956 31.0946 10.5736C36.665 3.97674 45.6309 1.31916 54.214 0.403707C63.7458 -0.617161 73.6992 0.159587 82.3267 4.33738C90.9541 8.51517 98.0725 16.4657 99.6648 25.9199C100.58 31.346 99.687 36.9053 99.9367 42.4036C100.186 47.9018 102.217 53.4722 105.696 56.2463Z" fill="#6785B4"/>
<path d="M99.2654 93.4526C107.499 93.4526 114.173 92.1411 114.173 90.5232C114.173 88.9053 107.499 87.5938 99.2654 87.5938C91.032 87.5938 84.3574 88.9053 84.3574 90.5232C84.3574 92.1411 91.032 93.4526 99.2654 93.4526Z" fill="#CCCFD4"/>
<path d="M107.171 72.0146L104.797 88.7979L104.592 90.2405C102.794 91.4333 95.8254 91.8217 92.9403 90.2405L92.7239 88.9866C92.7184 88.9866 92.7184 88.9866 92.7184 88.9866L89.7168 72.0146H107.171Z" fill="#A84461"/>
<path d="M98.4385 73.4793C103.258 73.4793 107.166 72.8235 107.166 72.0145C107.166 71.2056 103.258 70.5498 98.4385 70.5498C93.6185 70.5498 89.7112 71.2056 89.7112 72.0145C89.7112 72.8235 93.6185 73.4793 98.4385 73.4793Z" fill="#FFCC7A"/>
<path d="M106.961 72.0147C106.961 72.4752 104.769 72.8691 101.673 73.0245C100.763 73.0689 99.7756 73.0966 98.7492 73.0966C98.3885 73.0966 98.0279 73.091 97.6839 73.0855C97.573 73.0855 97.462 73.0799 97.3455 73.0799C96.8073 73.0633 96.2858 73.0467 95.792 73.0245C92.7183 72.8691 90.5378 72.4752 90.5378 72.0147C90.5378 71.6374 92.0026 71.299 94.2218 71.1048C94.8987 71.0493 95.6533 70.9994 96.4522 70.9716C97.179 70.9383 97.9502 70.9272 98.7436 70.9272C99.2152 70.9272 99.6868 70.9328 100.136 70.9439C101.74 70.9772 103.188 71.077 104.325 71.2213C105.951 71.421 106.961 71.6984 106.961 72.0147Z" fill="#4D0746"/>
<path d="M104.797 88.7979L104.591 90.2404C102.794 91.4332 95.8253 91.8216 92.9403 90.2404L92.7239 88.9865C94.6602 89.4914 99.7978 90.5122 104.797 88.7979Z" fill="#4D0746"/>
<path d="M97.6842 73.0853C98.5441 72.4028 99.3653 71.6816 100.142 70.9437C101.99 69.1793 103.61 67.2652 104.986 65.1957C105.002 65.1735 105.019 65.1569 105.024 65.1291C105.135 64.9683 105.241 64.8018 105.346 64.6409C105.568 64.2969 105.796 63.8586 105.618 63.4813C105.418 63.0541 104.841 62.9875 104.375 63.0264C102.367 63.2095 100.464 64.308 99.2931 65.9392C101.229 62.3051 103.316 58.5878 105.097 54.7263C105.38 54.116 105.618 53.2893 105.102 52.851C104.686 52.5014 104.053 52.6568 103.56 52.8843C102.028 53.5944 100.73 54.7929 99.9034 56.2687C101.795 52.6124 103.626 49.0893 105.174 45.483C105.174 45.4774 105.18 45.4719 105.18 45.4663C105.507 44.7118 105.818 43.9572 106.112 43.1971C106.312 42.6922 106.506 42.1707 106.511 41.627V41.5659C106.506 41.05 106.295 40.5173 105.857 40.2344C105.851 40.2288 105.846 40.2288 105.84 40.2233C105.124 39.7794 104.198 40.19 103.504 40.656C102.727 41.1887 102.012 41.7934 101.368 42.4703C101.363 42.4703 101.363 42.4703 101.368 42.4759C101.368 42.4759 101.363 42.4758 101.363 42.4814C100.164 43.7353 99.2044 45.2111 98.5719 46.8312C99.8923 42.5147 101.135 38.409 102.383 34.3034C102.555 33.7208 102.733 33.116 102.672 32.5168C102.611 31.9121 102.245 31.2962 101.657 31.1242C100.935 30.9245 100.231 31.4349 99.7037 31.9565C98.0725 33.5599 96.863 35.5961 96.2361 37.7987C97.096 33.338 98.2057 29.0659 98.644 24.6994C98.6773 24.3554 98.705 24.0059 98.6995 23.6619C98.6939 23.3235 98.6551 22.9961 98.5497 22.6799C98.3444 22.0307 97.8284 21.4426 97.1515 21.3428C96.1917 21.2096 95.4038 22.064 94.8823 22.8796C94.3219 23.7562 93.8448 24.6772 93.4453 25.6426C92.8517 27.0851 92.4522 28.6109 92.2636 30.1589C92.2858 25.7813 91.9973 21.4815 91.1928 17.2981C91.0485 16.5491 90.8932 15.8057 90.7156 15.0678C90.4105 13.7972 89.6837 12.2548 88.3743 12.3436C87.6253 12.3935 87.0261 13.0427 86.7819 13.7528C86.5434 14.4685 86.5933 15.2397 86.6488 15.9888C86.6821 16.3993 86.7043 16.8099 86.7376 17.2205C86.9262 19.8836 87.1148 22.5523 87.3035 25.2099C86.2105 19.4786 82.8927 14.2078 78.1989 10.7402C78.0879 10.6514 77.9714 10.5737 77.8549 10.4905C76.3624 9.43079 74.1376 8.6152 72.8671 9.93012C72.2068 10.6181 72.0848 11.7 72.3344 12.621C72.5841 13.542 73.1445 14.3465 73.7104 15.1232C76.9894 19.6228 80.7067 23.8006 84.8068 27.5734C83.4253 27.2793 82.3046 26.2696 80.9785 25.7869C79.647 25.3042 77.7384 25.7036 77.5054 27.1018C77.3445 28.0783 78.1046 28.9493 78.8147 29.6429C82.3101 33.0938 85.8998 36.445 89.5838 39.6962C88.1246 38.4146 86.5045 37.3327 84.768 36.4727C84.141 36.162 83.392 35.879 82.7595 36.1842C82.1104 36.5004 81.8662 37.3438 82.0216 38.0484C82.1714 38.753 82.6153 39.3522 83.0536 39.9237C86.2771 44.1459 89.5061 48.368 92.7296 52.5902C91.5423 50.9923 90.0665 49.6053 88.4076 48.5012C87.8583 48.1406 87.187 47.7966 86.5711 48.0407C85.517 48.4513 85.7278 49.9992 86.155 51.0423C86.5822 52.0909 87.0483 53.1228 87.5421 54.1437V54.1493C89.1788 57.5614 91.1539 60.8126 93.4342 63.8309C93.695 64.1749 93.9613 64.5244 94.2276 64.8628C94.0612 64.7796 93.8947 64.6853 93.7505 64.5743C93.1624 64.1638 92.7074 63.5646 92.2525 62.9986C91.6866 62.2829 91.0485 61.5561 90.183 61.2732C89.3175 60.9846 88.169 61.3397 87.9193 62.2163C87.6918 63.0097 88.2522 63.8031 88.7738 64.4412C90.5825 66.6605 92.3967 68.8686 94.2054 71.0824C94.7325 71.7204 95.254 72.364 95.7756 72.9965C96.2694 73.0242 96.7909 73.0353 97.3291 73.052" fill="#563189"/>
<path d="M91.2036 17.3094C91.1259 17.1707 91.0482 17.032 90.9595 16.8988C90.6155 16.3551 90.1938 15.8169 89.5946 15.595C88.4961 15.1844 87.2477 16.0277 86.8039 17.1096C86.7817 17.154 86.7706 17.1984 86.7539 17.2428C86.7206 16.8322 86.6984 16.4217 86.6652 16.0111C86.6097 15.2621 86.5597 14.4853 86.7983 13.7752C87.0369 13.0595 87.6416 12.4159 88.3906 12.3659C89.6945 12.2716 90.4268 13.8196 90.732 15.0901C90.904 15.8169 91.0593 16.5604 91.2036 17.3094Z" fill="#4589AD"/>
<path d="M98.7049 23.6674C98.372 23.451 97.9947 23.3123 97.6063 23.2624C96.5134 23.1348 95.4148 23.6397 94.5881 24.3665C94.1609 24.7493 93.7947 25.1821 93.4563 25.6481C93.8558 24.6827 94.3329 23.7617 94.8933 22.8851C95.4148 22.0695 96.2027 21.2151 97.1625 21.3483C97.8338 21.4426 98.3554 22.0362 98.5606 22.6854C98.6605 23.0016 98.6993 23.3345 98.7049 23.6674Z" fill="#4589AD"/>
<path d="M93.9778 54.1325C92.6907 52.8509 89.678 49.8049 87.8526 50.6372C87.0481 51.0033 87.209 52.4292 87.553 54.1769C87.0592 53.1505 86.5932 52.1241 86.166 51.0755C85.7388 50.0324 85.5279 48.4845 86.5821 48.0739C87.1924 47.8298 87.8637 48.1682 88.4186 48.5344C90.0775 49.6329 91.5533 51.0255 92.7406 52.6234C89.5171 48.4012 86.288 44.1791 83.0645 39.9569C82.6262 39.3854 82.1768 38.7862 82.0326 38.0816C81.8772 37.377 82.1269 36.5336 82.7705 36.2174C83.403 35.9178 84.152 36.1952 84.7789 36.5059C86.5155 37.3603 88.1356 38.4478 89.5948 39.7294C85.9108 36.4782 82.3211 33.1271 78.8257 29.6761C78.1155 28.977 77.3554 28.1115 77.5163 27.135C77.7438 25.7369 79.658 25.3374 80.9895 25.8201C82.3155 26.3028 83.4363 27.3125 84.8178 27.6066C80.7177 23.8338 77.0004 19.656 73.7214 15.1564C73.1555 14.3797 72.5951 13.5752 72.3454 12.6542C72.0958 11.7332 72.2178 10.6513 72.878 9.96333C74.1541 8.6484 76.3734 9.46399 77.8659 10.5237C77.9768 10.6069 78.0934 10.6846 78.2099 10.7734C75.4802 9.98552 73.5105 10.3073 73.3275 11.7443C72.9058 15.1231 85.4947 27.0351 85.5668 28.0505C85.6001 28.5442 80.1573 27.1128 79.9076 28.4499C79.658 29.7815 90.4159 39.5352 90.3105 40.1178C90.2439 40.484 84.274 36.8443 83.3974 38.0594C82.4487 39.3577 91.7253 50.2377 93.9778 54.1325Z" fill="#4589AD"/>
<path d="M77.9658 14.5518C92.1969 29.7816 99.3985 51.2864 97.4233 72.0144" stroke="#254970" stroke-miterlimit="10" stroke-linecap="round"/>
<path d="M97.684 73.0852C98.028 73.0907 98.3886 73.0963 98.7492 73.0963C99.7812 73.0963 100.769 73.0686 101.673 73.0242C102.561 72.4083 103.449 71.8036 104.331 71.221C106.905 69.4955 109.457 67.8477 112.015 66.2054C112.453 65.9225 112.942 65.5452 112.925 65.0237C112.897 64.3246 112.026 64.0361 111.327 63.9917C109.158 63.8474 106.949 64.2747 104.98 65.2012C104.919 65.229 104.858 65.2567 104.797 65.29C104.874 65.2401 104.947 65.1901 105.019 65.1346C107.887 63.1817 110.872 61.4395 113.851 59.6974C114.384 59.3867 114.983 58.965 114.989 58.3492C115 57.872 114.612 57.4559 114.162 57.2839C113.718 57.1119 113.219 57.1286 112.747 57.173C110.373 57.3672 108.031 57.983 105.873 58.9706C109.102 56.6847 111.937 54.9759 114.778 53.2615C115.155 53.0396 115.538 52.801 115.815 52.4681C116.098 52.1297 116.27 51.6692 116.148 51.2475C115.926 50.4707 114.933 50.2655 114.129 50.271C112.204 50.2877 110.284 50.7371 108.553 51.5693C111.127 49.7828 113.84 48.1849 116.548 46.5926C117.142 46.243 117.768 45.8713 118.151 45.2887C118.545 44.7117 118.623 43.8684 118.151 43.358C117.674 42.8364 116.864 42.8586 116.165 42.9474C114.245 43.1971 112.359 43.7075 110.567 44.462C112.603 42.2816 115.039 39.9458 117.214 37.3881C117.402 37.1662 117.596 36.9331 117.768 36.6946C118.035 36.3339 118.257 35.9511 118.384 35.5239C118.601 34.8137 118.506 33.9593 117.957 33.46C117.13 32.711 115.81 33.0993 114.811 33.6153C113.946 34.0592 113.114 34.5696 112.326 35.1411C112.231 35.2132 112.126 35.2853 112.032 35.3575C111.937 35.424 111.837 35.5017 111.743 35.5738C111.549 35.7236 111.36 35.8734 111.172 36.0343C110.789 36.3506 110.417 36.6835 110.062 37.0275C109.923 37.1606 109.779 37.3049 109.646 37.438C109.624 37.4547 109.613 37.4713 109.602 37.4824C109.457 37.6322 109.319 37.7765 109.18 37.9318C109.063 38.0594 108.947 38.187 108.836 38.3202C108.775 38.3868 108.719 38.4533 108.664 38.5199C108.603 38.5865 108.547 38.6531 108.503 38.7197C108.375 38.8695 108.253 39.0193 108.131 39.1746C107.981 39.3688 107.837 39.563 107.693 39.7627C107.621 39.857 107.549 39.9569 107.482 40.0568C107.41 40.1566 107.343 40.2621 107.277 40.3564C106.999 40.7614 106.744 41.1775 106.506 41.5992C106.367 41.8378 106.234 42.0819 106.106 42.326C106.078 42.1706 106.062 42.0264 106.04 41.8766C106.017 41.7323 106.006 41.5881 105.984 41.4438C105.929 41.0388 105.89 40.6504 105.851 40.2676C105.768 39.4243 105.723 38.6142 105.679 37.8153C105.657 37.4547 105.612 37.0441 105.329 36.8277C104.802 36.4227 104.098 36.9886 103.72 37.5379C103.554 37.7765 103.393 38.0206 103.249 38.2703C103.182 38.3701 103.121 38.4811 103.066 38.581C102.894 38.8695 102.727 39.1746 102.577 39.4798C102.483 39.6684 102.394 39.857 102.306 40.0457C102.222 40.2177 102.15 40.3897 102.078 40.5672C101.984 40.778 101.901 40.9889 101.823 41.2053C101.784 41.3107 101.74 41.4216 101.701 41.5326C101.662 41.6325 101.623 41.749 101.59 41.8544C101.512 42.0708 101.44 42.2927 101.374 42.5091C101.368 42.5091 101.368 42.5091 101.374 42.5146C101.301 42.7366 101.235 42.9696 101.174 43.1915C101.157 43.2359 101.141 43.2858 101.135 43.3358C101.091 43.4911 101.052 43.652 101.013 43.8129C100.946 44.0681 100.891 44.3233 100.835 44.5841C100.802 44.7561 100.763 44.9281 100.73 45.0945C100.697 45.261 100.669 45.4385 100.636 45.605C100.619 45.6494 100.613 45.6993 100.608 45.7492C100.563 45.9767 100.525 46.2097 100.491 46.4428C100.441 46.7479 100.397 47.0531 100.358 47.3638C100.336 47.508 100.319 47.6467 100.303 47.7965C100.281 47.9907 100.258 48.1849 100.242 48.3791C100.036 50.2377 99.9421 52.1241 99.8589 53.9772C99.698 52.2961 99.4428 50.6261 99.1931 48.945C99.1043 48.3846 98.9767 47.7466 98.4718 47.4747C97.9669 47.1918 97.3011 47.4636 96.9516 47.9241C96.6021 48.3846 96.4911 48.9727 96.419 49.5442C96.2248 51.0422 96.1693 52.5458 96.2137 54.0493C96.3191 57.6501 96.996 61.2564 97.6673 64.8073C96.8351 63.0374 96.2581 61.7336 95.5091 60.5352C95.2261 60.0913 94.8821 59.6364 94.3772 59.5032C93.5783 59.2979 92.796 60.0691 92.6684 60.8847C92.5408 61.6948 92.8681 62.5048 93.1899 63.2649C93.2787 63.4702 93.3619 63.6755 93.4507 63.8807C93.5561 64.1304 93.6615 64.3745 93.767 64.6242C94.6658 66.7492 95.559 68.8741 96.4578 70.9935C96.7519 71.6982 97.0515 72.4028 97.3511 73.0963" fill="#7A25EF"/>
<path d="M118.39 35.5075C118.262 35.9347 118.04 36.3175 117.774 36.6781C117.769 36.0678 117.891 34.4034 117.336 34.1759C115.977 33.6155 110.839 34.997 105.568 44.2792C105.69 43.0419 104.963 38.5423 104.636 38.4369C103.904 38.1984 100.841 43.0086 99.8202 57.1621C99.3153 55.248 99.2765 48.2961 97.9061 48.2073C96.5356 48.1185 96.6022 52.718 96.2139 54.0218C96.1695 52.5182 96.225 51.0147 96.4191 49.5167C96.4913 48.9452 96.5967 48.3571 96.9518 47.8966C97.2957 47.4361 97.9671 47.1698 98.472 47.4472C98.9713 47.7191 99.1045 48.3571 99.1932 48.9175C99.4429 50.593 99.6981 52.2686 99.859 53.9497C100.114 48.2461 100.48 42.2097 103.721 37.5159C104.098 36.9722 104.808 36.4007 105.33 36.8058C105.613 37.0221 105.662 37.4327 105.679 37.7933C105.762 39.2137 105.846 40.6396 106.106 42.304C108.015 38.5867 111.105 35.5019 114.817 33.5933C115.816 33.0774 117.136 32.689 117.963 33.438C118.512 33.9429 118.612 34.8029 118.39 35.5075Z" fill="#5DB0B0"/>
<path d="M99.354 72.6527C100.031 66.6662 101.29 60.1082 103.271 54.4102C105.757 47.2697 108.47 41.9878 114.911 36.4507" stroke="#254970" stroke-miterlimit="10" stroke-linecap="round"/>
<path d="M52.0391 104.532C74.1349 104.532 92.0471 101.795 92.0471 98.4183C92.0471 95.0416 74.1349 92.3042 52.0391 92.3042C29.9432 92.3042 12.031 95.0416 12.031 98.4183C12.031 101.795 29.9432 104.532 52.0391 104.532Z" fill="#CCCFD4"/>
<path d="M27.8267 98.4683V77.7402H29.9683V98.4683C29.9683 98.84 29.6631 99.1452 29.2914 99.1452H28.5035C28.1318 99.1452 27.8267 98.84 27.8267 98.4683Z" fill="#370A38"/>
<path d="M75.1862 59.1094C74.9033 61.5894 74.3928 63.903 73.7603 66.0446C73.1667 68.0642 72.4676 69.9339 71.7519 71.6538C71.4467 72.3973 71.1416 73.113 70.842 73.801C70.5479 74.4612 70.2594 75.0993 69.9931 75.7096C69.2718 77.3463 68.6948 79.965 67.1968 80.0871C65.6489 80.2147 63.7902 77.7402 63.8013 76.4641C64.7944 74.4224 65.7044 72.4028 66.5033 70.3611C66.6476 69.9949 66.7863 69.6287 66.925 69.257C67.5796 67.4982 68.1511 65.7117 68.6227 63.8586C68.6393 63.7976 68.656 63.7421 68.6726 63.6866C69.233 61.6116 70.1762 60.7128 70.9419 60.1524C71.7741 59.5421 73.9712 58.9096 75.1862 59.1094Z" fill="#FDAD91"/>
<path d="M73.7548 66.0501C73.1611 68.0696 72.462 69.9393 71.7463 71.6593C71.4412 72.4027 71.136 73.1185 70.8364 73.8064C69.3162 72.7578 67.8681 71.6038 66.4922 70.361C66.6364 69.9948 66.7751 69.6286 66.9138 69.2569C67.5685 67.4981 68.14 65.7116 68.6116 63.8585C68.6282 63.7975 68.6449 63.742 68.6615 63.6865C70.1041 64.3024 71.53 64.9515 72.9447 65.6284C73.2222 65.7505 73.4996 65.8892 73.7548 66.0501Z" fill="#F08275"/>
<path d="M75.1862 59.1094C74.648 63.9307 73.2166 68.1085 71.7518 71.6594C71.258 71.4763 70.7809 71.2377 70.3204 70.9991C69.1886 70.4166 67.1357 69.712 66.0039 69.1294C66.6586 67.3706 67.3466 65.6063 68.1122 63.8586C69.2163 61.3508 70.154 60.7239 70.9418 60.1524C71.774 59.5421 73.9711 58.9096 75.1862 59.1094Z" fill="#E94675"/>
<path d="M67.979 74.6276C65.8429 71.2155 63.3296 67.5537 61.1658 64.2969C60.3779 64.8129 58.8688 65.9669 58.0144 66.6105C59.4902 70.0226 61.5486 73.6844 63.0244 77.0966C63.374 77.9011 63.7346 78.7277 64.3726 79.3269C65.0939 80.0038 66.1425 80.3145 67.1134 80.1425C68.0899 79.965 70.2704 78.2839 67.979 74.6276Z" fill="#FDAD91"/>
<path d="M61.593 65.1622C60.9882 62.2383 59.7843 58.7929 58.7079 56.0021C58.5415 55.5694 58.3196 55.0811 57.8702 55.2198C57.454 55.3474 57.5872 55.8246 57.7093 56.2407C58.3085 58.2824 58.7579 60.3686 58.7579 60.3686C58.7579 60.3686 57.5872 57.5945 56.9991 56.213C56.8826 55.9356 56.755 55.647 56.5275 55.4529C56.2945 55.2587 55.9227 55.1921 55.6897 55.3863C55.44 55.5971 55.4733 55.9966 55.5677 56.3184C55.1793 56.2462 54.7965 56.6679 54.8464 57.1673C54.5745 57.195 54.3748 57.4613 54.3415 57.7332C54.3082 58.005 54.3914 58.2713 54.4747 58.5266C54.7965 59.4975 55.1182 60.4684 55.4733 61.517C55.6009 62.7487 55.7674 64.0082 56.3222 65.1178C56.877 66.2275 57.8979 67.1928 59.2461 67.3038C60.0672 66.6436 61.0493 66.0333 61.593 65.1622Z" fill="#FDAD91"/>
<path d="M60.2838 62.3714C59.6291 61.3006 58.9688 60.2354 58.3141 59.1646C58.0867 58.7928 57.7205 58.3656 57.3044 58.5043C56.9271 58.6319 56.8494 59.1368 56.9271 59.5252C57.0935 60.3463 57.6484 61.0509 57.7649 61.8832C57.8426 62.438 57.7205 62.9984 57.6817 63.5587C57.6484 64.1191 57.726 64.7349 58.12 65.1289" stroke="#F08275" stroke-miterlimit="10" stroke-linecap="round"/>
<path d="M72.8114 93.7245C72.1844 95.2558 71.2523 96.9258 69.6378 97.2809C68.3728 97.5583 67.1023 96.9258 65.976 96.2934C63.2463 94.7621 60.5887 93.0865 58.0199 91.2889C54.9406 89.1306 51.9834 86.7948 49.1816 84.2926C43.6112 89.2804 37.4583 93.9798 32.071 99.3171C29.8572 99.0064 28.8253 97.8746 27.416 96.4931C32.5481 89.7187 38.2184 83.2828 44.0994 77.0411C45.1203 75.9592 46.2189 74.8329 47.6614 74.4612C49.4424 73.9952 51.2788 74.7885 52.9488 75.5542C55.8172 76.8802 58.6857 78.2062 61.5596 79.5323C64.6722 80.9748 67.7902 82.4118 70.9028 83.8488C72.9667 84.803 73.8766 86.6229 73.9765 88.4371C74.0708 90.2569 73.4993 92.0379 72.8114 93.7245Z" fill="#F08275"/>
<path d="M31.3609 95.3391C31.8713 97.2144 33.2695 100.083 32.4039 101.242C31.7271 102.147 28.7699 101.104 27.3995 100.621C24.9139 99.75 22.0455 98.951 19.915 97.8247C19.2658 97.4807 18.2283 95.8107 20.3699 95.4279C23.4381 94.8842 26.4507 94.7344 31.3609 95.3391Z" fill="#F08275"/>
<path d="M72.8115 93.7245C72.1846 95.2558 71.2525 96.9258 69.6379 97.2809C68.373 97.5583 67.1024 96.9258 65.9761 96.2933C63.2464 94.762 60.5888 93.0865 58.02 91.2889C60.0118 87.677 61.2435 83.6379 61.5653 79.5322C64.6779 80.9748 67.7959 82.4117 70.9085 83.8487C72.9724 84.803 73.8823 86.6228 73.9822 88.4371C74.071 90.2569 73.4995 92.0379 72.8115 93.7245Z" fill="#9747FF"/>
<path d="M59.7011 78.6112C60.3281 82.2619 59.9009 86.0846 58.5859 89.3913C59.2684 89.7409 59.9563 90.096 60.7164 90.4344C62.4919 87.1554 63.03 83.2217 62.0647 79.6543C61.4488 78.9829 60.5833 78.5502 59.7011 78.6112Z" fill="#DAEDED"/>
<path d="M82.665 85.2856C82.0547 89.4634 79.4249 96.7981 75.186 99.317C73.0056 100.61 70.4923 100.915 67.7681 100.576C66.9137 100.471 66.0371 100.293 65.1438 100.072C62.9412 99.5222 60.6387 98.6512 58.2973 97.6137C57.6815 97.3418 57.0601 97.0588 56.4387 96.7703C49.9639 93.7355 43.5114 89.8739 40.9647 89.7574C38.629 89.6575 25.4242 95.583 17.4071 98.0242C15.8425 96.848 14.9492 94.9061 15.1101 93.1696C23.4657 88.7643 36.5595 81.535 40.8316 80.8692C43.7666 80.4087 53.2706 82.6391 61.7816 83.9651C61.7871 83.9706 61.7927 83.9706 61.7927 83.9706C61.9813 84.0039 62.17 84.0261 62.3586 84.0594C64.4669 84.3812 66.5087 84.6475 68.3507 84.7862C68.5504 83.9429 68.6503 83.377 68.9443 82.8998C69.1662 82.517 69.4991 82.2008 70.0817 81.8512C70.6421 82.0732 71.2524 82.2562 71.8904 82.4005C75.6854 83.2827 80.5123 83.1495 82.665 85.2856Z" fill="#FDAD91"/>
<path d="M71.2358 94.5231C71.0638 96.4983 69.8654 98.2404 68.5504 99.7218C68.2952 100.01 68.0345 100.293 67.7681 100.576C66.9137 100.471 66.0371 100.293 65.1438 100.071C62.9412 99.522 60.6387 98.651 58.2974 97.6135C59.7011 97.2639 60.9605 96.2874 61.7373 95.0557C62.7692 93.4468 63.0799 91.455 62.9579 89.5464C62.8413 87.6433 62.3143 85.7902 61.7872 83.9593C61.7816 83.9538 61.7816 83.9538 61.7816 83.9482L61.7983 83.9649L65.2493 86.6558C66.886 87.3215 68.4284 88.2869 69.5658 89.6351C70.6976 90.9945 71.3911 92.7643 71.2358 94.5231Z" fill="#F08275"/>
<path d="M18.3337 96.3041C17.5792 98.0962 16.9189 101.22 15.5208 101.597C14.4334 101.891 12.7411 99.2447 11.9589 98.0241C10.5385 95.8048 8.76864 93.408 7.78661 91.2109C7.48701 90.5451 7.69784 88.5866 9.62306 89.6019C12.375 91.0666 14.8328 92.8032 18.3337 96.3041Z" fill="#FDAD91"/>
<path d="M82.665 85.2856C82.6484 85.3855 82.6318 85.4909 82.6207 85.5908C81.9271 89.813 79.325 96.8592 75.1861 99.317C72.3232 101.02 68.8778 101.009 65.1438 100.072C65.2437 99.4113 65.3214 98.74 65.3713 98.0742C65.7264 93.2418 64.6889 88.3094 62.3586 84.0539C64.467 84.3757 66.5087 84.642 68.3507 84.7807C68.5504 83.9374 68.6503 83.3715 68.9444 82.8944C69.072 82.8722 69.1996 82.8611 69.3272 82.8389C70.1816 82.7113 71.0416 82.5615 71.8904 82.395C73.2054 82.7002 74.6423 82.8888 76.0516 83.0885C78.7036 83.4603 81.2613 83.893 82.665 85.2856Z" fill="#833FE1"/>
<path d="M82.6206 85.5906C81.9271 89.8128 79.325 96.859 75.186 99.3168C72.3232 101.02 68.8777 101.009 65.1438 100.071C65.2437 99.4112 65.3213 98.7398 65.3713 98.074C66.026 95.8048 66.0038 93.347 65.2991 91.0889C66.7139 93.469 67.4907 96.2265 67.524 99.0006C70.2981 99.4001 73.2164 98.5567 75.3525 96.7536C76.4788 95.7993 77.4386 94.4344 77.2943 92.9642C77.0946 90.9335 75.0196 89.7407 73.4273 88.4646C71.5908 86.9943 70.1705 85.0358 69.3271 82.8442C70.1816 82.7166 71.0415 82.5668 71.8904 82.4004C73.2053 82.7055 74.6423 82.8942 76.0515 83.0939C76.8727 83.3325 77.6272 83.5655 78.3596 83.7763C79.8243 84.2036 81.3778 84.7417 82.6206 85.5906Z" fill="#563189"/>
<path d="M61.1379 83.7767C63.6013 88.5037 63.8344 94.4681 62.3585 99.5114C63.4016 100.199 64.7054 100.382 66.1258 100.516C67.2964 95.4834 66.9913 92.2821 65.9038 87.9822C65.5044 86.401 64.9385 84.8142 63.8233 83.6213C62.9189 83.6158 62.009 83.5825 61.1379 83.7767Z" fill="#F7FBFB"/>
<path d="M79.8135 57.0507C78.3099 60.2964 75.1974 62.8818 71.6132 63.8528C72.046 62.3492 72.5065 60.8179 72.4677 59.2533C72.451 58.5764 72.329 57.8829 72.0904 57.2449C71.7797 56.4071 71.2748 55.6636 70.5591 55.1477C72.2346 53.8771 73.7437 52.5455 75.2418 51.214C75.3527 51.1141 75.4637 51.0142 75.5746 50.9199C75.6024 52.1017 76.3791 53.1725 77.167 54.1268C78.0048 55.1476 78.8814 56.1186 79.8135 57.0507Z" fill="#FDAD91"/>
<path d="M74.4761 52.0571C73.9268 54.282 73.5995 55.5248 72.0904 57.2502C71.7797 56.4125 71.2748 55.669 70.5591 55.153C72.2346 53.888 72.9781 53.3887 74.4761 52.0571Z" fill="#F08275"/>
<path d="M77.7992 48.6398C79.1807 48.085 80.7675 48.1016 82.1546 48.6287C83.5416 49.1558 84.7345 50.1766 85.5112 51.4416C85.6777 51.7135 85.833 52.0075 85.8497 52.3293C85.8663 52.6511 85.711 52.9951 85.4114 53.1172C85.1118 53.2337 84.7067 53.0118 84.6624 52.7843C85.0008 53.6997 84.74 54.8094 84.0243 55.4752C83.6581 55.8191 83.0811 56.0466 82.6595 55.7692C82.432 55.6194 82.3099 55.3475 82.2711 55.0812C82.2323 54.8149 82.2766 54.5375 82.2822 54.2213C82.1601 54.6096 81.977 54.9925 81.6996 55.2865C81.4222 55.5861 81.0283 55.7914 80.6177 55.7914C80.2072 55.7914 79.7966 55.5473 79.6468 55.1645C79.4526 54.6651 79.7411 54.1214 79.8354 53.5943C79.9797 52.8231 79.6912 52.0075 79.1807 51.4139C78.6703 50.8202 77.949 50.4263 77.1667 50.2599C77.3887 49.6995 77.5995 49.1447 77.7992 48.6398Z" fill="#0C1942"/>
<path d="M79.2307 47.2358C79.669 47.3246 80.185 47.48 80.3182 47.9127C80.3903 48.1568 80.3126 48.4176 80.2294 48.6562C80.0574 49.1222 79.8355 49.5661 79.5747 49.9877C79.3306 50.3817 79.0199 50.7756 78.5871 50.9365C78.1544 51.1029 77.5663 50.942 77.3721 50.5037C77.3887 50.4871 77.4109 50.4649 77.4276 50.4482" fill="#BA2F4A"/>
<path d="M73.6771 54.0103C72.9337 54.9369 72.0016 55.9633 70.9308 56.4793C69.86 56.9953 68.5894 57.2061 67.4798 56.7789C66.065 56.2407 65.2161 54.8259 64.4671 53.511C63.7237 53.4444 63.1966 53.3945 62.6917 53.2502C62.5475 53.2058 62.3977 53.1504 62.32 53.0227C62.2201 52.8508 62.2978 52.6344 62.3755 52.4513C62.6862 51.73 62.9969 51.0087 63.3076 50.2875C62.6029 48.4788 62.5475 47.3358 62.614 45.8545C62.6806 44.3731 63.0967 42.8751 64.0011 41.6933C64.9887 40.4006 66.4978 39.5795 68.079 39.1855C69.6602 38.7916 71.3081 38.7916 73.0058 38.897C75.0475 39.3853 76.7009 41.0497 77.4166 43.0193C78.1323 44.989 76.8341 46.5757 76.0962 48.5398C75.3582 50.5039 77.4555 49.2944 73.6771 54.0103Z" fill="#FDAD91"/>
<path d="M73.849 49.1167C72.0347 48.7339 70.3425 47.774 69.0775 46.4147C67.8125 45.0554 66.9858 43.2966 66.6973 41.4325C64.4448 42.7474 62.8247 45.0998 62.403 47.6686C61.8482 45.5991 62.2255 43.2966 63.4239 41.5157C64.2339 40.3062 65.4268 39.3297 66.8139 38.8914C68.2009 38.4531 69.7877 38.5807 71.0249 39.3519C72.0181 39.9677 72.7449 40.9442 73.2609 41.9928C74.1652 43.8348 74.487 45.9487 73.849 49.1167Z" fill="#F08275"/>
<path d="M80.0187 45.7382C79.7635 48.4069 78.0602 50.9924 76.0129 52.6014C74.9809 51.7025 74.182 50.5707 73.3608 49.3335C71.591 48.5567 70.0874 47.1974 69.1387 45.5218C68.1844 43.8463 67.796 41.8545 68.1955 39.9681C66.4089 40.4397 64.8111 41.5937 63.8013 43.1417C62.7971 44.6896 62.392 46.6204 62.7749 48.4069C61.8539 47.8854 61.1326 47.1253 60.5889 46.232C59.7844 44.9282 59.3572 43.3359 59.2074 41.799C59.1075 40.7338 59.1297 39.5742 59.74 38.692C60.3614 37.7988 61.4544 37.3715 62.5141 37.1385C64.4116 36.7169 66.42 36.7612 68.4118 37.2273C68.6837 37.2828 68.95 37.3549 69.2219 37.4326C71.8351 37.3715 74.6314 37.3604 76.8285 38.7808C79.0921 40.2344 80.2739 43.0695 80.0187 45.7382Z" fill="#0C1942"/>
<path d="M68.4228 37.2216C66.5808 37.4157 64.7444 37.6543 62.9579 38.1481C62.2199 38.3534 61.4487 38.6197 60.9383 39.2023C60.3225 39.9069 60.217 40.9222 60.2004 41.8598C60.1782 43.3301 60.3114 44.7948 60.5999 46.2318C59.7954 44.928 59.3682 43.3357 59.2184 41.7988C59.1185 40.7336 59.1407 39.574 59.751 38.6918C60.3724 37.7986 61.4654 37.3714 62.5251 37.1383C64.4226 36.7111 66.4255 36.7555 68.4228 37.2216Z" fill="#183061"/>
<path d="M64.7978 49.2446C65.0369 49.1897 65.3004 49.4504 65.387 49.8266C65.4735 50.2028 65.3498 50.5523 65.1113 50.6072C64.8721 50.6622 64.6086 50.4014 64.522 50.0252C64.4349 49.6491 64.5587 49.2995 64.7978 49.2446Z" fill="#31353B"/>
<path d="M63.313 47.4635C63.9122 46.9919 64.8221 46.9753 65.4435 47.4191" stroke="#0C1942" stroke-miterlimit="10" stroke-linecap="round"/>
<path d="M65.4436 53.8275C66.0262 53.4725 66.581 53.0619 67.0914 52.6069C67.1968 53.023 67.3078 53.4392 67.3189 53.8664C67.33 54.2936 67.2412 54.7374 66.9805 55.0759C66.9305 55.1425 66.8584 55.209 66.7807 55.1979C66.7308 55.1924 66.6864 55.148 66.6531 55.1147C66.2925 54.743 65.9374 54.3824 65.4436 53.8275Z" fill="#AD4044"/>
<path d="M71.8906 49.1449C72.2956 48.4069 72.917 47.7966 73.655 47.3972C74.0544 47.1808 74.5149 47.031 74.9588 47.1198C75.6246 47.2585 76.0851 47.9464 76.0962 48.6289C76.1073 49.3113 75.7466 49.9549 75.2584 50.432C74.7701 50.9092 74.1709 51.2476 73.5662 51.575" fill="#FDAD91"/>
<path d="M86.1271 75.1047C85.661 78.7887 84.6734 85.5631 81.228 91.3443C76.6285 89.5578 72.1068 86.6172 68.7445 83.0664C69.2827 82.4949 69.7543 81.8735 70.1427 81.2188C70.814 80.0814 71.2523 78.8331 71.4243 77.5515C71.3245 77.4571 71.219 77.3573 71.1192 77.2574C69.9041 76.0645 68.8167 74.7274 68.4671 73.1074C68.4227 72.8965 68.3895 72.6857 68.3728 72.4749C68.2175 70.816 68.8167 69.1349 69.5823 67.6368C70.4478 65.9446 71.1525 64.4799 71.7295 62.6712C74.72 60.4353 76.6063 58.1827 78.5038 55.5029C81.6885 57.1119 83.991 60.5629 85.1617 64.0915C85.6333 65.5008 85.9606 66.8601 86.1548 68.2582C86.4544 70.361 86.4433 72.547 86.1271 75.1047Z" fill="#CD3964"/>
<path d="M86.1271 75.1046C85.6611 78.7886 84.6735 85.5629 81.2281 91.3442C76.6286 89.5576 72.1068 86.6171 68.7446 83.0663C69.2828 82.4948 69.7544 81.8734 70.1428 81.2187C72.989 82.406 76.2957 82.6834 78.9367 81.1743C80.8342 80.0869 82.1546 78.2282 83.1977 76.3141C84.5736 73.7897 85.5723 71.0711 86.1604 68.2637C86.4545 70.3609 86.4434 72.5469 86.1271 75.1046Z" fill="#E94675"/>
<path d="M76.39 74.2337C75.408 75.7096 73.6714 76.4919 71.9792 77.0189C71.6962 77.1077 71.4133 77.1854 71.1248 77.2464C69.9097 76.0535 68.8223 74.7164 68.4727 73.0964C68.4284 72.8855 68.3951 72.6747 68.3784 72.4639C70.8418 73.7233 73.627 74.3447 76.39 74.2337Z" fill="#E94675"/>
<path d="M86.2827 97.6026C85.9609 98.0687 85.7778 97.9522 85.5725 98.4793C85.3672 99.0063 85.1231 100.16 85.4449 100.621C85.6502 100.92 85.972 101.109 86.2882 101.276C87.3979 101.864 88.5796 102.302 89.7947 102.585C90 102.635 90.2164 102.679 90.4216 102.618C90.6269 102.557 90.81 102.369 90.7989 102.147C90.7823 101.897 90.5437 101.736 90.3273 101.625C89.7614 101.32 89.1899 101.015 88.7794 100.638C90.921 101.031 93.0681 101.431 95.2097 101.825C95.476 101.875 95.7646 101.925 96.0142 101.814C96.2639 101.703 96.4525 101.375 96.4303 100.97C96.7077 101.109 97.2182 100.477 97.2515 100.244C97.3735 99.4114 95.9809 98.9619 94.8546 98.568C91.7477 97.4917 87.4478 95.9215 86.2827 97.6026Z" fill="#FDAD91"/>
<path d="M89.2952 97.3472C88.1356 97.8632 87.2257 98.2127 85.8553 98.2682C82.36 88.1094 79.4694 78.7607 76.9949 71.487C76.9116 71.254 76.8395 71.0154 76.7563 70.788C76.7507 70.7658 76.7396 70.7436 76.7341 70.7214C76.5066 70.0556 76.257 69.3565 76.0128 68.6408C75.1584 66.0997 74.4038 63.3312 75.0474 60.9898C75.3692 59.8136 76.2569 58.7539 77.4221 58.4044C80.0519 57.6276 81.9383 61.9996 82.6651 64.9956C82.6651 64.9956 82.8649 65.789 83.1922 67.1594C83.4086 68.0583 83.6804 69.1956 83.9856 70.5105C84.0633 70.8379 84.1409 71.1763 84.2242 71.5314C85.8886 78.6941 88.3964 90.1012 89.2952 97.3472Z" fill="#FDAD91"/>
<path d="M84.224 71.5424C81.8993 71.953 79.4137 71.9363 76.9947 71.4925C76.9115 71.2594 76.8394 71.0209 76.7562 70.7934C76.7506 70.7712 76.7395 70.749 76.734 70.7268C76.5065 70.061 76.2568 69.3619 76.0127 68.6462C78.3152 67.8029 80.7453 67.3036 83.1921 67.1704C83.4084 68.0692 83.6803 69.2066 83.9855 70.5215C84.0631 70.8489 84.1408 71.1873 84.224 71.5424Z" fill="#F08275"/>
<path d="M84.6237 70.3936C82.238 70.7986 76.3569 71.126 76.3513 71.1093C75.3083 68.08 74.2153 64.0021 75.0475 61.0005C75.3693 59.8243 76.257 58.7646 77.4221 58.4151C80.052 57.6383 82.3212 61.7551 83.048 64.7511L84.6237 70.3936Z" fill="#E94675"/>
<path d="M14.3447 79.5323L14.3558 81.3965L59.4682 81.5407V79.5323L59.1409 71.3931L14.3447 79.5323Z" fill="#4D0746"/>
<path d="M14.3557 79.5322L28.9475 71.1655H59.1685L59.4681 79.5322H14.3557Z" fill="#FAA540"/>
<path d="M16.4751 101.575V80.8472H18.6167V101.575C18.6167 101.947 18.3116 102.252 17.9398 102.252H17.152C16.7802 102.252 16.4751 101.953 16.4751 101.575Z" fill="#4D0746"/>
<path d="M56.4443 101.575V80.8472H58.5859V101.575C58.5859 101.947 58.2808 102.252 57.9091 102.252H57.1212C56.7439 102.252 56.4443 101.953 56.4443 101.575Z" fill="#4D0746"/>
<path d="M36.532 78.378L36.6485 78.8773C36.6873 79.0438 36.8371 79.1659 37.0091 79.1603L55.8675 79.1215C56.1227 79.1215 56.3335 78.9162 56.3446 78.661L56.622 71.7979L36.532 78.378Z" fill="#28598A"/>
<path d="M36.6372 78.4058V71.6592H56.4165C56.5441 71.6592 56.644 71.7646 56.6385 71.8922L56.3222 77.9342C56.3111 78.195 56.0892 78.4058 55.8284 78.4058H36.6372Z" fill="#C1DEE6"/>
<path d="M52.5161 73.418L55.9393 73.5345L55.7507 76.3197L52.0278 76.1865L52.5161 73.418Z" fill="#E1F3F5"/>
<path d="M44.5212 72.064L52.2499 72.1416L51.0403 77.3902L40.1548 77.368L44.5212 72.064Z" fill="#28598A"/>
<path d="M45.5311 71.7979L41.0703 77.6456" stroke="#C1DEE6" stroke-width="0.5" stroke-miterlimit="10"/>
<path d="M46.5576 71.9756L42.574 77.6514" stroke="#C1DEE6" stroke-width="0.5" stroke-miterlimit="10"/>
<path d="M52.2778 72.5356L43.9666 72.5078" stroke="#C1DEE6" stroke-width="0.5" stroke-miterlimit="10"/>
<path d="M52.2056 73.2958L42.5461 73.2681" stroke="#C1DEE6" stroke-width="0.5" stroke-miterlimit="10"/>
<path d="M50.4522 74.1894L41.7305 74.1616" stroke="#C1DEE6" stroke-width="0.5" stroke-miterlimit="10"/>
<path d="M50.0031 75.3598L41.0427 75.332" stroke="#C1DEE6" stroke-width="0.5" stroke-miterlimit="10"/>
<path d="M51.573 76.331L40.1548 76.3032" stroke="#C1DEE6" stroke-width="0.5" stroke-miterlimit="10"/>
<path d="M47.8336 71.9756L44.1052 77.7624" stroke="#C1DEE6" stroke-width="0.5" stroke-miterlimit="10"/>
<path d="M48.8766 71.9756L45.531 77.7624" stroke="#C1DEE6" stroke-width="0.5" stroke-miterlimit="10"/>
<path d="M50.0251 71.9756L47.0125 78.0176" stroke="#C1DEE6" stroke-width="0.5" stroke-miterlimit="10"/>
<path d="M51.2957 71.9756L49.093 78.1452" stroke="#C1DEE6" stroke-width="0.5" stroke-miterlimit="10"/>
<path d="M29.3193 62.2879L28.1819 61.6055L27.5328 62.1103C27.3497 62.2546 27.2942 62.5098 27.4052 62.7151L35.9272 78.4886C36.0049 78.6329 36.1769 78.6995 36.3322 78.6495L37.109 78.3999L35.1726 65.5946L29.3193 62.2879Z" fill="#28598A"/>
<path d="M36.887 78.2891L28.0598 62.0828C27.9433 61.872 28.0709 61.6057 28.3095 61.5613L36.482 60.0189C36.7372 59.969 36.998 60.091 37.1311 60.313L43.2452 71.6146L37.2421 78.3224C37.1422 78.4445 36.9591 78.4223 36.887 78.2891Z" fill="#5F9CBA"/>
<path d="M28.9419 62.1441L36.5096 60.6738L42.4018 71.4762L37.303 77.0743L28.9419 62.1441Z" fill="#C1DEE6"/>
<path d="M56.8271 16.6821H10.655V51.3362H56.8271V16.6821Z" fill="#FAC98F"/>
<mask id="mask0_918_15496" style="mask-type:luminance" maskUnits="userSpaceOnUse" x="10" y="16" width="47" height="36">
<path d="M56.8271 16.6821H10.655V51.3362H56.8271V16.6821Z" fill="white"/>
</mask>
<g mask="url(#mask0_918_15496)">
<path d="M38.8509 40.1066C38.5568 41.6823 38.1629 43.2802 36.9978 44.2456C35.7106 45.3164 33.7909 45.2997 32.2485 44.6395C30.7116 43.9903 29.4744 42.803 28.2649 41.6435C29.1692 40.8944 29.3912 39.5851 29.2858 38.431C29.258 38.1647 29.2247 37.904 29.1748 37.6377C29.1138 37.2493 29.025 36.8498 28.964 36.4614C28.8807 35.9732 28.8142 35.485 28.8253 34.9967C29.491 34.9856 30.1346 34.9745 30.7449 34.969C32.4205 34.9523 33.913 34.9468 35.4054 34.9468C35.583 35.5793 35.644 36.4004 35.7772 37.1938C35.9159 37.9927 36.1433 38.8083 36.6704 39.4186C36.7037 39.463 36.7425 39.5018 36.7814 39.5407C37.3306 40.0789 38.1462 40.3785 38.8509 40.1066Z" fill="#95405D"/>
<path d="M36.7926 39.5409C34.1406 40.0125 31.2888 39.3078 29.1749 37.6378C29.1139 37.2495 29.0251 36.85 28.9641 36.4616C29.3858 35.8014 30.0183 35.3076 30.7506 34.9636C32.4262 34.947 33.9187 34.9414 35.4111 34.9414C35.5887 35.5739 35.6497 36.395 35.7828 37.1884C35.9216 37.9874 36.149 38.803 36.6761 39.4133C36.7149 39.4632 36.7538 39.502 36.7926 39.5409Z" fill="#7D3455"/>
<path d="M39.6499 43.2361C40.3878 42.7312 40.1825 41.3775 40.9981 41.0002C41.2866 40.867 41.6195 40.9114 41.9302 40.9836C44.155 41.4995 45.8195 43.4081 46.7849 45.4776C47.7503 47.5471 48.1664 49.8218 48.8544 52.0023C49.5423 54.1772 50.5854 56.3632 52.4385 57.7003C49.6367 58.4493 46.9513 59.631 44.5101 61.1845C43.5614 54.7819 41.2589 48.6789 39.6499 43.2361Z" fill="#E8E0DA"/>
<path d="M48.6046 58.2272C48.477 58.2438 48.3383 58.2549 48.2107 58.2716C41.7359 58.9928 35.1779 59.6808 28.6422 58.9928C26.1455 58.7265 23.6488 58.2605 21.1632 57.5226C20.392 52.6291 19.6208 47.7189 19.5875 42.7699C19.5764 40.9446 19.8316 38.8141 21.3962 37.8764C22.2229 37.3826 23.2604 37.3493 24.1925 37.5768C25.7848 37.9596 27.5436 38.7308 29.1526 39.6907C30.4953 41.111 33.1029 44.6785 35.411 44.8283C37.0865 44.9393 37.6191 41.8656 37.5526 39.8516C39.6886 40.3343 42.2463 40.6172 43.7166 42.2373C44.6986 43.3247 45.1813 44.7562 45.5364 46.1821C46.4963 50.0603 46.6128 54.238 48.3771 57.8C48.4326 57.9221 48.4992 58.0497 48.5713 58.1662C48.5768 58.1773 48.5935 58.205 48.6046 58.2272Z" fill="#FBF6F1"/>
<path d="M49.792 57.7558C49.3814 57.9001 48.9764 58.0332 48.5658 58.1553C48.4493 58.1997 48.3217 58.2385 48.2052 58.2718C41.7304 58.9931 35.1725 59.681 28.6367 58.9931C28.326 53.4615 27.527 47.9522 26.2288 42.5371C27.4771 45.2391 28.2372 48.163 28.4869 51.0591C29.2803 49.1395 29.7741 47.0922 29.935 45.0227C30.1735 47.5804 29.8628 50.1992 29.1249 52.6737C29.9239 54.0496 31.494 54.7653 32.9865 55.298C37.8689 57.0401 43.0897 57.8224 48.3716 57.7836C48.8488 57.7836 49.3148 57.7725 49.792 57.7558Z" fill="#E8E0DA"/>
<path d="M37.8801 30.8358C38.3739 30.4529 38.8788 30.059 39.4725 29.8759C40.0661 29.6928 40.7818 29.7594 41.2201 30.2033C41.6584 30.6471 41.7139 31.385 41.4421 31.9454C41.1702 32.5058 40.6209 32.8997 40.0328 33.1105C39.4447 33.3158 38.8067 33.3546 38.1853 33.3602" fill="#7D3455"/>
<path d="M25.1301 30.6249C24.6253 25.7258 27.3716 21.2873 31.2609 20.8878C35.1502 20.4883 38.3404 24.1391 38.8453 29.0381C39.3502 33.9372 38.6733 38.2648 34.784 38.6642C30.8947 39.0637 25.635 35.524 25.1301 30.6249Z" fill="#95405D"/>
<path d="M31.7326 31.9453C31.9686 31.9453 32.1598 31.6919 32.1598 31.3794C32.1598 31.0668 31.9686 30.8135 31.7326 30.8135C31.4967 30.8135 31.3054 31.0668 31.3054 31.3794C31.3054 31.6919 31.4967 31.9453 31.7326 31.9453Z" fill="#1A202B"/>
<path d="M36.7927 31.5903C37.0286 31.5903 37.2199 31.337 37.2199 31.0244C37.2199 30.7119 37.0286 30.4585 36.7927 30.4585C36.5567 30.4585 36.3655 30.7119 36.3655 31.0244C36.3655 31.337 36.5567 31.5903 36.7927 31.5903Z" fill="#1A202B"/>
<path d="M29.9683 29.1987C30.5397 28.5607 31.4718 28.2722 32.3041 28.4775" stroke="#0C1B3C" stroke-miterlimit="10" stroke-linecap="round"/>
<path d="M35.7605 28.1004C36.4374 27.6455 37.3806 27.6288 38.0686 28.0671" stroke="#0C1B3C" stroke-miterlimit="10" stroke-linecap="round"/>
<path d="M35.2058 30.8857C35.4388 31.7402 35.5165 32.6334 35.4333 33.5156" stroke="#4A1934" stroke-miterlimit="10" stroke-linecap="round"/>
<path d="M35.6774 34.6749C34.4457 34.8025 33.1918 34.6971 32.0655 34.4585C31.7826 35.1742 31.9989 36.0564 32.5759 36.5613C33.153 37.0661 34.0629 37.1494 34.7286 36.7665C35.3944 36.3837 35.7773 35.5515 35.6774 34.6749Z" fill="#4A1934"/>
<path d="M29.2913 25.1323C28.3703 27.6124 28.0375 31.3241 27.7989 31.4462C26.9445 31.8678 26.3009 32.6945 26.0845 33.8153C25.0081 31.4795 24.5199 28.8774 24.7141 26.3862C26.5949 25.9257 29.2913 25.1323 29.2913 25.1323Z" fill="#5D7191"/>
<path d="M39.4447 23.8394C39.4114 24.2278 39.2505 24.6051 39.0063 24.8991C38.7955 25.1654 38.5181 25.3707 38.2074 25.4706C33.5858 25.5649 29.1139 26.1752 24.7697 27.3459C23.8931 27.5845 23.4991 27.0907 23.3216 26.6579C23.1441 26.2196 23.1274 25.7258 23.2106 25.2598C23.2828 24.8048 23.4492 24.361 23.7544 24.0336C24.0595 23.7174 24.5256 23.5509 24.925 23.6952C24.2537 22.7575 24.3425 21.4038 25.0748 20.6437C25.8016 19.8891 27.0555 19.8392 27.8323 20.5382C27.8822 19.9834 28.0875 19.4674 28.3871 19.0569C28.7866 18.5132 29.3636 18.1414 29.9905 18.0748C31.0835 17.9583 32.1987 18.7906 32.4872 19.9335C32.4928 19.2289 33.0254 18.7184 33.6024 18.5908C34.185 18.4632 34.7897 18.6519 35.3113 18.9459C35.8494 19.2511 36.3432 19.6838 36.6151 20.2664C36.8869 20.8489 36.8869 21.6035 36.5152 22.1139C37.1089 21.7034 37.9078 21.6257 38.5181 21.9752C39.1284 22.3303 39.5057 23.096 39.4447 23.8394Z" fill="#0C1B3C"/>
<path d="M39.4445 23.8394C39.4112 24.2278 39.2503 24.6051 39.0062 24.8991C39.0672 24.1557 38.7787 23.39 38.2017 22.924C37.3806 22.2526 36.0712 22.2748 35.2723 22.9684C35.472 22.3858 35.6884 22.0363 35.7994 21.6423C35.9159 21.2595 35.9214 20.8212 35.7328 20.4661C35.5497 20.1388 35.2168 19.9113 34.8562 19.8114C34.3235 19.6561 33.7299 19.767 33.2749 20.0888C32.8255 20.4051 32.537 20.9433 32.5093 21.4925C32.0821 20.7158 31.727 20.0833 31.211 19.6006C30.7006 19.1179 30.0181 18.7906 29.308 18.8072C28.9862 18.8128 28.6644 18.9015 28.387 19.0569C28.7864 18.5132 29.3634 18.1414 29.9904 18.0748C31.0834 17.9583 32.1986 18.7906 32.4871 19.9335C32.4926 19.2289 33.0253 18.7184 33.6023 18.5908C34.1848 18.4632 34.7896 18.6519 35.3111 18.9459C35.8493 19.2511 36.3431 19.6838 36.6149 20.2664C36.8868 20.8489 36.8868 21.6035 36.5151 22.1139C37.1087 21.7034 37.9077 21.6257 38.518 21.9752C39.1283 22.3303 39.5056 23.096 39.4445 23.8394Z" fill="#1B3359"/>
<path d="M28.2705 31.84C27.6324 31.3573 26.8557 31.0244 26.0567 31.0244C25.2578 31.0244 24.4366 31.374 23.9817 32.0286C23.5267 32.6833 23.499 33.6432 24.0094 34.2646C24.4977 34.8582 25.3632 35.0358 26.1233 34.9026C26.8834 34.7695 27.5658 34.37 28.2372 33.9816" fill="#95405D"/>
</g>
</svg>
