<svg width="29" height="28" viewBox="0 0 29 28" fill="none" xmlns="http://www.w3.org/2000/svg">
<path d="M14.8436 22.8098L14.4524 22.5699L14.0607 22.8091L7.05192 27.0889L7.05058 27.0897C6.36053 27.5131 5.46115 26.9031 5.65738 26.0478L7.51506 17.9678L7.61535 17.5316L7.27907 17.2363L1.0809 11.7923L1.08064 11.7921C0.430865 11.2219 0.804774 10.1724 1.6089 10.1075L1.6089 10.1076L1.61292 10.1072L9.77017 9.40532L10.2223 9.36642L10.3976 8.94792L13.5896 1.32983L13.5908 1.32694C13.9093 0.557685 14.9939 0.557687 15.3124 1.32694L15.3134 1.32928L18.5054 8.96449L18.6806 9.38351L19.133 9.42244L27.2903 10.1243L27.2943 10.1247C28.0984 10.1895 28.4724 11.2391 27.8226 11.8092L27.8223 11.8095L21.6242 17.2534L21.2879 17.5488L21.3882 17.985L23.2458 26.0649C23.4421 26.9202 22.5427 27.5302 21.8526 27.1068L21.8524 27.1067L14.8436 22.8098Z" stroke="#6785B4" stroke-width="1.5"/>
</svg>
