<svg width="19" height="18" viewBox="0 0 19 18" fill="none" xmlns="http://www.w3.org/2000/svg">
<path d="M9.50051 14.4918L9.7571 14.6456L14.3645 17.4079L14.3646 17.408C14.8378 17.6919 15.3935 17.2691 15.2748 16.7626L9.50051 14.4918ZM9.50051 14.4918L9.24365 14.6452M9.50051 14.4918L9.24365 14.6452M9.24365 14.6452L4.63629 17.3965L4.63539 17.397M9.24365 14.6452L4.63539 17.397M4.63539 17.397C4.16219 17.6809 3.60654 17.2581 3.72516 16.7516L4.63539 17.397ZM14.0536 11.5682L15.2748 16.7624L3.72521 16.7514L4.94639 11.5572L5.01592 11.2614L4.78544 11.0634L0.710981 7.56375L0.710805 7.5636C0.3082 7.21812 0.519026 6.55802 1.05732 6.51558L1.05732 6.51559L1.05994 6.51537L6.42224 6.06415L6.7216 6.03896L6.83991 5.76283L8.9382 0.865486L8.93903 0.863534C9.14428 0.378822 9.85572 0.378823 10.061 0.863535L10.0616 0.865111L12.1599 5.77346L12.2781 6.04994L12.5778 6.07516L17.9401 6.52638L17.9427 6.52658C18.481 6.56903 18.6918 7.22912 18.2892 7.57461L18.289 7.57476L14.2146 11.0744L13.9841 11.2724L14.0536 11.5682Z" stroke="#E94675"/>
</svg>
